<svg xmlns="http://www.w3.org/2000/svg" viewBox="0 0 963 152.09"><defs><style>.cls-1{fill:none;stroke:#287bd9;stroke-miterlimit:10;stroke-width:6px;}.cls-2{fill:#287bd9;}.cls-3,.cls-5{fill:#fff;}.cls-4{fill:red;}.cls-5{font-size:18.08px;font-family:HelveticaNeue-Bold, Helvetica Neue;font-weight:700;}.cls-6{fill-rule:evenodd;}</style></defs><g id="Layer_2" data-name="Layer 2"><g id="Layer_2-2" data-name="Layer 2"><line class="cls-1" y1="76.04" x2="941.47" y2="76.04"/><polygon class="cls-2" points="937.09 91 963 76.04 937.09 61.08 937.09 91"/></g><g id="draft"><polygon points="213.06 74.09 213.06 53.17 213.06 35.17 183.06 17.17 114.06 17.17 114.06 35.17 114.06 53.17 114.06 71.17 114.06 80.36 113.9 80.36 103.94 80.36 103.94 98.29 149.37 134.17 222.06 134.17 222.06 116.17 222.06 98.17 222.06 80.36 222.06 80.17 213.06 74.09"/><rect class="cls-3" x="161.27" y="121.67" width="5.8" height="13.25"/><rect class="cls-3" x="172.18" y="121.67" width="5.8" height="5.8"/><rect class="cls-3" x="183.1" y="121.67" width="5.8" height="5.8"/><rect class="cls-3" x="194.02" y="121.67" width="5.8" height="5.8"/><rect class="cls-3" x="204.94" y="121.67" width="5.8" height="5.8"/><rect class="cls-3" x="161.27" y="105.43" width="5.8" height="5.8"/><rect class="cls-3" x="172.18" y="105.43" width="5.8" height="5.8"/><rect class="cls-3" x="183.1" y="105.43" width="5.8" height="5.8"/><rect class="cls-3" x="194.02" y="105.43" width="5.8" height="5.8"/><rect class="cls-3" x="204.94" y="105.43" width="5.8" height="5.8"/><rect class="cls-3" x="151.68" y="61.17" width="5.8" height="5.8"/><rect class="cls-3" x="162.6" y="61.17" width="5.8" height="5.8"/><rect class="cls-3" x="173.52" y="61.17" width="5.8" height="5.8"/><rect class="cls-3" x="184.44" y="61.17" width="5.8" height="5.8"/><rect class="cls-3" x="195.36" y="61.17" width="5.8" height="5.8"/><rect class="cls-3" x="151.68" y="44.92" width="5.8" height="5.8"/><rect class="cls-3" x="162.6" y="44.92" width="5.8" height="5.8"/><rect class="cls-3" x="173.52" y="44.92" width="5.8" height="5.8"/><rect class="cls-3" x="184.44" y="44.92" width="5.8" height="5.8"/><rect class="cls-3" x="195.36" y="44.92" width="5.8" height="5.8"/><rect class="cls-3" x="161.27" y="88.14" width="5.8" height="5.8"/><rect class="cls-3" x="172.18" y="88.14" width="5.8" height="5.8"/><rect class="cls-3" x="183.1" y="88.14" width="5.8" height="5.8"/><rect class="cls-3" x="194.02" y="88.14" width="5.8" height="5.8"/><rect class="cls-3" x="204.94" y="88.14" width="5.8" height="5.8"/><polygon points="852.15 74.09 852.15 53.17 852.15 35.17 822.15 17.17 753.15 17.17 753.15 35.17 753.15 53.17 753.15 71.17 753.15 80.36 752.99 80.36 743.03 80.36 743.03 98.29 788.46 134.17 861.15 134.17 861.15 116.17 861.15 98.17 861.15 80.36 861.15 80.17 852.15 74.09"/><rect class="cls-3" x="800.36" y="121.67" width="5.8" height="13.25"/><rect class="cls-3" x="811.27" y="121.67" width="5.8" height="5.8"/><rect class="cls-3" x="822.19" y="121.67" width="5.8" height="5.8"/><rect class="cls-3" x="833.11" y="121.67" width="5.8" height="5.8"/><rect class="cls-3" x="844.03" y="121.67" width="5.8" height="5.8"/><rect class="cls-3" x="800.36" y="105.43" width="5.8" height="5.8"/><rect class="cls-3" x="811.27" y="105.43" width="5.8" height="5.8"/><rect class="cls-3" x="822.19" y="105.43" width="5.8" height="5.8"/><rect class="cls-3" x="833.11" y="105.43" width="5.8" height="5.8"/><rect class="cls-3" x="844.03" y="105.43" width="5.8" height="5.8"/><rect class="cls-3" x="790.77" y="61.17" width="5.8" height="5.8"/><rect class="cls-3" x="801.69" y="61.17" width="5.8" height="5.8"/><rect class="cls-3" x="812.61" y="61.17" width="5.8" height="5.8"/><rect class="cls-3" x="823.53" y="61.17" width="5.8" height="5.8"/><rect class="cls-3" x="834.45" y="61.17" width="5.8" height="5.8"/><rect class="cls-3" x="790.77" y="44.92" width="5.8" height="5.8"/><rect class="cls-3" x="801.69" y="44.92" width="5.8" height="5.8"/><rect class="cls-3" x="812.61" y="44.92" width="5.8" height="5.8"/><rect class="cls-3" x="823.53" y="44.92" width="5.8" height="5.8"/><rect class="cls-3" x="834.45" y="44.92" width="5.8" height="5.8"/><rect class="cls-3" x="800.36" y="88.14" width="5.8" height="5.8"/><rect class="cls-3" x="811.27" y="88.14" width="5.8" height="5.8"/><rect class="cls-3" x="822.19" y="88.14" width="5.8" height="5.8"/><rect class="cls-3" x="833.11" y="88.14" width="5.8" height="5.8"/><rect class="cls-3" x="844.03" y="88.14" width="5.8" height="5.8"/><circle class="cls-4" cx="851.79" cy="33.38" r="11.54"/><text class="cls-5" transform="translate(849.28 39.51)">!</text><circle class="cls-4" cx="743.03" cy="81.04" r="11.54"/><text class="cls-5" transform="translate(740.52 87.18)">!</text><polygon class="cls-6" points="362.22 152.09 362.22 142.19 371.88 142.19 371.67 110.46 371.67 39.98 381.15 39.98 381.15 32.15 403.82 32.15 403.82 39.98 414.54 39.98 414.54 91.09 418.25 91.09 418.25 33.38 433.91 33.38 433.91 12.78 443.8 12.78 443.39 1.65 462.76 1.65 462.76 79.96 466.06 79.96 466.06 46.16 470.59 46.16 470.59 32.15 482.95 0 496.14 32.15 496.14 46.16 501.91 46.16 501.91 107.16 504.39 107.16 504.39 60.59 512.22 60.59 512.22 47.81 524.17 47.81 524.17 20.2 527.05 20.2 527.05 47.81 537.77 47.81 537.77 60.59 547.66 60.59 547.66 106.75 547.77 142.19 610.65 142.19 610.65 151.67 362.22 152.09"/><rect x="576.51" y="62.79" width="8" height="54.27"/><polygon points="566.95 101.13 580.51 114.7 594.08 101.13 594.08 112.64 580.51 126.21 566.95 112.64 566.95 101.13"/></g></g></svg>