<svg xmlns="http://www.w3.org/2000/svg" viewBox="0 0 1920 1080"><defs><style>.cls-1,.cls-14,.cls-16,.cls-4,.cls-7,.cls-9{fill:none;}.cls-1{stroke:#231f20;stroke-width:2px;}.cls-2{font-size:36px;fill:#231f20;}.cls-2,.cls-8{font-family:HelveticaNeue-Bold, Helvetica Neue;}.cls-2,.cls-5,.cls-8{font-weight:700;}.cls-3,.cls-7{opacity:0.5;}.cls-4,.cls-7{stroke:#287bd9;}.cls-14,.cls-16,.cls-4,.cls-7,.cls-9{stroke-miterlimit:10;}.cls-4,.cls-7,.cls-9{stroke-width:8px;}.cls-10,.cls-5,.cls-8{font-size:24px;}.cls-5{fill:#287bd9;font-family:Helvetica-Bold, Helvetica;}.cls-6{letter-spacing:-0.02em;}.cls-8{fill:#d96c28;}.cls-9{stroke:#d96c28;}.cls-10{font-family:Helvetica;}.cls-11{letter-spacing:-0.04em;}.cls-12{letter-spacing:-0.11em;}.cls-13{letter-spacing:-0.07em;}.cls-14,.cls-16{stroke:#000;}.cls-14{stroke-width:3px;}.cls-15{letter-spacing:-0.05em;}</style></defs><g id="Personnel"><line class="cls-1" x1="108.87" y1="540" x2="108.87" y2="575.23"/><text class="cls-2" transform="translate(122.22 575.23)">2020</text><line class="cls-1" x1="1361.49" y1="540" x2="1361.49" y2="575.23"/><text class="cls-2" transform="translate(1374.84 575.23)">2021</text><line class="cls-1" x1="1048.34" y1="540" x2="1048.34" y2="575.23"/><line class="cls-1" x1="735.18" y1="540" x2="735.18" y2="575.23"/><line class="cls-1" x1="422.03" y1="540" x2="422.03" y2="575.23"/><line class="cls-1" x1="1720.04" y1="540" x2="1720.04" y2="575.23"/><text class="cls-2" transform="translate(1733.39 575.23)">2022</text><g class="cls-3"><line class="cls-4" x1="108.87" y1="603" x2="422.03" y2="603"/><text class="cls-5" transform="translate(108.87 631.15)">Carsten Rodin<tspan x="0" y="28.8">Onboarding</tspan></text></g><text class="cls-5" transform="translate(1307.23 458.69)">Public release date</text><line class="cls-4" x1="1294.82" y1="540" x2="1294.82" y2="441.44"/><g class="cls-3"><text class="cls-5" transform="translate(1716.66 458.69)"><tspan class="cls-6">W</tspan><tspan x="22.23" y="0">eb platform</tspan><tspan x="0" y="28.8">release, 12/21 </tspan></text></g><line class="cls-7" x1="1704.25" y1="540" x2="1704.25" y2="441.44"/><text class="cls-8" transform="translate(788.11 502.31)">July 2020</text><line class="cls-9" x1="774.77" y1="540" x2="774.77" y2="484.82"/><text class="cls-10" transform="translate(108.54 179.16)"><tspan class="cls-11">T</tspan><tspan x="13.78" y="0">roubleshoot UD</tspan><tspan class="cls-12" x="180.54" y="0">T</tspan><tspan x="192.54" y="0">ools </tspan><tspan class="cls-13" x="243.23" y="0">v</tspan><tspan x="253.46" y="0">.0,</tspan><tspan x="0" y="28.8">workshop improvements</tspan><tspan x="0" y="57.6">for </tspan><tspan class="cls-13" x="34.68" y="57.6">v</tspan><tspan x="44.91" y="57.6">.1 rewrite</tspan></text><line class="cls-14" x1="108.54" y1="151.12" x2="317.64" y2="151.12"/><text class="cls-10" transform="translate(315.74 261.33)">Maintain UD<tspan class="cls-12" x="132.05" y="0">T</tspan><tspan x="144.05" y="0">ools </tspan><tspan class="cls-13" x="194.74" y="0">v</tspan><tspan x="204.97" y="0">.0</tspan><tspan x="0" y="28.8">for Bronx Metro-North</tspan></text><line class="cls-14" x1="318.07" y1="234" x2="751" y2="234"/><text class="cls-10" transform="translate(562 406.48)"><tspan class="cls-12">T</tspan><tspan x="12" y="0">est &amp; refine UD</tspan><tspan class="cls-12" x="174.73" y="0">T</tspan><tspan x="186.73" y="0">ools </tspan><tspan class="cls-13" x="237.42" y="0">v</tspan><tspan x="247.65" y="0">.1</tspan><tspan x="0" y="28.8">via BK and BX o</tspan><tspan class="cls-6" x="174.77" y="28.8">f</tspan><tspan x="181.02" y="28.8">fice projects</tspan></text><line class="cls-14" x1="562" y1="379.14" x2="1015.05" y2="379.14"/><text class="cls-10" transform="translate(733.66 630.06)">Iterative refinement of UD<tspan class="cls-12" x="273.45" y="0">T</tspan><tspan x="285.45" y="0">ools, </tspan><tspan x="0" y="28.8">and NYC 3D Model </tspan><tspan x="0" y="57.6">based on user feedback</tspan></text><line class="cls-14" x1="733" y1="603" x2="1093" y2="603"/><text class="cls-10" transform="translate(832 738)">Internal/interagency <tspan x="0" y="28.8">UD</tspan><tspan class="cls-12" x="34.66" y="28.8">T</tspan><tspan x="46.66" y="28.8">ools trainings</tspan></text><line class="cls-14" x1="832" y1="710.94" x2="1084" y2="710.94"/><text class="cls-10" transform="translate(832 819.06)">Seek input on public release<tspan x="0" y="28.8">from internal stakeholders </tspan></text><line class="cls-14" x1="832" y1="792" x2="1084" y2="792"/><text class="cls-10" transform="translate(922 900.06)">Implement public release<tspan x="0" y="28.8">features &amp; improvements</tspan></text><line class="cls-14" x1="922" y1="873" x2="1300" y2="873"/><text class="cls-10" transform="translate(1294.82 630)">Maintain UD<tspan class="cls-12" x="132.05" y="0">T</tspan><tspan x="144.05" y="0">ools &amp; 3D Model</tspan></text><line class="cls-14" x1="1294.82" y1="603" x2="1920" y2="603"/><text class="cls-10" transform="translate(1439.29 684.75)">Explore partnerships <tspan x="0" y="28.8">with community &amp; arts orgs</tspan><tspan x="0" y="57.6">(NE</tspan><tspan class="cls-15" x="41.33" y="57.6">A</tspan><tspan x="56.03" y="57.6" xml:space="preserve"> Grant?)</tspan></text><line class="cls-14" x1="1439.29" y1="657.75" x2="1670.03" y2="657.75"/><text class="cls-10" transform="translate(1492.73 797.11)">Develop digital visualization<tspan x="0" y="28.8">&amp; engagement work program</tspan></text><line class="cls-14" x1="1492.73" y1="770.11" x2="1920" y2="770.11"/><text class="cls-10" transform="translate(318.07 351)">Develop UD<tspan class="cls-12" x="129.39" y="0">T</tspan><tspan x="141.39" y="0">ools </tspan><tspan class="cls-13" x="192.08" y="0">v</tspan><tspan x="202.31" y="0">.1</tspan><tspan x="0" y="28.8">for internal release</tspan></text><line class="cls-14" x1="318.07" y1="322.7" x2="643" y2="322.7"/></g><g id="timeline-root"><line class="cls-16" x1="1920" y1="540" y2="540"/></g></svg>