<svg xmlns="http://www.w3.org/2000/svg" viewBox="0 0 963 152.09"><defs><style>.cls-1{fill:none;stroke:#287bd9;stroke-miterlimit:10;stroke-width:6px;}.cls-2{fill:#287bd9;}.cls-3{fill-rule:evenodd;}.cls-4{fill:#fff;}</style></defs><g id="Layer_2" data-name="Layer 2"><g id="Layer_2-2" data-name="Layer 2"><line class="cls-1" y1="76.04" x2="941.47" y2="76.04"/><polygon class="cls-2" points="937.09 91 963 76.04 937.09 61.08 937.09 91"/></g><g id="draft"><polygon class="cls-3" points="61.78 152.09 61.78 142.19 71.43 142.19 71.22 110.46 71.22 39.98 80.7 39.98 80.7 32.15 103.37 32.15 103.37 39.98 114.09 39.98 114.09 91.09 117.8 91.09 117.8 33.38 133.46 33.38 133.46 12.78 143.35 12.78 142.94 1.65 162.31 1.65 162.31 79.96 165.61 79.96 165.61 46.16 170.14 46.16 170.14 32.15 182.51 0 195.7 32.15 195.7 46.16 201.47 46.16 201.47 107.16 203.94 107.16 203.94 60.59 211.77 60.59 211.77 47.81 223.72 47.81 223.72 20.2 226.61 20.2 226.61 47.81 237.32 47.81 237.32 60.59 247.22 60.59 247.22 106.75 247.32 142.19 254.18 142.19 254.18 151.67 61.78 152.09"/><path d="M858.08,29.33H808.86V14h49.22V29.33Zm-43.81-5.42h38.39V19.4H814.27Z"/><rect x="756.71" y="23.91" width="17.16" height="5.42"/><path d="M757.76,98.67a18.59,18.59,0,0,1-12-4.23l3.61-4-1.81,2,1.8-2c.31.27,7.67,6.48,18-.24,12.86-8.32,26-2.05,31.11,2.42l-3.56,4.09c-.48-.41-12-10.13-24.6-2A22.84,22.84,0,0,1,757.76,98.67Z"/><path d="M814.34,87.64a27.26,27.26,0,0,1-16.78-5.75l3.59-4.06c.48.4,11.73,9.93,27.55-.25C851.16,63.14,872,80.78,872.21,81l-3.54,4.1c-.73-.62-18-15.15-37-2.92A31.65,31.65,0,0,1,814.34,87.64Z"/><path d="M822.29,138.1H720.77l2.08-4c.3-.58,29.84-56.95,33.55-65.81v-39h-9.48V14h49.22V29.33h-9.49v39c3.71,8.86,33.25,65.23,33.55,65.81Zm-92.57-5.41h83.61c-7.06-13.49-29.44-56.45-31.92-62.87l-.18-1V23.91h9.5V19.4H752.34v4.51h9.48l-.18,45.91C759.17,76.24,736.78,119.2,729.72,132.69Z"/><path d="M858.42,138.1H816.17l-.76-1.45S801.34,109.83,791.29,90l-.51-1,.34-1.06a44.23,44.23,0,0,1,28.57-28.95V23.91h27.55V59a44.44,44.44,0,0,1,11.88,78.57Zm-39-5.41h37.22a39,39,0,0,0-12.86-69l-2-.54V29.33H825.11v33.8l-2,.54a38.83,38.83,0,0,0-26.5,24.92C805.21,105.47,816.45,127,819.45,132.69Z"/><polygon points="530.8 74.09 530.8 53.17 530.8 35.17 500.8 17.17 431.8 17.17 431.8 35.17 431.8 53.17 431.8 71.17 431.8 80.36 431.64 80.36 421.68 80.36 421.68 98.29 467.11 134.17 539.8 134.17 539.8 116.17 539.8 98.17 539.8 80.36 539.8 80.17 530.8 74.09"/><rect class="cls-4" x="479.01" y="121.67" width="5.8" height="13.25"/><rect class="cls-4" x="489.93" y="121.67" width="5.8" height="5.8"/><rect class="cls-4" x="500.84" y="121.67" width="5.8" height="5.8"/><rect class="cls-4" x="511.76" y="121.67" width="5.8" height="5.8"/><rect class="cls-4" x="522.68" y="121.67" width="5.8" height="5.8"/><rect class="cls-4" x="479.01" y="105.43" width="5.8" height="5.8"/><rect class="cls-4" x="489.93" y="105.43" width="5.8" height="5.8"/><rect class="cls-4" x="500.84" y="105.43" width="5.8" height="5.8"/><rect class="cls-4" x="511.76" y="105.43" width="5.8" height="5.8"/><rect class="cls-4" x="522.68" y="105.43" width="5.8" height="5.8"/><rect class="cls-4" x="469.43" y="61.17" width="5.8" height="5.8"/><rect class="cls-4" x="480.35" y="61.17" width="5.8" height="5.8"/><rect class="cls-4" x="491.26" y="61.17" width="5.8" height="5.8"/><rect class="cls-4" x="502.18" y="61.17" width="5.8" height="5.8"/><rect class="cls-4" x="513.1" y="61.17" width="5.8" height="5.8"/><rect class="cls-4" x="469.43" y="44.92" width="5.8" height="5.8"/><rect class="cls-4" x="480.35" y="44.92" width="5.8" height="5.8"/><rect class="cls-4" x="491.26" y="44.92" width="5.8" height="5.8"/><rect class="cls-4" x="502.18" y="44.92" width="5.8" height="5.8"/><rect class="cls-4" x="513.1" y="44.92" width="5.8" height="5.8"/><rect class="cls-4" x="479.01" y="88.14" width="5.8" height="5.8"/><rect class="cls-4" x="489.93" y="88.14" width="5.8" height="5.8"/><rect class="cls-4" x="500.84" y="88.14" width="5.8" height="5.8"/><rect class="cls-4" x="511.76" y="88.14" width="5.8" height="5.8"/><rect class="cls-4" x="522.68" y="88.14" width="5.8" height="5.8"/></g></g></svg>