<svg xmlns="http://www.w3.org/2000/svg" viewBox="0 0 963 193.35"><defs><style>.cls-1,.cls-10,.cls-11,.cls-4,.cls-5,.cls-6,.cls-7,.cls-8,.cls-9{fill:none;stroke-miterlimit:10;}.cls-1{stroke:#287bd9;stroke-width:6px;}.cls-2{fill:#287bd9;}.cls-3{fill-rule:evenodd;}.cls-10,.cls-11,.cls-4,.cls-5,.cls-6,.cls-7,.cls-8,.cls-9{stroke:#000;stroke-linecap:round;stroke-width:5px;}.cls-5{stroke-dasharray:6.42 6.42;}.cls-6{stroke-dasharray:8.99 8.99;}.cls-7{stroke-dasharray:10.12 10.12;}.cls-8{stroke-dasharray:8.82 8.82;}.cls-9{stroke-dasharray:9.3 9.3;}.cls-10{stroke-dasharray:8.88 8.88;}.cls-11{stroke-dasharray:8.97;}.cls-12{fill:#fff;}</style></defs><g id="Layer_2" data-name="Layer 2"><g id="Layer_2-2" data-name="Layer 2"><line class="cls-1" y1="96.67" x2="941.47" y2="96.67"/><polygon class="cls-2" points="937.09 111.63 963 96.67 937.09 81.72 937.09 111.63"/></g><g id="draft"><polygon class="cls-3" points="60.8 172.72 60.8 162.82 70.45 162.82 70.25 131.09 70.25 60.61 79.73 60.61 79.73 52.78 102.39 52.78 102.39 60.61 113.11 60.61 113.11 111.72 116.82 111.72 116.82 54.02 132.48 54.02 132.48 33.41 142.38 33.41 141.96 22.28 161.33 22.28 161.33 100.59 164.63 100.59 164.63 66.79 169.16 66.79 169.16 52.78 181.53 20.63 194.72 52.78 194.72 66.79 200.49 66.79 200.49 127.79 202.96 127.79 202.96 81.22 210.79 81.22 210.79 68.44 222.75 68.44 222.75 40.83 225.63 40.83 225.63 68.44 236.35 68.44 236.35 81.22 246.24 81.22 246.24 127.38 246.35 162.82 253.2 162.82 253.2 172.3 60.8 172.72"/><path d="M533,105.21l-7.8-12.13a3.29,3.29,0,0,0-.9-.92l-2.7-1.84a3.06,3.06,0,0,0,0-1.09c-1.17-5.13-7.41-14.7-14.84-25.76-2.06-3.06-3.83-5.71-4.71-7.19a26.46,26.46,0,0,0-9.59-9.41,3,3,0,0,0-.68-.26c-6.12-1.6-12.45-2.72-22.95-4.57l-6.21-1.1a27.66,27.66,0,0,0-12.6.51l-14.5-9.9a8.72,8.72,0,0,0-12,2.18,9.12,9.12,0,0,0,1.82,12.38l9.37,6.39L388,98.65a3.18,3.18,0,0,0,0,4.55h0L417.25,132a3.28,3.28,0,0,0,4.6,0l17.79-17.56c11.28.24,20.48-3.4,28.56-8.09h3.16c11.29,0,18.69-.63,23.36-5.24,2.1-2.08,3.66-3.51,4.69-4.42l14.74,10.06a3.26,3.26,0,0,0,1.2.5l14.26,2.88a3.26,3.26,0,0,0,3.85-2.51,3.2,3.2,0,0,0-.44-2.37ZM461.45,47.28l6.21,1.1c10.09,1.78,16.28,2.87,22,4.34a20.51,20.51,0,0,1,6.72,6.8c1,1.65,2.7,4.23,4.9,7.51C504.44,71.7,509,78.41,512,83.75L458,46.93A24.48,24.48,0,0,1,461.45,47.28Zm-32.57-9.89a2.19,2.19,0,0,1,2.92-.53l54.27,37a51.85,51.85,0,0,0-7.25.9L469,68.08c-20.13-13.74-39-26.64-40-27.27A2.91,2.91,0,0,1,428.88,37.39Zm36.41,36,4.87,3.32a61.1,61.1,0,0,1-13.09,2.17l6.64-6.56ZM438.5,107.91a3.32,3.32,0,0,0-2.47.94l-16.49,16.28-24.66-24.21,45.27-44.7,18.11,12.36L448.69,78a3.19,3.19,0,0,0,0,4.55l.26.23c5.37,4.29,14.08,2.22,23.3,0,10.75-2.57,18.6-4,22.57-.13-6.21,1.87-12.12,6-18.3,10.39C466.13,100.39,454.36,108.69,438.5,107.91Zm51.6-11.39c-2.14,2.11-6.05,2.93-11.8,3.21l2-1.41a111.49,111.49,0,0,1,11-7.17l2.55,1.74C492.89,93.82,491.64,95,490.1,96.52ZM517.31,101,498.77,88.39a14.61,14.61,0,0,1,1.45-.24,3.19,3.19,0,0,0,2.9-2.63l16.94,11.56,3.34,5.19Z"/><line class="cls-4" x1="468.53" y1="31.48" x2="468.53" y2="26.62"/><line class="cls-5" x1="468.53" y1="20.2" x2="468.53" y2="10.57"/><polyline class="cls-4" points="468.53 7.36 468.53 2.5 473.39 2.5"/><line class="cls-6" x1="482.38" y1="2.5" x2="531.85" y2="2.5"/><polyline class="cls-4" points="536.35 2.5 541.21 2.5 542.24 7.25"/><polyline class="cls-7" points="544.39 17.14 568.47 128.06 570.5 130.06"/><polyline class="cls-4" points="574.1 133.62 577.55 137.03 577.55 141.9"/><line class="cls-8" x1="577.55" y1="150.71" x2="577.55" y2="181.58"/><polyline class="cls-4" points="577.55 185.99 577.55 190.85 572.69 190.85"/><polyline class="cls-9" points="563.4 190.85 504.87 190.85 466.9 160.87"/><polyline class="cls-4" points="463.25 157.98 459.44 154.97 459.44 150.11"/><polyline class="cls-4" points="459.44 141.9 459.44 137.03 468.53 137.03 468.53 132.17"/><line class="cls-4" x1="468.53" y1="123.27" x2="468.53" y2="118.41"/><line class="cls-4" x1="568.47" y1="128.06" x2="563.61" y2="128.06"/><line class="cls-6" x1="554.61" y1="128.06" x2="505.14" y2="128.06"/><line class="cls-4" x1="500.64" y1="128.06" x2="495.78" y2="128.06"/><line class="cls-4" x1="490.41" y1="107.45" x2="491.64" y2="112.16"/><line class="cls-4" x1="494.56" y1="123.36" x2="495.78" y2="128.06"/><line class="cls-4" x1="468.53" y1="2.5" x2="469.56" y2="7.25"/><line class="cls-10" x1="471.44" y1="15.93" x2="474.27" y2="28.95"/><line class="cls-4" x1="475.21" y1="33.29" x2="476.24" y2="38.04"/><line class="cls-4" x1="504.87" y1="137.03" x2="504.87" y2="141.89"/><line class="cls-8" x1="504.87" y1="150.71" x2="504.87" y2="181.58"/><line class="cls-4" x1="504.87" y1="185.99" x2="504.87" y2="190.85"/><line class="cls-4" x1="495.78" y1="128.06" x2="499.24" y2="131.48"/><line class="cls-4" x1="501.41" y1="133.62" x2="504.87" y2="137.03"/><line class="cls-4" x1="577.55" y1="137.03" x2="572.69" y2="137.03"/><line class="cls-6" x1="563.7" y1="137.03" x2="514.23" y2="137.03"/><line class="cls-4" x1="509.73" y1="137.03" x2="504.87" y2="137.03"/><line class="cls-4" x1="459.44" y1="137.03" x2="462.9" y2="140.45"/><line class="cls-4" x1="465.07" y1="142.59" x2="468.53" y2="146"/><line class="cls-11" x1="468.53" y1="137.03" x2="468.53" y2="146"/><path d="M903.27,77V72.27H898.5V67.51h-4.76V62.75H846.13V121h4.76v4.76h4.76v4.76h4.76v4.76H908V77Zm-54.68,41.51V65.21h42.7v2.3h-40.4v51Zm4.76,4.76V70h42.7v2.3h-40.4v51Zm4.76,4.76V74.73h42.7V77h-40.4v51Zm47.46,4.76h-42.7V79.49h42.7Z"/><rect x="866.62" y="82.55" width="35.19" height="2.46"/><rect x="866.62" y="107.33" width="11.87" height="2.46"/><rect x="866.62" y="112.28" width="35.19" height="2.46"/><rect x="866.62" y="87.51" width="35.19" height="2.46"/><rect x="866.62" y="92.46" width="35.19" height="2.46"/><rect x="866.62" y="97.42" width="17.6" height="2.46"/><rect x="866.62" y="117.24" width="35.19" height="2.46"/><rect x="866.62" y="122.19" width="35.19" height="2.46"/><rect x="866.62" y="127.15" width="17.6" height="2.46"/><polygon points="811.12 94.72 811.12 73.8 811.12 55.8 781.12 37.8 712.12 37.8 712.12 55.8 712.12 73.8 712.12 91.8 712.12 100.99 711.96 100.99 702 100.99 702 118.92 747.43 154.8 820.12 154.8 820.12 136.8 820.12 118.8 820.12 100.99 820.12 100.8 811.12 94.72"/><rect class="cls-12" x="759.33" y="142.3" width="5.8" height="13.25"/><rect class="cls-12" x="770.24" y="142.3" width="5.8" height="5.8"/><rect class="cls-12" x="781.16" y="142.3" width="5.8" height="5.8"/><rect class="cls-12" x="792.08" y="142.3" width="5.8" height="5.8"/><rect class="cls-12" x="803" y="142.3" width="5.8" height="5.8"/><rect class="cls-12" x="759.33" y="126.06" width="5.8" height="5.8"/><rect class="cls-12" x="770.24" y="126.06" width="5.8" height="5.8"/><rect class="cls-12" x="781.16" y="126.06" width="5.8" height="5.8"/><rect class="cls-12" x="792.08" y="126.06" width="5.8" height="5.8"/><rect class="cls-12" x="803" y="126.06" width="5.8" height="5.8"/><rect class="cls-12" x="749.74" y="81.8" width="5.8" height="5.8"/><rect class="cls-12" x="760.66" y="81.8" width="5.8" height="5.8"/><rect class="cls-12" x="771.58" y="81.8" width="5.8" height="5.8"/><rect class="cls-12" x="782.5" y="81.8" width="5.8" height="5.8"/><rect class="cls-12" x="793.42" y="81.8" width="5.8" height="5.8"/><rect class="cls-12" x="749.74" y="65.55" width="5.8" height="5.8"/><rect class="cls-12" x="760.66" y="65.55" width="5.8" height="5.8"/><rect class="cls-12" x="771.58" y="65.55" width="5.8" height="5.8"/><rect class="cls-12" x="782.5" y="65.55" width="5.8" height="5.8"/><rect class="cls-12" x="793.42" y="65.55" width="5.8" height="5.8"/><rect class="cls-12" x="759.33" y="108.77" width="5.8" height="5.8"/><rect class="cls-12" x="770.24" y="108.77" width="5.8" height="5.8"/><rect class="cls-12" x="781.16" y="108.77" width="5.8" height="5.8"/><rect class="cls-12" x="792.08" y="108.77" width="5.8" height="5.8"/><rect class="cls-12" x="803" y="108.77" width="5.8" height="5.8"/></g></g></svg>