<svg xmlns="http://www.w3.org/2000/svg" viewBox="0 0 963 152.09"><defs><style>.cls-1{fill:none;stroke:#287bd9;stroke-miterlimit:10;stroke-width:6px;}.cls-2{fill:#287bd9;}.cls-3{fill-rule:evenodd;}.cls-4{font-size:100px;font-family:HelveticaNeue-Bold, Helvetica Neue;font-weight:700;}</style></defs><g id="Layer_2" data-name="Layer 2"><g id="Layer_2-2" data-name="Layer 2"><line class="cls-1" y1="76.04" x2="941.47" y2="76.04"/><polygon class="cls-2" points="937.09 91 963 76.04 937.09 61.08 937.09 91"/></g><g id="draft"><polygon class="cls-3" points="66.8 152.09 66.8 142.19 76.45 142.19 76.25 110.46 76.25 39.98 85.73 39.98 85.73 32.15 108.39 32.15 108.39 39.98 119.11 39.98 119.11 91.09 122.82 91.09 122.82 33.38 138.48 33.38 138.48 12.78 148.38 12.78 147.96 1.65 167.33 1.65 167.33 79.96 170.63 79.96 170.63 46.16 175.16 46.16 175.16 32.15 187.53 0 200.72 32.15 200.72 46.16 206.49 46.16 206.49 107.16 208.96 107.16 208.96 60.59 216.79 60.59 216.79 47.81 228.75 47.81 228.75 20.2 231.63 20.2 231.63 47.81 242.35 47.81 242.35 60.59 252.24 60.59 252.24 106.75 252.35 142.19 259.2 142.19 259.2 151.67 66.8 152.09"/><path d="M857.31,29.33H808.09V14h49.22V29.33Zm-43.8-5.42h38.38V19.4H813.51Z"/><rect x="755.94" y="23.91" width="17.16" height="5.42"/><path d="M757,98.67a18.56,18.56,0,0,1-12-4.23l3.6-4-1.8,2,1.79-2c.31.27,7.67,6.48,18-.24,12.86-8.32,26-2.05,31.1,2.42l-3.55,4.09c-.49-.41-12-10.13-24.61-2A22.84,22.84,0,0,1,757,98.67Z"/><path d="M813.57,87.64a27.26,27.26,0,0,1-16.78-5.75l3.59-4.06c.48.4,11.73,9.93,27.55-.25,22.46-14.44,43.31,3.2,43.51,3.38l-3.54,4.1c-.73-.62-18-15.15-37-2.92A31.65,31.65,0,0,1,813.57,87.64Z"/><path d="M821.52,138.1H720l2.09-4c.29-.58,29.83-56.95,33.54-65.81v-39h-9.48V14h49.22V29.33h-9.49v39c3.72,8.86,33.26,65.23,33.55,65.81ZM729,132.69h83.61c-7.06-13.49-29.44-56.45-31.92-62.87l-.18-1V23.91H790V19.4H751.57v4.51h9.48l-.18,45.91C758.4,76.24,736,119.2,729,132.69Z"/><path d="M857.65,138.1H815.4l-.76-1.45S800.57,109.83,790.52,90l-.51-1,.34-1.06a44.23,44.23,0,0,1,28.57-28.95V23.91h27.55V59a44.43,44.43,0,0,1,11.88,78.57Zm-39-5.41H855.9a39,39,0,0,0-12.86-69l-2-.54V29.33H824.34v33.8l-2,.54a38.85,38.85,0,0,0-26.5,24.92C804.45,105.47,815.68,127,818.68,132.69Z"/><text class="cls-4" transform="translate(435.8 94.84)">{ }</text></g></g></svg>