<svg xmlns="http://www.w3.org/2000/svg" viewBox="0 0 1920 333.51"><defs><style>.cls-1,.cls-12,.cls-14,.cls-15{fill:none;}.cls-1{stroke:#231f20;stroke-width:2px;}.cls-2{font-size:36px;}.cls-2,.cls-4{fill:#231f20;}.cls-13,.cls-2{font-family:HelveticaNeue-Bold, Helvetica Neue;}.cls-10,.cls-13,.cls-2,.cls-5{font-weight:700;}.cls-10,.cls-13,.cls-3,.cls-5,.cls-8{font-size:24px;}.cls-3,.cls-6{font-family:Helvetica;}.cls-10,.cls-5{font-family:Helvetica-Bold, Helvetica;}.cls-6{font-weight:400;}.cls-7{letter-spacing:-0.07em;}.cls-8{font-family:HelveticaNeue, Helvetica Neue;}.cls-9{letter-spacing:-0.02em;}.cls-10{fill:#287bd9;}.cls-11{letter-spacing:-0.05em;}.cls-12{stroke:#287bd9;}.cls-12,.cls-14,.cls-15{stroke-miterlimit:10;}.cls-12,.cls-14{stroke-width:8px;}.cls-13{fill:#d96c28;}.cls-14{stroke:#d96c28;}.cls-15{stroke:#000;}</style></defs><g id="Layer_2" data-name="Layer 2"><g id="Layer_1-2" data-name="Layer 1"><line class="cls-1" x1="90.95" y1="181.69" x2="90.95" y2="216.92"/><text class="cls-2" transform="translate(104.3 216.92)">2017</text><line class="cls-1" x1="1331.97" y1="181.69" x2="1331.97" y2="216.92"/><text class="cls-2" transform="translate(1345.32 216.92)">2020</text><line class="cls-1" x1="1745.65" y1="181.69" x2="1745.65" y2="216.92"/><text class="cls-2" transform="translate(1759 216.92)">2021</text><line class="cls-1" x1="504.62" y1="181.69" x2="504.62" y2="216.92"/><text class="cls-2" transform="translate(517.97 216.92)">2018</text><line class="cls-1" x1="918.3" y1="181.69" x2="918.3" y2="216.92"/><text class="cls-2" transform="translate(931.65 216.92)">2019</text><text class="cls-3" transform="translate(351 22.61)">Rhino-based analysis<tspan x="0" y="28.8">for Basement EAS</tspan></text><rect class="cls-4" x="333" y="9.07" width="9" height="9"/><text class="cls-5" transform="translate(664.92 20.64)">3D Model of NYC<tspan class="cls-6" x="193.34" y="0" xml:space="preserve"> released</tspan></text><rect class="cls-4" x="650.27" y="9.07" width="9" height="9"/><text class="cls-5" transform="translate(1060.8 23.82)">UD<tspan class="cls-7" x="34.66" y="0">T</tspan><tspan x="47.55" y="0">ools Proof-of-Concept</tspan><tspan class="cls-6"><tspan x="0" y="28.8">used in North Brooklyn, </tspan><tspan x="0" y="57.6">Bushwick, Bronx Metro-North </tspan><tspan x="0" y="86.4">Neighborhood Studies</tspan></tspan></text><rect class="cls-4" x="1042.8" y="9.07" width="9" height="9"/><text class="cls-8" transform="translate(88.85 22.35)">UD O<tspan class="cls-9" x="59.14" y="0">f</tspan><tspan x="65.81" y="0">fice acqui</tspan><tspan class="cls-9" x="169.36" y="0">r</tspan><tspan x="176.92" y="0">es </tspan><tspan x="4.03" y="28.8">Rhino 3D softwa</tspan><tspan class="cls-9" x="181.37" y="28.8">r</tspan><tspan x="188.93" y="28.8">e</tspan></text><rect class="cls-4" x="72" y="9.07" width="9" height="9"/></g><g id="Personnel"><text class="cls-10" transform="translate(90.95 274.59)">David <tspan class="cls-11" x="72.02" y="0">V</tspan><tspan x="86.72" y="0">ega-Barachowitz</tspan></text><line class="cls-12" x1="90.95" y1="242.7" x2="1125.14" y2="242.7"/><text class="cls-10" transform="translate(814.88 291.05)">Xun Liu</text><text class="cls-10" transform="translate(645.27 293.17)">Xiaowei Lim<tspan x="0" y="28.8">+1 Intern</tspan></text><line class="cls-12" x1="814.88" y1="261.13" x2="1158.23" y2="261.13"/><line class="cls-12" x1="645.27" y1="261.13" x2="804.67" y2="261.13"/><line class="cls-12" x1="645.27" y1="225.39" x2="804.67" y2="225.39"/><text class="cls-10" transform="translate(1331.97 274.59)">Carsten Rodin</text><line class="cls-12" x1="1331.97" y1="242.7" x2="1920" y2="242.7"/></g><g id="Today"><text class="cls-13" transform="translate(1581 144)">July 2020</text><line class="cls-14" x1="1567.65" y1="181.69" x2="1567.65" y2="126.51"/></g><g id="timeline-root"><line class="cls-15" x1="1920" y1="181.69" y2="181.69"/></g></g></svg>