<svg xmlns="http://www.w3.org/2000/svg" viewBox="0 0 1505.29 1572.78"><defs><style>.cls-1,.cls-20{fill:#fff;}.cls-10,.cls-11,.cls-12,.cls-13,.cls-14,.cls-15,.cls-16,.cls-17,.cls-2,.cls-23,.cls-3{fill:none;stroke:#000;stroke-linecap:round;}.cls-10,.cls-11,.cls-12,.cls-13,.cls-14,.cls-15,.cls-16,.cls-17,.cls-2,.cls-3{stroke-miterlimit:10;}.cls-2{stroke-width:6.26px;}.cls-10,.cls-11,.cls-12,.cls-13,.cls-14,.cls-15,.cls-16,.cls-3{stroke-width:4px;}.cls-4{fill-rule:evenodd;}.cls-5{font-size:30px;}.cls-20,.cls-5{font-family:HelveticaNeue-Bold, Helvetica Neue;font-weight:700;}.cls-6{letter-spacing:-0.11em;}.cls-7{font-family:HelveticaNeue, Helvetica Neue;font-weight:400;}.cls-8{letter-spacing:-0.07em;}.cls-9{letter-spacing:-0.02em;}.cls-10{stroke-dasharray:6.42 6.42;}.cls-11{stroke-dasharray:8.99 8.99;}.cls-12{stroke-dasharray:10.12 10.12;}.cls-13{stroke-dasharray:8.82 8.82;}.cls-14{stroke-dasharray:9.3 9.3;}.cls-15{stroke-dasharray:8.88 8.88;}.cls-16{stroke-dasharray:8.97;}.cls-17{stroke-width:3.24px;}.cls-18{letter-spacing:-0.03em;}.cls-19{fill:red;}.cls-20{font-size:18.08px;}.cls-21{letter-spacing:-0.02em;}.cls-22{letter-spacing:0em;}.cls-23{stroke-linejoin:round;stroke-width:6.26px;}</style></defs><g id="Layer_2" data-name="Layer 2"><g id="draft"><polygon points="90.07 1151.44 90.07 1142.71 90.07 1135.21 77.56 1127.7 48.8 1127.7 48.8 1135.21 48.8 1142.71 48.8 1150.22 48.8 1154.05 48.73 1154.05 44.58 1154.05 44.58 1161.52 63.52 1176.48 93.82 1176.48 93.82 1168.98 93.82 1161.47 93.82 1154.05 93.82 1153.97 90.07 1151.44"/><rect class="cls-1" x="68.48" y="1171.27" width="2.42" height="5.52"/><rect class="cls-1" x="73.03" y="1171.27" width="2.42" height="2.42"/><rect class="cls-1" x="77.58" y="1171.27" width="2.42" height="2.42"/><rect class="cls-1" x="82.13" y="1171.27" width="2.42" height="2.42"/><rect class="cls-1" x="86.69" y="1171.27" width="2.42" height="2.42"/><rect class="cls-1" x="68.48" y="1164.5" width="2.42" height="2.42"/><rect class="cls-1" x="73.03" y="1164.5" width="2.42" height="2.42"/><rect class="cls-1" x="77.58" y="1164.5" width="2.42" height="2.42"/><rect class="cls-1" x="82.13" y="1164.5" width="2.42" height="2.42"/><rect class="cls-1" x="86.69" y="1164.5" width="2.42" height="2.42"/><rect class="cls-1" x="64.48" y="1146.05" width="2.42" height="2.42"/><rect class="cls-1" x="69.04" y="1146.05" width="2.42" height="2.42"/><rect class="cls-1" x="73.59" y="1146.05" width="2.42" height="2.42"/><rect class="cls-1" x="78.14" y="1146.05" width="2.42" height="2.42"/><rect class="cls-1" x="82.69" y="1146.05" width="2.42" height="2.42"/><rect class="cls-1" x="64.48" y="1139.27" width="2.42" height="2.42"/><rect class="cls-1" x="69.04" y="1139.27" width="2.42" height="2.42"/><rect class="cls-1" x="73.59" y="1139.27" width="2.42" height="2.42"/><rect class="cls-1" x="78.14" y="1139.27" width="2.42" height="2.42"/><rect class="cls-1" x="82.69" y="1139.27" width="2.42" height="2.42"/><rect class="cls-1" x="68.48" y="1157.29" width="2.42" height="2.42"/><rect class="cls-1" x="73.03" y="1157.29" width="2.42" height="2.42"/><rect class="cls-1" x="77.58" y="1157.29" width="2.42" height="2.42"/><rect class="cls-1" x="82.13" y="1157.29" width="2.42" height="2.42"/><rect class="cls-1" x="86.69" y="1157.29" width="2.42" height="2.42"/><polygon points="166.84 1226.61 166.84 1217.89 166.84 1210.38 154.34 1202.88 125.57 1202.88 125.57 1210.38 125.57 1217.89 125.57 1225.39 125.57 1229.22 125.5 1229.22 121.35 1229.22 121.35 1236.7 140.29 1251.66 170.59 1251.66 170.59 1244.15 170.59 1236.65 170.59 1229.22 170.59 1229.14 166.84 1226.61"/><rect class="cls-1" x="145.25" y="1246.45" width="2.42" height="5.52"/><rect class="cls-1" x="149.8" y="1246.45" width="2.42" height="2.42"/><rect class="cls-1" x="154.35" y="1246.45" width="2.42" height="2.42"/><rect class="cls-1" x="158.9" y="1246.45" width="2.42" height="2.42"/><rect class="cls-1" x="163.46" y="1246.45" width="2.42" height="2.42"/><rect class="cls-1" x="145.25" y="1239.68" width="2.42" height="2.42"/><rect class="cls-1" x="149.8" y="1239.68" width="2.42" height="2.42"/><rect class="cls-1" x="154.35" y="1239.68" width="2.42" height="2.42"/><rect class="cls-1" x="158.9" y="1239.68" width="2.42" height="2.42"/><rect class="cls-1" x="163.46" y="1239.68" width="2.42" height="2.42"/><rect class="cls-1" x="141.26" y="1221.22" width="2.42" height="2.42"/><rect class="cls-1" x="145.81" y="1221.22" width="2.42" height="2.42"/><rect class="cls-1" x="150.36" y="1221.22" width="2.42" height="2.42"/><rect class="cls-1" x="154.91" y="1221.22" width="2.42" height="2.42"/><rect class="cls-1" x="159.46" y="1221.22" width="2.42" height="2.42"/><rect class="cls-1" x="141.26" y="1214.45" width="2.42" height="2.42"/><rect class="cls-1" x="145.81" y="1214.45" width="2.42" height="2.42"/><rect class="cls-1" x="150.36" y="1214.45" width="2.42" height="2.42"/><rect class="cls-1" x="154.91" y="1214.45" width="2.42" height="2.42"/><rect class="cls-1" x="159.46" y="1214.45" width="2.42" height="2.42"/><rect class="cls-1" x="145.25" y="1232.47" width="2.42" height="2.42"/><rect class="cls-1" x="149.8" y="1232.47" width="2.42" height="2.42"/><rect class="cls-1" x="154.35" y="1232.47" width="2.42" height="2.42"/><rect class="cls-1" x="158.9" y="1232.47" width="2.42" height="2.42"/><rect class="cls-1" x="163.46" y="1232.47" width="2.42" height="2.42"/><polygon class="cls-2" points="24.12 1107.72 200.56 1081.35 215 1112.04 200.56 1111.84 200.56 1270.35 24.12 1270.35 24.12 1107.72"/><line class="cls-2" x1="24.12" y1="1109.4" x2="215" y2="1112.04"/><line class="cls-3" x1="63.75" y1="1211.98" x2="107.51" y2="1257.97"/><line class="cls-3" x1="147.67" y1="1173.43" x2="115.06" y2="1129.81"/><line class="cls-3" x1="36.45" y1="1221.22" x2="181.73" y2="1159.71"/><circle cx="160.67" cy="1139.27" r="7.83"/><rect x="47.65" y="1231.49" width="14.88" height="22.78"/><polygon points="163.77 1193.01 183.01 1193.01 173.97 1178.5 163.77 1193.01"/><polyline class="cls-2" points="24.12 1231.49 5.03 1231.49 24.12 1270.35"/><polygon class="cls-4" points="14.03 189.43 14.03 179.54 23.68 179.54 23.48 147.81 23.48 77.33 32.95 77.33 32.95 69.5 55.62 69.5 55.62 77.33 66.34 77.33 66.34 128.43 70.05 128.43 70.05 70.73 85.71 70.73 85.71 50.12 95.6 50.12 95.19 39 114.56 39 114.56 117.31 117.86 117.31 117.86 83.51 122.39 83.51 122.39 69.5 134.76 37.35 147.95 69.5 147.95 83.51 153.72 83.51 153.72 144.51 156.19 144.51 156.19 97.93 164.02 97.93 164.02 85.16 175.97 85.16 175.97 57.54 178.86 57.54 178.86 85.16 189.57 85.16 189.57 97.93 199.47 97.93 199.47 144.1 199.57 179.54 206.43 179.54 206.43 189.02 14.03 189.43"/><text class="cls-5" transform="translate(23.03 262.35)">NYC Digital <tspan class="cls-6" x="172.71" y="0">T</tspan><tspan x="187.71" y="0">win</tspan><tspan class="cls-7"><tspan x="0" y="72">GIS, Data Engineering &amp; App De</tspan><tspan class="cls-8" x="432.29" y="72">v</tspan><tspan x="445.07" y="72">.</tspan><tspan x="0" y="108">HED (Known P</tspan><tspan class="cls-9" x="198.33" y="108">r</tspan><tspan x="207.78" y="108">ojects DB)</tspan><tspan x="0" y="144">Capital Planning (Facilities DB)</tspan><tspan x="0" y="180">Chris Rado, DOITT</tspan></tspan></text><path d="M743.49,104.71l-7.8-12.13a3.16,3.16,0,0,0-.9-.92l-2.69-1.84a3.06,3.06,0,0,0-.05-1.09C730.88,83.6,724.64,74,717.21,63c-2.06-3.06-3.83-5.71-4.71-7.19a26.38,26.38,0,0,0-9.59-9.41,2.81,2.81,0,0,0-.68-.26c-6.12-1.6-12.45-2.72-22.94-4.57l-6.21-1.1a27.71,27.71,0,0,0-12.61.51L646,31.05a8.72,8.72,0,0,0-12,2.18,9.12,9.12,0,0,0,1.83,12.38c.38.27,3.92,2.68,9.36,6.39L598.43,98.15a3.18,3.18,0,0,0,0,4.55h0l29.29,28.76a3.29,3.29,0,0,0,4.61,0l17.78-17.56c11.28.24,20.49-3.4,28.57-8.09h3.16c11.28,0,18.68-.63,23.35-5.24,2.11-2.08,3.66-3.51,4.69-4.42l14.74,10.06a3.26,3.26,0,0,0,1.2.5l14.26,2.88a3.26,3.26,0,0,0,3.85-2.51,3.2,3.2,0,0,0-.44-2.37ZM671.92,46.78l6.22,1.1c10.09,1.78,16.27,2.87,22,4.34a20.42,20.42,0,0,1,6.72,6.8c1,1.65,2.71,4.23,4.9,7.51,3.14,4.67,7.65,11.38,10.7,16.72l-54-36.82A24.19,24.19,0,0,1,671.92,46.78Zm-32.57-9.89a2.19,2.19,0,0,1,2.92-.53l54.27,37a52,52,0,0,0-7.25.9l-9.82-6.7-40-27.27A2.92,2.92,0,0,1,639.35,36.89Zm36.41,36,4.87,3.32a61.1,61.1,0,0,1-13.09,2.17l6.65-6.56ZM649,107.41a3.33,3.33,0,0,0-2.47.94L630,124.63l-24.66-24.21,45.28-44.7,18.1,12.36-9.56,9.44a3.18,3.18,0,0,0,0,4.55,2.73,2.73,0,0,0,.25.23c5.37,4.29,14.09,2.22,23.3,0,10.76-2.57,18.61-4,22.57-.13-6.21,1.87-12.12,6-18.3,10.39C676.61,99.89,664.83,108.19,649,107.41ZM700.58,96c-2.15,2.11-6.06,2.93-11.81,3.21l2-1.41a111.49,111.49,0,0,1,11-7.17l2.55,1.74C703.37,93.32,702.11,94.5,700.58,96Zm27.2,4.52L709.24,87.89a14.61,14.61,0,0,1,1.45-.24,3.18,3.18,0,0,0,2.9-2.63l16.95,11.56,3.33,5.19Z"/><line class="cls-3" x1="679" y1="30.98" x2="679" y2="26.12"/><line class="cls-10" x1="679" y1="19.7" x2="679" y2="10.07"/><polyline class="cls-3" points="679 6.86 679 2 683.86 2"/><line class="cls-11" x1="692.85" y1="2" x2="742.33" y2="2"/><polyline class="cls-3" points="746.82 2 751.68 2 752.72 6.75"/><polyline class="cls-12" points="754.86 16.64 778.94 127.56 780.97 129.56"/><polyline class="cls-3" points="784.57 133.12 788.03 136.53 788.03 141.4"/><line class="cls-13" x1="788.03" y1="150.21" x2="788.03" y2="181.08"/><polyline class="cls-3" points="788.03 185.49 788.03 190.35 783.17 190.35"/><polyline class="cls-14" points="773.87 190.35 715.34 190.35 677.38 160.37"/><polyline class="cls-3" points="673.73 157.48 669.91 154.47 669.91 149.61"/><polyline class="cls-3" points="669.91 141.4 669.91 136.53 679 136.53 679 131.67"/><line class="cls-3" x1="679" y1="122.77" x2="679" y2="117.91"/><line class="cls-3" x1="778.94" y1="127.56" x2="774.08" y2="127.56"/><line class="cls-11" x1="765.09" y1="127.56" x2="715.61" y2="127.56"/><line class="cls-3" x1="711.12" y1="127.56" x2="706.26" y2="127.56"/><line class="cls-3" x1="700.89" y1="106.95" x2="702.11" y2="111.66"/><line class="cls-3" x1="705.03" y1="122.86" x2="706.26" y2="127.56"/><line class="cls-3" x1="679" y1="2" x2="680.03" y2="6.75"/><line class="cls-15" x1="681.91" y1="15.43" x2="684.74" y2="28.45"/><line class="cls-3" x1="685.68" y1="32.79" x2="686.71" y2="37.54"/><line class="cls-3" x1="715.34" y1="136.53" x2="715.34" y2="141.39"/><line class="cls-13" x1="715.34" y1="150.21" x2="715.34" y2="181.08"/><line class="cls-3" x1="715.34" y1="185.49" x2="715.34" y2="190.35"/><line class="cls-3" x1="706.26" y1="127.56" x2="709.72" y2="130.98"/><line class="cls-3" x1="711.88" y1="133.12" x2="715.34" y2="136.53"/><line class="cls-3" x1="788.03" y1="136.53" x2="783.17" y2="136.53"/><line class="cls-11" x1="774.17" y1="136.53" x2="724.7" y2="136.53"/><line class="cls-3" x1="720.2" y1="136.53" x2="715.34" y2="136.53"/><line class="cls-3" x1="669.91" y1="136.53" x2="673.37" y2="139.95"/><line class="cls-3" x1="675.54" y1="142.09" x2="679" y2="145.5"/><line class="cls-16" x1="679" y1="136.53" x2="679" y2="145.5"/><text class="cls-5" transform="translate(599.03 262.35)">Single-Site Analysis<tspan class="cls-7"><tspan x="0" y="72">Zoning Division</tspan><tspan x="0" y="108">Urban Design O</tspan><tspan class="cls-9" x="214.5" y="108">f</tspan><tspan x="222.84" y="108">fice</tspan><tspan x="0" y="144">Bo</tspan><tspan class="cls-9" x="37.77" y="144">r</tspan><tspan x="47.22" y="144">ough Urban Designers</tspan><tspan x="0" y="180">P</tspan><tspan class="cls-9" x="19.44" y="180">r</tspan><tspan x="28.89" y="180">ofessional Community</tspan></tspan></text><polyline class="cls-17" points="1162.08 83.03 1162.08 109.94 1125.74 109.94 1103.03 92 1103.03 83.03"/><line class="cls-17" x1="1125.74" y1="83.03" x2="1125.74" y2="109.94"/><line class="cls-17" x1="1162.08" y1="83.03" x2="1125.74" y2="83.03"/><line class="cls-17" x1="1162.08" y1="100.94" x2="1126.08" y2="100.94"/><line class="cls-17" x1="1126.08" y1="91.94" x2="1162.08" y2="91.94"/><line class="cls-17" x1="1108.08" y1="78.44" x2="1126.08" y2="91.94"/><line class="cls-17" x1="1108.08" y1="86.6" x2="1108.08" y2="51.44"/><line class="cls-17" x1="1162.08" y1="82.94" x2="1157.58" y2="78.44"/><line class="cls-17" x1="1121.58" y1="78.44" x2="1157.58" y2="78.44"/><line class="cls-17" x1="1126.08" y1="82.94" x2="1108.08" y2="69.44"/><polyline class="cls-17" points="1121.58 78.44 1121.58 69.44 1157.58 69.44 1157.58 78.44"/><line class="cls-17" x1="1157.58" y1="60.44" x2="1157.58" y2="69.44"/><line class="cls-17" x1="1121.58" y1="69.44" x2="1121.58" y2="60.44"/><line class="cls-17" x1="1121.58" y1="60.44" x2="1108.08" y2="51.44"/><line class="cls-17" x1="1121.58" y1="69.44" x2="1108.08" y2="60.44"/><line class="cls-17" x1="1108.08" y1="51.44" x2="1142.58" y2="51.44"/><line class="cls-17" x1="1157.58" y1="60.44" x2="1142.58" y2="51.44"/><line class="cls-17" x1="1157.58" y1="60.44" x2="1121.58" y2="60.44"/><line class="cls-17" x1="1103.03" y1="83.03" x2="1108.01" y2="83.03"/><line class="cls-17" x1="1125.74" y1="100.94" x2="1103.03" y2="83.03"/><polyline class="cls-17" points="1242.92 83.03 1242.92 109.94 1206.58 109.94 1183.87 92 1183.87 83.03"/><line class="cls-17" x1="1206.58" y1="83.03" x2="1206.58" y2="109.94"/><line class="cls-17" x1="1242.92" y1="83.03" x2="1206.58" y2="83.03"/><line class="cls-17" x1="1242.92" y1="100.94" x2="1206.92" y2="100.94"/><line class="cls-17" x1="1206.92" y1="91.94" x2="1242.92" y2="91.94"/><line class="cls-17" x1="1188.92" y1="78.44" x2="1206.92" y2="91.94"/><line class="cls-17" x1="1188.92" y1="86.6" x2="1188.92" y2="51.44"/><line class="cls-17" x1="1242.92" y1="82.94" x2="1238.42" y2="78.44"/><line class="cls-17" x1="1202.42" y1="78.44" x2="1238.42" y2="78.44"/><line class="cls-17" x1="1206.92" y1="82.94" x2="1188.92" y2="69.44"/><polyline class="cls-17" points="1202.42 78.44 1202.42 69.44 1238.42 69.44 1238.42 78.44"/><line class="cls-17" x1="1238.42" y1="60.44" x2="1238.42" y2="69.44"/><line class="cls-17" x1="1202.42" y1="69.44" x2="1202.42" y2="60.44"/><line class="cls-17" x1="1202.42" y1="60.44" x2="1188.92" y2="51.44"/><line class="cls-17" x1="1202.42" y1="69.44" x2="1188.92" y2="60.44"/><line class="cls-17" x1="1188.92" y1="51.44" x2="1223.42" y2="51.44"/><line class="cls-17" x1="1238.42" y1="60.44" x2="1223.42" y2="51.44"/><line class="cls-17" x1="1238.42" y1="60.44" x2="1202.42" y2="60.44"/><line class="cls-17" x1="1183.87" y1="83.03" x2="1188.85" y2="83.03"/><line class="cls-17" x1="1206.58" y1="100.94" x2="1183.87" y2="83.03"/><polyline class="cls-17" points="1162.08 163.44 1162.08 190.35 1125.74 190.35 1103.03 172.41 1103.03 163.44"/><line class="cls-17" x1="1125.74" y1="163.44" x2="1125.74" y2="190.35"/><line class="cls-17" x1="1162.08" y1="163.44" x2="1125.74" y2="163.44"/><line class="cls-17" x1="1162.08" y1="181.35" x2="1126.08" y2="181.35"/><line class="cls-17" x1="1126.08" y1="172.35" x2="1162.08" y2="172.35"/><line class="cls-17" x1="1108.08" y1="158.85" x2="1126.08" y2="172.35"/><line class="cls-17" x1="1108.08" y1="167" x2="1108.08" y2="131.85"/><line class="cls-17" x1="1162.08" y1="163.35" x2="1157.58" y2="158.85"/><line class="cls-17" x1="1121.58" y1="158.85" x2="1157.58" y2="158.85"/><line class="cls-17" x1="1126.08" y1="163.35" x2="1108.08" y2="149.85"/><polyline class="cls-17" points="1121.58 158.85 1121.58 149.85 1157.58 149.85 1157.58 158.85"/><line class="cls-17" x1="1157.58" y1="140.85" x2="1157.58" y2="149.85"/><line class="cls-17" x1="1121.58" y1="149.85" x2="1121.58" y2="140.85"/><line class="cls-17" x1="1121.58" y1="140.85" x2="1108.08" y2="131.85"/><line class="cls-17" x1="1121.58" y1="149.85" x2="1108.08" y2="140.85"/><line class="cls-17" x1="1108.08" y1="131.85" x2="1142.58" y2="131.85"/><line class="cls-17" x1="1157.58" y1="140.85" x2="1142.58" y2="131.85"/><line class="cls-17" x1="1157.58" y1="140.85" x2="1121.58" y2="140.85"/><line class="cls-17" x1="1103.03" y1="163.44" x2="1108.01" y2="163.44"/><line class="cls-17" x1="1125.74" y1="181.35" x2="1103.03" y2="163.44"/><polyline class="cls-17" points="1242.92 163.44 1242.92 190.35 1206.58 190.35 1183.87 172.41 1183.87 163.44"/><line class="cls-17" x1="1206.58" y1="163.44" x2="1206.58" y2="190.35"/><line class="cls-17" x1="1242.92" y1="163.44" x2="1206.58" y2="163.44"/><line class="cls-17" x1="1242.92" y1="181.35" x2="1206.92" y2="181.35"/><line class="cls-17" x1="1206.92" y1="172.35" x2="1242.92" y2="172.35"/><line class="cls-17" x1="1188.92" y1="158.85" x2="1206.92" y2="172.35"/><line class="cls-17" x1="1188.92" y1="167" x2="1188.92" y2="131.85"/><line class="cls-17" x1="1242.92" y1="163.35" x2="1238.42" y2="158.85"/><line class="cls-17" x1="1202.42" y1="158.85" x2="1238.42" y2="158.85"/><line class="cls-17" x1="1206.92" y1="163.35" x2="1188.92" y2="149.85"/><polyline class="cls-17" points="1202.42 158.85 1202.42 149.85 1238.42 149.85 1238.42 158.85"/><line class="cls-17" x1="1238.42" y1="140.85" x2="1238.42" y2="149.85"/><line class="cls-17" x1="1202.42" y1="149.85" x2="1202.42" y2="140.85"/><line class="cls-17" x1="1202.42" y1="140.85" x2="1188.92" y2="131.85"/><line class="cls-17" x1="1202.42" y1="149.85" x2="1188.92" y2="140.85"/><line class="cls-17" x1="1188.92" y1="131.85" x2="1223.42" y2="131.85"/><line class="cls-17" x1="1238.42" y1="140.85" x2="1223.42" y2="131.85"/><line class="cls-17" x1="1238.42" y1="140.85" x2="1202.42" y2="140.85"/><line class="cls-17" x1="1183.87" y1="163.44" x2="1188.85" y2="163.44"/><line class="cls-17" x1="1206.58" y1="181.35" x2="1183.87" y2="163.44"/><text class="cls-5" transform="translate(1103.03 262.35)">Multi-Site Analysis<tspan class="cls-7"><tspan x="0" y="72">EARD</tspan><tspan x="0" y="108">Neighborhood Studies</tspan><tspan x="0" y="144">HPD, NYCHA</tspan><tspan x="0" y="180">+ Single-Site stakeholders</tspan></tspan></text><path d="M732.16,657.58H682.94V642.23h49.22v15.35Zm-43.8-5.42h38.38v-4.52H688.36Z"/><rect x="630.79" y="652.16" width="17.16" height="5.42"/><path d="M631.84,726.91a18.64,18.64,0,0,1-12-4.22l3.61-4-1.81,2,1.8-2c.3.27,7.66,6.47,18-.25,12.86-8.32,26-2,31.1,2.43L669,724.91c-.49-.42-12-10.14-24.61-2A22.88,22.88,0,0,1,631.84,726.91Z"/><path d="M688.42,715.89a27.16,27.16,0,0,1-16.77-5.76l3.58-4c.48.4,11.73,9.93,27.55-.25,22.46-14.44,43.31,3.2,43.51,3.37l-3.54,4.1c-.72-.62-18-15.15-37-2.91C699.31,714.5,693.43,715.89,688.42,715.89Z"/><path d="M696.37,766.35H594.85l2.09-4c.29-.58,29.83-57,33.55-65.81v-39H621V642.23h49.23v15.35h-9.5v39c3.72,8.87,33.26,65.23,33.55,65.81Zm-92.57-5.42h83.61c-7.06-13.49-29.44-56.44-31.92-62.86l-.17-1V652.16h9.49v-4.52H626.42v4.52h9.49l-.18,45.91C633.25,704.49,610.86,747.44,603.8,760.93Z"/><path d="M732.5,766.35H690.25l-.76-1.45s-14.07-26.83-24.12-46.62l-.51-1,.34-1.06a44.25,44.25,0,0,1,28.57-29V652.16h27.55v35.13a44.42,44.42,0,0,1,11.88,78.56Zm-39-5.42h37.22a39,39,0,0,0-12.86-69l-2-.55V657.58H699.2v33.79l-2,.55a38.83,38.83,0,0,0-26.51,24.91C679.3,733.72,690.54,755.21,693.53,760.93Z"/><text class="cls-5" transform="translate(599.03 838.35)">3D Spatial Analysis<tspan class="cls-7"><tspan x="0" y="72">Data Engineering</tspan><tspan x="0" y="108">Mayors’ O</tspan><tspan class="cls-9" x="138.93" y="108">f</tspan><tspan x="147.27" y="108">fice of Sustainability</tspan></tspan></text><text class="cls-5" transform="translate(23.03 1342.35)">Digital Drawing<tspan class="cls-7"><tspan x="0" y="72">Urban Design O</tspan><tspan class="cls-9" x="214.5" y="72">f</tspan><tspan x="222.84" y="72">fice</tspan><tspan x="0" y="108">Bo</tspan><tspan class="cls-9" x="37.77" y="108">r</tspan><tspan x="47.22" y="108">ough Urban Designers</tspan><tspan x="0" y="144">Communications</tspan><tspan x="0" y="180">P</tspan><tspan class="cls-9" x="19.44" y="180">r</tspan><tspan x="28.89" y="180">ofessional Community</tspan><tspan x="0" y="216">Students, Arts O</tspan><tspan class="cls-18" x="222.3" y="216">r</tspan><tspan x="231.45" y="216">gs.</tspan></tspan></text><path d="M630.63,1190.35a5.05,5.05,0,0,0-2.85.7,5.2,5.2,0,0,0-1.65,1.75,6.07,6.07,0,0,0-.75,2.35,21.87,21.87,0,0,0-.15,2.5v15.2a13.21,13.21,0,0,1-1.15,6,10.77,10.77,0,0,1-2.7,3.5,9.66,9.66,0,0,1-3.25,1.75,16,16,0,0,1-2.8.6v.3a13.64,13.64,0,0,1,2.8.65,10.19,10.19,0,0,1,3.25,1.8,11.24,11.24,0,0,1,2.7,3.3,10.74,10.74,0,0,1,1.15,5.25v16a21.14,21.14,0,0,0,.15,2.4,6.13,6.13,0,0,0,.75,2.35,5.2,5.2,0,0,0,1.65,1.75,5.13,5.13,0,0,0,2.85.7H636v11.2h-12.7a10.73,10.73,0,0,1-3.85-.85,13.33,13.33,0,0,1-4-2.5,13.94,13.94,0,0,1-3.15-4.2,12.91,12.91,0,0,1-1.3-6v-19.4a7.27,7.27,0,0,0-1-3.9,8.41,8.41,0,0,0-2.4-2.55,10.51,10.51,0,0,0-3-1.4,10.34,10.34,0,0,0-2.7-.45v-8.7a10.34,10.34,0,0,0,2.7-.45,9.19,9.19,0,0,0,3-1.5,9.09,9.09,0,0,0,2.4-2.8,8.51,8.51,0,0,0,1-4.25v-18.8a12.88,12.88,0,0,1,1.3-6,13.94,13.94,0,0,1,3.15-4.2,13.33,13.33,0,0,1,4-2.5,10.52,10.52,0,0,1,3.85-.85H636v11.2Z"/><path d="M669.23,1259.15a5.13,5.13,0,0,0,2.85-.7,5.2,5.2,0,0,0,1.65-1.75,6.13,6.13,0,0,0,.75-2.35,21.14,21.14,0,0,0,.15-2.4v-16a10.63,10.63,0,0,1,1.15-5.25,10.93,10.93,0,0,1,2.7-3.3,10,10,0,0,1,3.25-1.8,13.35,13.35,0,0,1,2.8-.65v-.3a15.67,15.67,0,0,1-2.8-.6,9.48,9.48,0,0,1-3.25-1.75,10.51,10.51,0,0,1-2.7-3.5,13.07,13.07,0,0,1-1.15-6v-15.2a21.87,21.87,0,0,0-.15-2.5,6.07,6.07,0,0,0-.75-2.35,5.2,5.2,0,0,0-1.65-1.75,5.05,5.05,0,0,0-2.85-.7h-5.4v-11.2h12.7a10.6,10.6,0,0,1,3.85.85,13.58,13.58,0,0,1,4,2.5,14.28,14.28,0,0,1,3.15,4.2,13,13,0,0,1,1.3,6v18.8a8.41,8.41,0,0,0,1,4.25,8.83,8.83,0,0,0,2.4,2.8,9,9,0,0,0,3,1.5,10.5,10.5,0,0,0,2.8.45v8.7a10.5,10.5,0,0,0-2.8.45,10.26,10.26,0,0,0-3,1.4,8.18,8.18,0,0,0-2.4,2.55,7.18,7.18,0,0,0-1,3.9v19.4a13,13,0,0,1-1.3,6,14.28,14.28,0,0,1-3.15,4.2,13.58,13.58,0,0,1-4,2.5,10.82,10.82,0,0,1-3.85.85h-12.7v-11.2Z"/><text class="cls-5" transform="translate(599.03 1342.35)">Interactive<tspan class="cls-7"><tspan x="0" y="72">Planning Labs</tspan><tspan x="0" y="108">Communications</tspan><tspan x="0" y="144">Students, Arts O</tspan><tspan class="cls-18" x="222.3" y="144">r</tspan><tspan x="231.45" y="144">gs.</tspan></tspan></text><polygon points="1217.84 705.52 1217.84 684.6 1217.84 666.6 1187.84 648.6 1118.84 648.6 1118.84 666.6 1118.84 684.6 1118.84 702.6 1118.84 711.79 1118.68 711.79 1108.72 711.79 1108.72 729.72 1154.15 765.6 1226.84 765.6 1226.84 747.6 1226.84 729.6 1226.84 711.79 1226.84 711.6 1217.84 705.52"/><rect class="cls-1" x="1166.05" y="753.1" width="5.8" height="13.25"/><rect class="cls-1" x="1176.96" y="753.1" width="5.8" height="5.8"/><rect class="cls-1" x="1187.88" y="753.1" width="5.8" height="5.8"/><rect class="cls-1" x="1198.8" y="753.1" width="5.8" height="5.8"/><rect class="cls-1" x="1209.72" y="753.1" width="5.8" height="5.8"/><rect class="cls-1" x="1166.05" y="736.86" width="5.8" height="5.8"/><rect class="cls-1" x="1176.96" y="736.86" width="5.8" height="5.8"/><rect class="cls-1" x="1187.88" y="736.86" width="5.8" height="5.8"/><rect class="cls-1" x="1198.8" y="736.86" width="5.8" height="5.8"/><rect class="cls-1" x="1209.72" y="736.86" width="5.8" height="5.8"/><rect class="cls-1" x="1156.46" y="692.6" width="5.8" height="5.8"/><rect class="cls-1" x="1167.38" y="692.6" width="5.8" height="5.8"/><rect class="cls-1" x="1178.3" y="692.6" width="5.8" height="5.8"/><rect class="cls-1" x="1189.22" y="692.6" width="5.8" height="5.8"/><rect class="cls-1" x="1200.14" y="692.6" width="5.8" height="5.8"/><rect class="cls-1" x="1156.46" y="676.35" width="5.8" height="5.8"/><rect class="cls-1" x="1167.38" y="676.35" width="5.8" height="5.8"/><rect class="cls-1" x="1178.3" y="676.35" width="5.8" height="5.8"/><rect class="cls-1" x="1189.22" y="676.35" width="5.8" height="5.8"/><rect class="cls-1" x="1200.14" y="676.35" width="5.8" height="5.8"/><rect class="cls-1" x="1166.05" y="719.57" width="5.8" height="5.8"/><rect class="cls-1" x="1176.96" y="719.57" width="5.8" height="5.8"/><rect class="cls-1" x="1187.88" y="719.57" width="5.8" height="5.8"/><rect class="cls-1" x="1198.8" y="719.57" width="5.8" height="5.8"/><rect class="cls-1" x="1209.72" y="719.57" width="5.8" height="5.8"/><circle class="cls-19" cx="1217.48" cy="664.81" r="11.54"/><text class="cls-20" transform="translate(1214.97 670.94)">!</text><circle class="cls-19" cx="1108.72" cy="712.47" r="11.54"/><text class="cls-20" transform="translate(1106.21 718.61)">!</text><text class="cls-5" transform="translate(1106.18 838.35)">Zoning “Spell-Check”<tspan class="cls-7"><tspan x="0" y="72">TRD</tspan><tspan x="0" y="108">Zoning Division</tspan></tspan></text><text class="cls-5" transform="translate(23.03 838.35)">Envi<tspan class="cls-9" x="60.57" y="0">r</tspan><tspan x="71.7" y="0">onmental Simulation</tspan><tspan class="cls-7"><tspan x="0" y="72">EARD</tspan><tspan x="0" y="108">Neighborhood Studies</tspan><tspan x="0" y="144">Zoning Division</tspan></tspan></text><polygon points="200.67 705.52 200.67 684.6 200.67 666.6 170.67 648.6 101.67 648.6 101.67 666.6 101.67 684.6 101.67 702.6 101.67 711.79 101.51 711.79 91.55 711.79 91.55 729.72 136.98 765.6 209.67 765.6 209.67 747.6 209.67 729.6 209.67 711.79 209.67 711.6 200.67 705.52"/><rect class="cls-1" x="148.88" y="753.1" width="5.8" height="13.25"/><rect class="cls-1" x="159.79" y="753.1" width="5.8" height="5.8"/><rect class="cls-1" x="170.71" y="753.1" width="5.8" height="5.8"/><rect class="cls-1" x="181.63" y="753.1" width="5.8" height="5.8"/><rect class="cls-1" x="192.55" y="753.1" width="5.8" height="5.8"/><rect class="cls-1" x="148.88" y="736.86" width="5.8" height="5.8"/><rect class="cls-1" x="159.79" y="736.86" width="5.8" height="5.8"/><rect class="cls-1" x="170.71" y="736.86" width="5.8" height="5.8"/><rect class="cls-1" x="181.63" y="736.86" width="5.8" height="5.8"/><rect class="cls-1" x="192.55" y="736.86" width="5.8" height="5.8"/><rect class="cls-1" x="139.29" y="692.6" width="5.8" height="5.8"/><rect class="cls-1" x="150.21" y="692.6" width="5.8" height="5.8"/><rect class="cls-1" x="161.13" y="692.6" width="5.8" height="5.8"/><rect class="cls-1" x="172.05" y="692.6" width="5.8" height="5.8"/><rect class="cls-1" x="182.96" y="692.6" width="5.8" height="5.8"/><rect class="cls-1" x="139.29" y="676.35" width="5.8" height="5.8"/><rect class="cls-1" x="150.21" y="676.35" width="5.8" height="5.8"/><rect class="cls-1" x="161.13" y="676.35" width="5.8" height="5.8"/><rect class="cls-1" x="172.05" y="676.35" width="5.8" height="5.8"/><rect class="cls-1" x="182.96" y="676.35" width="5.8" height="5.8"/><rect class="cls-1" x="148.88" y="719.57" width="5.8" height="5.8"/><rect class="cls-1" x="159.79" y="719.57" width="5.8" height="5.8"/><rect class="cls-1" x="170.71" y="719.57" width="5.8" height="5.8"/><rect class="cls-1" x="181.63" y="719.57" width="5.8" height="5.8"/><rect class="cls-1" x="192.55" y="719.57" width="5.8" height="5.8"/><circle cx="222.87" cy="613.6" r="15.96"/><polyline points="136.98 765.6 64 755.92 55.53 745.49 35.86 741.9 23.03 726.44 79.15 734.42 71.33 725.38 91.55 729.72 136.98 765.6"/><polygon class="cls-4" points="1115.03 1168.06 1115.03 1161.12 1121.8 1161.12 1121.66 1138.85 1121.66 1089.4 1128.31 1089.4 1128.31 1083.9 1144.21 1083.9 1144.21 1089.4 1151.73 1089.4 1151.73 1125.26 1154.34 1125.26 1154.34 1084.77 1165.33 1084.77 1165.33 1070.31 1172.27 1070.31 1171.98 1062.5 1185.57 1062.5 1185.57 1117.45 1187.88 1117.45 1187.88 1093.74 1191.06 1093.74 1191.06 1083.9 1199.74 1061.35 1208.99 1083.9 1208.99 1093.74 1213.04 1093.74 1213.04 1136.54 1214.78 1136.54 1214.78 1103.86 1220.27 1103.86 1220.27 1094.89 1228.66 1094.89 1228.66 1075.52 1230.68 1075.52 1230.68 1094.89 1238.2 1094.89 1238.2 1103.86 1245.14 1103.86 1245.14 1136.25 1245.22 1161.12 1250.03 1161.12 1250.03 1167.77 1115.03 1168.06"/><text class="cls-5" transform="translate(1103.03 1342.35)">Public Release<tspan class="cls-7"><tspan x="0" y="72">Executive O</tspan><tspan class="cls-21" x="161.13" y="72">f</tspan><tspan class="cls-22" x="169.47" y="72">fice</tspan><tspan x="0" y="108">Strategic Planning Leadership</tspan><tspan x="0" y="144">Application Development</tspan><tspan x="0" y="180">Counsel</tspan><tspan x="0" y="216">Communications</tspan></tspan></text><rect class="cls-1" x="1157.03" y="1162.35" width="108" height="108"/><polygon class="cls-1" points="1157.03 1162.35 1157.03 1270.35 1103.03 1216.35 1103.03 1108.35 1157.03 1162.35"/><line class="cls-23" x1="1103.03" y1="1108.35" x2="1211.03" y2="1108.35"/><line class="cls-23" x1="1103.03" y1="1108.35" x2="1103.03" y2="1216.35"/><line class="cls-23" x1="1265.03" y1="1270.35" x2="1157.03" y2="1270.35"/><polyline class="cls-23" points="1103.03 1108.35 1157.03 1162.35 1265.03 1162.35 1211.03 1108.35"/><line class="cls-23" x1="1157.03" y1="1162.35" x2="1157.03" y2="1270.35"/><line class="cls-23" x1="1265.03" y1="1162.35" x2="1265.03" y2="1270.35"/><line class="cls-23" x1="1157.03" y1="1270.35" x2="1103.03" y2="1216.35"/></g></g></svg>