<svg xmlns="http://www.w3.org/2000/svg" viewBox="0 0 2079.46 859.39"><defs><style>.cls-1,.cls-11,.cls-8{font-size:24px;}.cls-1{font-family:Helvetica;}.cls-2{letter-spacing:-0.05em;}.cls-3,.cls-5{fill:#231f20;}.cls-10,.cls-12,.cls-15,.cls-16,.cls-4,.cls-7{fill:none;}.cls-4{stroke:#231f20;stroke-width:2px;}.cls-5{font-size:36px;}.cls-11,.cls-5{font-family:HelveticaNeue-Bold, Helvetica Neue;}.cls-11,.cls-5,.cls-8{font-weight:700;}.cls-10,.cls-6{opacity:0.5;}.cls-10,.cls-7{stroke:#287bd9;}.cls-10,.cls-12,.cls-15,.cls-16,.cls-7{stroke-miterlimit:10;}.cls-10,.cls-12,.cls-15,.cls-7{stroke-width:8px;}.cls-8{fill:#287bd9;font-family:Helvetica-Bold, Helvetica;}.cls-9{letter-spacing:-0.02em;}.cls-11{fill:#d96c28;}.cls-12{stroke:#d96c28;}.cls-13{letter-spacing:-0.04em;}.cls-14{letter-spacing:-0.11em;}.cls-15,.cls-16{stroke:#000;}</style></defs><g id="Layer_2" data-name="Layer 2"><g id="Layer_1-2" data-name="Layer 1"><text class="cls-1" transform="translate(1593.62 692.41)">Explore partnerships <tspan x="0" y="28.8">with community &amp; arts orgs</tspan><tspan x="0" y="57.6">(NE</tspan><tspan class="cls-2" x="41.33" y="57.6">A</tspan><tspan x="56.03" y="57.6" xml:space="preserve"> Grant?)</tspan></text><rect class="cls-3" x="1575.62" y="677.65" width="9" height="9"/><text class="cls-1" transform="translate(1477.05 582.99)">Develop digital drawing,<tspan x="0" y="28.8">interactive engagement</tspan><tspan x="0" y="57.6">work programs</tspan></text><rect class="cls-3" x="1459.05" y="568.24" width="9" height="9"/></g><g id="Personnel"><line class="cls-4" x1="108.87" y1="392.88" x2="108.87" y2="428.11"/><text class="cls-5" transform="translate(122.22 428.11)">2020</text><line class="cls-4" x1="1361.49" y1="392.88" x2="1361.49" y2="428.11"/><text class="cls-5" transform="translate(1374.84 428.11)">2021</text><line class="cls-4" x1="1048.34" y1="392.88" x2="1048.34" y2="428.11"/><line class="cls-4" x1="735.18" y1="392.88" x2="735.18" y2="428.11"/><line class="cls-4" x1="422.03" y1="392.88" x2="422.03" y2="428.11"/><line class="cls-4" x1="1720.04" y1="392.88" x2="1720.04" y2="428.11"/><text class="cls-5" transform="translate(1733.39 428.11)">2022</text><g class="cls-6"><line class="cls-7" x1="108.87" y1="465.04" x2="422.03" y2="465.04"/><text class="cls-8" transform="translate(108.87 496.2)">Carsten Rodin<tspan x="0" y="28.8">Onboarding</tspan></text></g><text class="cls-8" transform="translate(1307.23 311.57)">Public release date</text><line class="cls-7" x1="1294.82" y1="392.88" x2="1294.82" y2="294.32"/><g class="cls-6"><text class="cls-8" transform="translate(1716.66 311.57)"><tspan class="cls-9">W</tspan><tspan x="22.23" y="0">eb platform</tspan><tspan x="0" y="28.8">release, 12/21 </tspan></text></g><line class="cls-10" x1="1704.25" y1="392.88" x2="1704.25" y2="294.32"/><text class="cls-11" transform="translate(788.11 355.19)">July 2020</text><line class="cls-12" x1="774.77" y1="392.88" x2="774.77" y2="337.7"/><text class="cls-1" transform="translate(108.54 35.04)"><tspan class="cls-13">T</tspan><tspan x="13.78" y="0">roubleshoot UD</tspan><tspan class="cls-14" x="180.54" y="0">T</tspan><tspan x="192.54" y="0">ools Proof-of-Concept,</tspan><tspan x="0" y="28.8">plan needed improvements for beta release</tspan></text><line class="cls-15" x1="108.54" y1="4" x2="317.64" y2="4"/><text class="cls-1" transform="translate(562 243.11)">Intensive UD<tspan class="cls-14" x="137.39" y="0">T</tspan><tspan x="149.39" y="0">ools testing</tspan><tspan x="0" y="28.8">through BK and BX o</tspan><tspan class="cls-9" x="225.49" y="28.8">f</tspan><tspan x="231.74" y="28.8">fice projects</tspan></text><line class="cls-15" x1="562" y1="212.76" x2="832" y2="212.76"/><text class="cls-1" transform="translate(833.37 495.1)">Iterative development of UD<tspan class="cls-14" x="297.48" y="0">T</tspan><tspan x="309.48" y="0">ools, NYC Digital</tspan><tspan class="cls-9" x="490.88" y="0"> </tspan><tspan class="cls-2" x="497.12" y="0">T</tspan><tspan x="510.47" y="0">win based on user feedback</tspan></text><line class="cls-15" x1="832.7" y1="465.04" x2="1920" y2="465.04"/><text class="cls-1" transform="translate(832 603.91)">Internal + interagency <tspan x="0" y="28.8">UD</tspan><tspan class="cls-14" x="34.66" y="28.8">T</tspan><tspan x="46.66" y="28.8">ools trainings</tspan></text><line class="cls-15" x1="832" y1="573.85" x2="1300" y2="573.85"/><text class="cls-1" transform="translate(832 712.3)">Seek input on public release<tspan x="0" y="28.8">from internal stakeholders </tspan></text><line class="cls-15" x1="832" y1="682.24" x2="1048.34" y2="682.24"/><text class="cls-1" transform="translate(940.17 819.05)">Implement public release<tspan x="0" y="28.8">features + improvements</tspan></text><line class="cls-15" x1="940.17" y1="788.99" x2="1300" y2="788.99"/><text class="cls-1" transform="translate(318.07 135.83)">Develop UD<tspan class="cls-14" x="129.39" y="0">T</tspan><tspan x="141.39" y="0">ools beta</tspan><tspan x="0" y="28.8">for internal use</tspan></text><line class="cls-15" x1="318.07" y1="104.53" x2="562" y2="104.53"/></g><g id="timeline-root"><line class="cls-16" x1="1920" y1="392.88" y2="392.88"/></g></g></svg>