<svg id="Layer_1" data-name="Layer 1" xmlns="http://www.w3.org/2000/svg" viewBox="0 0 1920 1080"><path d="M1214.76,874.38a5,5,0,0,0,.15-2.5c-.06-.58-.05-1.37-.56-1.65a3.67,3.67,0,0,0-2.51,0,1.69,1.69,0,0,0-.92.81c-2,3.07-3.14,6.84-5.79,9.4-.67.64-1.42-1.22-2.23-1.67a.79.79,0,0,0-.8,0c-1.07.83-2.34,1.62-2.88,2.86a4.87,4.87,0,0,0,0,3.73c.41.94,1.72,1.15,2.43,1.89a7.14,7.14,0,0,1,1.88,2.6c.16.54-.65,1-.58,1.59a3.3,3.3,0,0,0,1.07,2l3.32,1.9h0a23.65,23.65,0,0,0,4.08-2.15c.94-.77,2.52-1.79,2.14-2.95-.53-1.61-2.92-1.82-4.1-3.05a2,2,0,0,1-.61-1.85C1210.44,881.49,1213.06,878.16,1214.76,874.38Z"/><path d="M1166.61,875c.66-.49,1.62-1,1.63-1.87s-.88-1.37-1.59-1.58c-.46-.14-.77.86-1.22.73a2.45,2.45,0,0,1-1.66-1.56,13.29,13.29,0,0,1,0-4.95c.12-.87.92-1.55,1-2.42a10.34,10.34,0,0,0-.16-4.92,8.48,8.48,0,0,0-3.29-4.11c-.5-.31-1.16.65-1.28,1.22-1.22,5.62-.47,11.73-2.68,17-.86,2.08-4.15,1.92-5.84,3.42-.36.32.17,1,.44,1.39a2.17,2.17,0,0,0,1.19,1A2.8,2.8,0,0,0,1155,878c.72-.39,1.15-1.2,1.86-1.6.16-.08.44.17.4.34-.94,4.94-2.75,9.73-3.26,14.73-.08.76.89,1.36,1.6,1.61a2.46,2.46,0,0,0,1.85-.42l1.06-1.17h0c1.23-3.66,2.65-7.26,3.69-11,.28-1-.41-2.35.25-3.18C1163.45,876.07,1165.33,875.9,1166.61,875Z"/><path d="M1194.1,891.46c1.2-1,2.69-1.67,3.59-2.93.39-.55.57-1.82-.08-2-1.55-.48-3.3,1-4.85.51-1.12-.37-1.68-1.75-2.11-2.86a2.77,2.77,0,0,1,0-2.54c.35-.44,1.08.48,1.64.4a6.73,6.73,0,0,0,3.21-1.1,12.71,12.71,0,0,0,3.33-4.13,3.26,3.26,0,0,0,0-2.51,3.14,3.14,0,0,0-4.13-1.62c-1.88,1.16-3,3.37-4.82,4.52a1.74,1.74,0,0,1-1.85-.42c-1.8-1.58-2.68-4.18-4.75-5.37a4.84,4.84,0,0,0-4.47.05c-1.79,1-2.14,3.87-4,4.58-1,.38-1.48-1.68-2.46-2.15a1,1,0,0,0-1.21.42,4.89,4.89,0,0,0,0,2.55,95.51,95.51,0,0,0,2.27,12.1c.11.39.87.27,1.21,0a5.06,5.06,0,0,0,2.28-2.41c.25-.83-.72-1.59-.84-2.44a9.39,9.39,0,0,1,0-3.77,12.86,12.86,0,0,1,2.16-4.17c.7-1,1.62-3,2.64-2.39,1.67,1,1.21,3.77,2.33,5.36.89,1.25,3.24,1.44,3.54,2.94s-2,2.81-2.08,4.44c0,1.26,1.13,2.28,1.9,3.29a5.51,5.51,0,0,0,2.15,2,8.79,8.79,0,0,0,3.69.16l1.79-.56Z"/><path d="M1271.75,791.79a2.81,2.81,0,0,0,.91-2.14c.06-.57,0-1.49-.54-1.63-.83-.22-1.59.71-2.44.84-1.39.2-3.63,1.43-4.21.15-2.09-4.69-1.36-10.2-2.51-15.2-.1-.42-1-1-1.13-.59-1.44,5.59-1.16,11.59-3.09,17-.31.87-1.67-1.14-2.59-1a26.45,26.45,0,0,0-6.61,2.29c-.16.06-.16.39,0,.53.9,1.06,1.67,2.43,3,2.91.81.31,1.61-.73,2.47-.86,1.08-.17,2.5-.8,3.28,0,1.69,1.62,2,4.23,3.18,6.24l.89.69h0c.56-.51,1.44-.82,1.67-1.54.46-1.39-.75-3.35.29-4.37C1266.19,793.17,1269.45,793.27,1271.75,791.79Z"/><path d="M1183.47,941.89c-.55-1.17-2.08-1.63-3.31-2a2.54,2.54,0,0,0-1.88.44,5.17,5.17,0,0,0-1.59,1.6c-2.14,3.14-3,7.45-6.07,9.64-1.2.84-1.24-2.68-2.1-3.87a11.57,11.57,0,0,0-2.51-2.48c-.27-.19-1-.36-1,0v14.68h0a11,11,0,0,0,2.86.61,2.73,2.73,0,0,0,2.14-.93c2.69-4.32,3.94-9.47,6.91-13.61.46-.65,1.21,1.1,1.52,1.84,1.27,3,1.67,6.4,3.18,9.32.36.69,1.37.85,2.14.92a3.09,3.09,0,0,0,1.81-.58,2.3,2.3,0,0,0,1.07-1.19,5.24,5.24,0,0,0,0-2.55C1185.78,949.71,1185.2,945.58,1183.47,941.89Z"/><path d="M1229,933.78a4.14,4.14,0,0,0-2.51,0,3.52,3.52,0,0,0-2,1.14c-1.71,2.32-2.79,5-4.36,7.46-.22.34-.58.88-1,.75-1-.35-1.45-1.62-2.44-2-.45-.15-.78.91-1.22.73a16.54,16.54,0,0,1-4.48-3c-.85-.74-1.26-1.89-2.08-2.65a.72.72,0,0,0-.76,0,1.53,1.53,0,0,0-.89.74c-.86,2.32-1.13,4.83-2,7.14-.45,1.16-.83,3.65-2,3.17-2.53-1-3.13-4.62-5.35-6.2-.88-.63-2.23-.3-3.25.05a2.87,2.87,0,0,0-1.62,1.62,3.79,3.79,0,0,0,0,2.51c.21.63,1.07.87,1.31,1.49.85,2.17.64,4.78,1.9,6.74,1,1.54,2.82,2.43,4.49,3.18a4.16,4.16,0,0,0,2.54,0,1.2,1.2,0,0,0,.84-.72c1.18-3.38,1.71-7,3-10.31a13.36,13.36,0,0,1,2.7-4.51c.3-.31.88.19,1.24.44.85.63,1.42,1.62,2.32,2.17,1.33.81,3.44.56,4.28,1.87,1.93,3,1.79,7,3.42,10.18.55,1.06,1.85,1.55,2.9,2.11a2.57,2.57,0,0,0,1.3.15,4.94,4.94,0,0,0,2.46-.17l.75-1.64h0c.68-.82,2.15-1.4,2-2.45-.09-.83-1.81-.13-2.38-.74a21.32,21.32,0,0,1-3.32-5.3,1.37,1.37,0,0,1,0-1.32c1.06-1.49,2.75-2.46,3.78-4a15.22,15.22,0,0,0,2-4.48,4.11,4.11,0,0,0,0-2.55A3,3,0,0,0,1229,933.78Zm-.82,4.16a11.78,11.78,0,0,1-1.93,3.22c-.23.33-.52.73-.92.8l-1.61-.39h0c1.34-1.76,2.31-3.89,4-5.28C1228.21,935.93,1228.37,937.4,1228.2,937.94Z"/><path d="M1287.66,938.51a2.12,2.12,0,0,0-1.19-1.06,9.56,9.56,0,0,0-3.73,0,1.59,1.59,0,0,0-.94.81,31.51,31.51,0,0,0-2.35,4.59c-1.19,3,0,8.68-3.13,9.1-3,.39-1.87-5.79-3.63-8.21-.39-.52-1.41.78-1.34,1.43,1,10.58,2.73,21.08,4.45,31.56.06.35.49.57.83.68h1.25c.93-1,2.36-1.6,2.81-2.87.29-.82-.93-1.57-1-2.44a222.83,222.83,0,0,1,.14-24.52c.12-1.4,1.38-4.86,2.11-3.66,1.28,2.11.34,4.94.16,7.4-.1,1.27-1.56,2.54-1,3.7.69,1.49,2.53,2.17,4,2.8.36.16.77-.35.93-.7a20.14,20.14,0,0,0,2-5.73,68.17,68.17,0,0,0,.15-11.07A3.8,3.8,0,0,0,1287.66,938.51Z"/><path d="M1275.83,859.69c.09-.76-.9-1.36-1.62-1.63-.35-.13-.76.33-.89.68-1.53,4.16-2.86,8.4-4,12.68s-1.71,8.68-2.91,12.93c-.28,1-.7,3.37-1.49,2.7-2.29-1.94-3.39-5-4.53-7.81-.19-.47.9-.8.8-1.3a16.63,16.63,0,0,0-1.94-4.51c-.18-.34-.5-.75-.88-.75-.75,0-1.82,0-2.13.71-1.49,3.29-.66,13.26-2.92,10.44-4.42-5.47-3.79-13.57-5.17-20.47-.1-.48.68-.76.83-1.23a1.69,1.69,0,0,0,0-1.29,4.29,4.29,0,0,0-1.61-1.61,1.63,1.63,0,0,0-1.28,0,1.73,1.73,0,0,0-.89.75,13.8,13.8,0,0,0-2,4.49,46.45,46.45,0,0,0,2.06,21.1,53.87,53.87,0,0,0,3.53,7.92,1.78,1.78,0,0,0,.93.8,1.88,1.88,0,0,0,1.32,0,14.14,14.14,0,0,0,3.22-1.92,6.13,6.13,0,0,0,2-2.15,4.14,4.14,0,0,0,0-2.51c-.1-.47-1-.77-.79-1.2s1.23-.81,1.62-.41c1.73,1.8,2.39,4.43,4,6.29a7,7,0,0,0,3.19,1.9l1.71-.38h0a64,64,0,0,0,2.7-7c1.8-7,2.75-14.14,4.56-21.1C1273.89,863.69,1275.58,861.89,1275.83,859.69Z"/><path d="M1286.47,861.67a7.68,7.68,0,0,0-3.7-.17c-.57,0-1.35.06-1.64.56a1.32,1.32,0,0,0,.38,1.67,7.79,7.79,0,0,0,3.7.18l1.62-.54h0C1286.71,862.81,1287,861.92,1286.47,861.67Z"/><path d="M1231.4,876.33c-.47.1-.76,1-1.2.8s-.54-1-.58-1.6a13.23,13.23,0,0,1,.14-3.72c.15-.7.85-1.19,1-1.88a123.94,123.94,0,0,0,2.34-12.65,3.89,3.89,0,0,0-.41-2.94c-.44-.53-1.47-.4-2.06-.05a4,4,0,0,0-1.36,2,97.15,97.15,0,0,0-3.65,9.43c-1.23,3.92-1.6,8.09-3.07,11.92-.45,1.16-2.72,1.5-2.54,2.72a24,24,0,0,0,4.48,10.28l2.62-.45h0a38.9,38.9,0,0,0,2.32-4.83c.34-1-.36-2.42.3-3.3,1.13-1.53,3.5-1.79,4.62-3.32a2,2,0,0,0-.44-2.43C1233.26,875.81,1232.22,876.16,1231.4,876.33Z"/><path d="M1264.1,937c-.16-.35-.56-.82-.93-.7a9.75,9.75,0,0,0-3.6,2.22,2.56,2.56,0,0,0-.62,1.84c0,1-.36,2.72.61,2.89,1.14.2,1.46-2.17,2.61-2.32.77-.09,1.37,1,1.48,1.81a27.83,27.83,0,0,1,0,8.69c-.26,1.52-.78,3.51-2.22,4.07-1.1.43-2.13-1.15-2.85-2.08a19.44,19.44,0,0,1-3.15-5.66,8,8,0,0,1,0-3.77c.14-.85.91-1.54,1-2.41a3.08,3.08,0,0,0-.57-1.81c-.29-.46-.7-1.19-1.24-1.08a3.2,3.2,0,0,0-2,1.78,28.5,28.5,0,0,0-2.25,7.23,12,12,0,0,0,.16,5,9.57,9.57,0,0,0,1.92,3.22c1.19,1.59,2.06,3.69,3.85,4.53l5.66-.05h0a13.52,13.52,0,0,0,2-2.78,42.73,42.73,0,0,0,2.3-8.66,19.42,19.42,0,0,0-.15-6.18A24.52,24.52,0,0,0,1264.1,937Z"/><path d="M1244.44,937.84c.17-.85.92-1.54,1-2.41a32,32,0,0,0,0-6.11,3.88,3.88,0,0,0-.59-1.81A20.41,20.41,0,0,0,1242,924a.63.63,0,0,0-.76,0,4.82,4.82,0,0,0-1.73,2.26A163.45,163.45,0,0,0,1237,944a36.64,36.64,0,0,0,0,7.33c.08.87.9,1.57,1,2.44,0,.48-.79.75-.74,1.23a3.59,3.59,0,0,0,1.07,2,10.84,10.84,0,0,0,2.91,2.11h1.28a29.54,29.54,0,0,0,2.93-2.12c.18-.16.1-.47.1-.72a47.31,47.31,0,0,0-.15-6.19c-.12-.87-.92-1.55-1-2.42a46.13,46.13,0,0,1,0-6.11A20.77,20.77,0,0,1,1244.44,937.84Z"/><path d="M1110.87,871.8a8.28,8.28,0,0,0-1.93-3.22c-.37-.44-1.29-1.44-1.48-.9-1.7,4.8-2,10-3.47,14.87-.19.64-1,.91-1.32,1.51a1.61,1.61,0,0,0,0,1.29c.27.59,1.12.83,1.28,1.46.93,3.42.76,7.12,2,10.46l2,.85c1.06-4,1.58-8.29,3.18-12.16.23-.55,1.21,0,1.77.15s.73.92,1.19.79a3.22,3.22,0,0,0,1.65-1.55,1.87,1.87,0,0,0,.14-1.26,4.46,4.46,0,0,0-.57-1.81c-.27-.45-.66-1-1.19-1-.86-.05-1.59.74-2.44.84-.57.06-1.58.18-1.67-.39-.2-1.26.89-2.43,1-3.7A21,21,0,0,0,1110.87,871.8Z"/><path d="M1081.53,886.47a16.21,16.21,0,0,0-5.3-6.47c-1.4-.88-3.35-.41-5,0-.75.19-1.67.92-1.59,1.68a3.49,3.49,0,0,0,2.07,2.9c1.45.44,3-1.31,4.47-.9a3.77,3.77,0,0,1,2.81,2.89c.11,1.66-1.28,3.12-2.32,4.41a15.33,15.33,0,0,1-3.34,2.63,13.62,13.62,0,0,1-3.23,1.93,4.18,4.18,0,0,1-2.57,0,8.34,8.34,0,0,1-3.2-1.9,25.7,25.7,0,0,1-3.8-5,15.77,15.77,0,0,1-1.94-4.48,7.92,7.92,0,0,1,0-3.81,34,34,0,0,1,3.2-8.15,24.18,24.18,0,0,1,5-6.19,16.39,16.39,0,0,1,5.65-3.15,6.14,6.14,0,0,1,3.77,0c1,.32,1.4,1.73,2.41,2,.51.15,1-.51,1.23-1a5.09,5.09,0,0,0,.43-3.06,2.37,2.37,0,0,0-1.63-1.62,13.5,13.5,0,0,0-5,0c-.47.06-.71.78-1.19.79s-.8-.94-1.22-.73a29.5,29.5,0,0,0-5.73,4.3,35.48,35.48,0,0,0-5.92,5.89c-1.35,1.9-2,4.22-2.82,6.4a77.81,77.81,0,0,0-3.09,9.37,6.35,6.35,0,0,0,0,3.81c1,2.52,2.82,4.65,4.37,6.89a4.18,4.18,0,0,0,1.29,1.29,22.46,22.46,0,0,0,4.49,2l2.46.16h0c1.26,0,2.59.25,3.78-.17a19.51,19.51,0,0,0,5.66-3.14,22.55,22.55,0,0,0,5.71-5.82A4.11,4.11,0,0,0,1081.53,886.47Z"/><path d="M1155.72,924a13.25,13.25,0,0,0-6.26,0c-2.85.62-5.48,2-8.2,3.11a46.08,46.08,0,0,0-6.93,2.85c-.4.24.06,1-.2,1.39-.56.83-2.31,1.1-2.15,2.09.33,2.15,2.92,3.47,3.33,5.61.79,4,.39,8.2.15,12.29,0,.87-.82,1.56-1,2.41a5.91,5.91,0,0,0-.17,2.47c.53,2.8.86,5.74,2.17,8.27a7,7,0,0,0,3.75,3.23l3.68-.45c1.05-1,1.87-2.29,3.15-2.93,1-.49,2.38.33,3.29-.29,1.46-1,3.11-2.4,3.26-4.16.08-1-2-.74-2.88-.44-2.17.71-3.83,2.55-6,3.33a1.85,1.85,0,0,1-1.91-.47,10.28,10.28,0,0,1-2.27-4.79,38.58,38.58,0,0,1,0-11.1c.15-1,1.16-1.62,2-2.11a24.29,24.29,0,0,1,5.46-2.23c3.3-1,6.74-1.39,10-2.33.24-.07.52-.41.4-.64a3.08,3.08,0,0,0-1.55-1.64,6.81,6.81,0,0,0-3.69-.17c-3.68.82-7.19,4.47-10.8,3.38-2.61-.8-2.21-5-3.1-7.6-.14-.42-.31-1,0-1.33a28.63,28.63,0,0,1,6.46-4.08,4.27,4.27,0,0,1,2.55,0c.46.1.71.79,1.19.79s.73-.64,1.19-.78a2.15,2.15,0,0,1,1.28,0c.46.14.72.77,1.19.78s.75-.74,1.22-.73.73.7,1.19.8a4.46,4.46,0,0,0,2.51,0c.7-.29,1.91-1,1.56-1.65A6.46,6.46,0,0,0,1155.72,924Z"/><path d="M1071.76,958.58a43.11,43.11,0,0,0-2.11-5.93,3.37,3.37,0,0,0-1.19-1.79,2.85,2.85,0,0,0-2.11,0c-1.59.48-3,2.47-4.56,2-1.4-.41-1.76-2.47-1.93-3.91a53.31,53.31,0,0,1,0-12.37,10.8,10.8,0,0,1,2-4.48,10.18,10.18,0,0,1,2.77-2.78,2.73,2.73,0,0,1,1.85-.42c.47.06.73.66,1.19.79.17,0,.39-.17.4-.34.13-1.24.46-2.57,0-3.73-.2-.54-1.07-.55-1.64-.54a3,3,0,0,0-1.81.57,33.31,33.31,0,0,0-5.27,5.28,22,22,0,0,0-2.48,4.79c-.8,1.9-1.87,3.78-2,5.83-.47,5.69-.82,11.51.16,17.14.32,1.86,2.25,3.06,3.58,4.4a6.56,6.56,0,0,0,2.6,1.88c.54.17,1-.58,1.58-.57l1.52.64c2.5-1,5.09-1.89,7.51-3.12.23-.12.12-.51.12-.77A10.49,10.49,0,0,0,1071.76,958.58Zm-3.69,1.33-1.63,1.54h0a21.52,21.52,0,0,1-2.88-2.76,1.18,1.18,0,0,1,0-1.29,13.22,13.22,0,0,1,4.09-4c.5-.26.55,1,.59,1.59A15,15,0,0,1,1068.07,959.91Z"/><path d="M541.19,414a8.28,8.28,0,0,0-5,0c-1,.27-1.4,2.28-2.41,2-1.28-.34-1.79-2-2.25-3.25-1.29-3.43-1.79-7.12-3-10.59-2-6.06-4.71-11.9-6.64-18-1.22-3.85-1.59-7.92-2.8-11.77-1.52-4.8-3.83-9.34-5.37-14.14a3.45,3.45,0,0,1,0-2.55c.78-1.43,2.59-2.13,3.3-3.6a3.44,3.44,0,0,0,.06-3.25,15.82,15.82,0,0,0-5.34-4.53c-.55-.31-1.33.06-1.84.41a11.7,11.7,0,0,0-2.82,2.84c-1.23,1.71-1.63,4-3.12,5.49-1.83,1.83-4.47,2.61-6.54,4.16-1.2.9-2,2.34-3.21,3.15-3.27,2.08-6.92,3.52-10.28,5.45s-6.57,3.91-9.73,6.07c-.76.51-1.24,1.38-2,1.92a63.86,63.86,0,0,1-7.28,4.84,67,67,0,0,1-10.34,4.65c-3.25,1.09-6.65,2.62-10.06,2.19-1.59-.21-1.74-2.74-2.9-3.85a15.91,15.91,0,0,0-3.64-2.42c-3-1.54-6.15-2.61-9.06-4.23-.79-.44-1.16-1.44-1.95-1.88-5.76-3.24-11.83-5.91-17.61-9.13-3.34-1.85-6.51-4-9.73-6.06a8.63,8.63,0,0,1-2.27-1.63c-1-1.25-1.43-2.88-2.36-4.18a4.43,4.43,0,0,0-1.83-1.69,4.29,4.29,0,0,0-2.51,0,3.77,3.77,0,0,0-2,1.13c-1.71,2.05-3.9,4-4.53,6.63-.32,1.35,1.64,2.29,2.08,3.6a3.87,3.87,0,0,1,0,2.58c-1,2.66-2.82,5-3.89,7.6-3.15,7.72-5.24,15.86-8.75,23.42-1.88,4-5,7.32-7.33,11.12a100.23,100.23,0,0,0-5.92,10.68,117.46,117.46,0,0,0-4.8,13.11c-1.25,4-1.75,8.17-3.1,12.11a12.62,12.62,0,0,1-2.54,4.27c-.35.39-1.15-.09-1.55.25a5.74,5.74,0,0,0-2.11,2.87,13.54,13.54,0,0,0-.05,6.95,3.34,3.34,0,0,0,2.95,2.09c2,0,3.91-1.16,5.78-2a1.27,1.27,0,0,0,.74-.87c.28-1.43-1-3.61.28-4.37,5.27-3.18,11.48-4.47,17.35-6.28a66.58,66.58,0,0,1,10.06-2.19,10.89,10.89,0,0,1,3.69.16c.47.09.72.78,1.2.8s.74-.74,1.22-.73.78.87,1.27.77c4.26-.84,8.31-2.55,12.54-3.51,5.92-1.36,11.9-2.45,17.9-3.46.83-.13,2.07-.67,2.54,0s-.55,1.89-.62,2.86a10.37,10.37,0,0,0,.15,3.73,9.08,9.08,0,0,0,1.93,3.22c.46.53,1.28.62,1.78,1.11a3.52,3.52,0,0,1,1.12,1.74c2.2,11.33,4.19,22.7,5.84,34.12a15.52,15.52,0,0,1,0,6.26c-.6,2.2-2.5,3.85-3.33,6a4.45,4.45,0,0,0,0,2.53,1.48,1.48,0,0,0,.76.89,17.06,17.06,0,0,0,4.48,2l3.08-.42h0c1.2-1,2.69-1.67,3.59-2.92.39-.55.1-1.37-.06-2-.2-.85-1-1.54-1-2.42a3.91,3.91,0,0,1,1.19-2.44c1.11-1.12,2.72-1.65,3.9-2.71,2.83-2.53,5.19-5.57,8.09-8,2.41-2,5.3-3.47,7.8-5.41,1.18-.92,2-2.24,3.2-3.14,2.08-1.56,4.59-2.51,6.57-4.19,3.35-2.83,6.08-6.31,9.32-9.26a31.7,31.7,0,0,1,4.89-3.67c5.35-3.2,11-5.91,16.35-9.07,2.53-1.5,5-3.16,7.34-4.89.74-.55,1.22-1.42,2-1.93,1.7-1.13,3.63-1.87,5.34-3,2.77-1.76,5.33-3.84,8.11-5.59a26.43,26.43,0,0,1,5.69-3.1c.47-.16.74.72,1.22.82a4.06,4.06,0,0,0,2.51,0A29.39,29.39,0,0,0,542,424a7.12,7.12,0,0,0,2.08-3.36,5.73,5.73,0,0,0,0-3.77A5.27,5.27,0,0,0,541.19,414Zm-10.25,8.91c-.23.66.27,1.67-.3,2.08-5.86,4.32-12.43,7.59-18.44,11.7-1.23.85-1.93,2.36-3.2,3.15-7.32,4.53-15.21,8.1-22.46,12.74-3,1.9-5.31,4.64-8.09,6.81-.9.69-2,1-2.91,1.75a35.84,35.84,0,0,0-4.05,4c-.34.39-.3,1.06-.71,1.38-1.55,1.22-3.47,1.91-5,3.14s-2.82,3.07-4.44,4.37c-2.47,2-5.36,3.39-7.79,5.41s-4.46,4.67-6.87,6.81L441,490.59h0c-1-.34-2.62,0-3.07-1-1.75-3.74-2.25-7.95-3-12-1.7-9.19-3.06-18.44-4.35-27.7a4.49,4.49,0,0,1,.17-2.47c.44-1,1.77-1.38,2.08-2.38a10.49,10.49,0,0,0,.16-4.92,25.25,25.25,0,0,0-2.12-5.78,1.4,1.4,0,0,0-.89-.76,4.18,4.18,0,0,0-2.5,0c-1,.39-1.42,1.67-2.42,2-.44.16-.73-.64-1.18-.78a2.41,2.41,0,0,0-1.33,0c-.94.23-1.77.85-2.72,1-5,1-10.16,1.37-15.18,2.4-2.95.61-5.71,2-8.69,2.5-7,1.16-14.24,1.09-21.25,2.44-5.31,1-10.41,3-15.55,4.66-.88.29-1.58,1-2.48,1.28a2.52,2.52,0,0,1-1.66-.22c-.88-.41-2.1-.75-2.39-1.68s.91-1.48,1.16-2.3c1.59-5.23,2.7-10.61,4.36-15.83a98.2,98.2,0,0,1,4.8-13,74.94,74.94,0,0,1,6.15-9.78c.52-.76,1.47-1.19,1.92-2a117.33,117.33,0,0,0,6.39-12.48c3.26-7.7,5.6-15.77,8.85-23.47a12.78,12.78,0,0,1,2.72-4c1.12-1.14,2.75-1.67,3.93-2.74s1.5-3.85,3.08-3.66c2.95.34,4.86,3.43,7.46,4.88,12.26,6.87,25,12.84,37.09,20.05a5.75,5.75,0,0,1,2.07,3.37,2.55,2.55,0,0,1-.43,1.87c-.81,1.5-2.25,2.65-2.88,4.24a2.35,2.35,0,0,0,.43,1.87c.26.47.66,1,1.19,1.06.86.06,1.61-.77,2.48-.79.47,0,.75.74,1.22.74s.75-.74,1.22-.74.75.75,1.23.74.71-.79,1.18-.79c.87,0,1.61.75,2.48.79a1,1,0,0,0,.88-.66c1-2.55.29-6,2.28-7.83,4-3.74,9.88-4.87,14.53-7.8,2.6-1.63,4.55-4.18,7.14-5.82,5.27-3.34,11-5.81,16.35-9.08,4.34-2.67,8.15-6.17,12.57-8.71.54-.31,1.29.1,1.84.42.72.4,1.06,1.35,1.83,1.65,1,.38,2.6-.61,3.16.29,2.44,3.89,3.64,8.45,5.07,12.82,1.67,5.09,2.53,10.42,4.19,15.51,1.73,5.32,4.17,10.39,6,15.68,1.15,3.41,1.55,7.05,2.87,10.39.87,2.18,3.28,3.71,3.62,6C533.25,419.83,531.5,421.25,530.94,422.89Z"/><path d="M388.71,213.64l4.84,1.81h0c4.36-1.44,8.81-2.64,13.08-4.33a6.36,6.36,0,0,0,2.94-2,1.48,1.48,0,0,0-.38-1.67c-.31-.31-.91-.15-1.33,0-2,.58-3.89,1.75-6,2.11a20.21,20.21,0,0,1-6.21,0,3.69,3.69,0,0,1-2-1.13,8.6,8.6,0,0,1-2.11-2.9,3.08,3.08,0,0,1,0-2.54,29.12,29.12,0,0,1,5.7-7,6.86,6.86,0,0,1,4.47-1.89c1.07,0,1.43,1.73,2.45,2.05a3.1,3.1,0,0,0,2.89-.4c.47-.43,0-1.41-.44-1.87a9.59,9.59,0,0,0-3.57-2.27,3.75,3.75,0,0,0-2.58,0,22.9,22.9,0,0,0-5.66,3.14,33,33,0,0,0-5,5,6.94,6.94,0,0,0-1.93,3.22,45.87,45.87,0,0,0,0,9.87A1.2,1.2,0,0,0,388.71,213.64Z"/><path d="M1279.75,880.43a4.57,4.57,0,0,0,.57,1.81,2.52,2.52,0,0,0,1.23,1l.55-.34h0a7,7,0,0,0,1.1-1.21,3,3,0,0,0,.16-1.27,26.15,26.15,0,0,0,0-3.65c-.07-.57-.12-1.92-.58-1.6-1.36.93-2.08,2.55-2.9,4A2,2,0,0,0,1279.75,880.43Z"/><path d="M1011.74,695a2,2,0,0,0-1.19-1.07,16.43,16.43,0,0,0-4.95,0c-.86.12-1.54,1-2.42,1s-1.6-1.11-2.48-1c-1.72.25-3.09,1.78-4.81,2-.88.13-1.6-.92-2.49-1a62.48,62.48,0,0,0-9.77,0c-6.92.52-13.77,1.93-20.7,2.29-1.3.06-2.46-1-3.75-1.05a147.58,147.58,0,0,0-15.88,0c-.87.05-1.54,1-2.42,1s-1.64-.88-2.53-.83c-6.1.36-12.13,1.67-18.23,2.06-.52,0-.8-.88-1.32-.84-11,.84-21.91,3.17-32.95,3.44-5.33.13-10.51-1.85-15.82-2.25-.87-.06-1.61.87-2.48.87-1.28,0-2.46-.84-3.74-.84-.47,0-.7.68-1.15.84a3.54,3.54,0,0,1-1.34,0c-17.47-.67-34.94-1.67-52.43-2.09-.49,0-.77.79-1.27.79s-.74-.64-1.19-.79a3,3,0,0,0-1.33,0c-5.69.68-11.32,2-17,2.24-1.28.07-2.4-.95-3.67-1.16a5.9,5.9,0,0,0-2.47.16c-.46.13-.68.85-1.16.85-1.27,0-2.46-.82-3.73-.84-.48,0-.72.77-1.19.79s-.75-.75-1.22-.74-.73.68-1.19.8a17.17,17.17,0,0,1-5,0c-.46-.12-.71-.79-1.19-.8s-.73.65-1.19.79a2.32,2.32,0,0,1-1.28,0c-.85-.23-1.55-.91-2.42-1a28.93,28.93,0,0,0-6.1,0c-10.69,1-21.39,2-32,3.55-3.24.46-6.27,2.33-9.54,2.36-4.51.05-8.89-1.56-13.36-2.11a9.25,9.25,0,0,0-3.78,0,3.14,3.14,0,0,0-1.61,1.62,1.41,1.41,0,0,0,0,1.28c.38.66.9,1.45,1.64,1.56s1.58-.89,2.45-1c3.25-.26,6.52-.06,9.78,0a11.33,11.33,0,0,1,2.47.17l2.38,1h0c3.25-.82,6.44-1.91,9.74-2.46a176.64,176.64,0,0,1,18.33-2.22c1.31-.08,2.52,1,3.82.89,3.31-.33,6.42-1.79,9.71-2.26a23.5,23.5,0,0,1,6.1,0c.87.11,1.54,1,2.42,1s1.61-.78,2.47-.78c.48,0,.73.67,1.19.79a9.35,9.35,0,0,0,2.48.19,9.78,9.78,0,0,0,2.48-.19c.46-.12.71-.79,1.19-.79s.71.72,1.19.79a31.06,31.06,0,0,0,4.92.19,18.3,18.3,0,0,0,3.7-.19c.47-.09.71-.81,1.19-.79.87,0,1.58.86,2.45,1a18.44,18.44,0,0,0,4.92-.17c.47-.07.67-.86,1.15-.84,1.28,0,2.42,1,3.7,1,.87,0,1.57-.9,2.44-.94.48,0,.74.64,1.2.78a2,2,0,0,0,1.29,0c.45-.15.68-.74,1.15-.84a19.05,19.05,0,0,1,3.7-.19,46.13,46.13,0,0,1,6.11,0c1.27.16,2.38,1.17,3.67,1.17s2.38-1.12,3.67-1.15,2.42,1,3.69,1c.48,0,.7-.72,1.16-.84a5.75,5.75,0,0,1,2.47-.17c1.27.21,2.39,1.17,3.67,1.17s2.4-1,3.68-1.17a35.12,35.12,0,0,1,7.32,0c1.28.14,2.39,1.17,3.67,1.17s2.39-1.05,3.67-1.17a41.41,41.41,0,0,1,8.55,0,68.92,68.92,0,0,1,10.73,2.17c.64.18.88,1.34,1.54,1.28,2.5-.23,4.73-1.84,7.22-2.08,1.29-.12,2.45.9,3.74,1a31.08,31.08,0,0,0,6.1,0c6.12-.56,12.17-1.79,18.29-2.23.5,0,.74.85,1.24.83,1.68,0,3.25-1,4.92-1,1.3,0,2.46,1.16,3.75,1,2.49-.24,4.74-1.7,7.21-2.08.49-.07.77.8,1.27.78.87,0,1.57-.95,2.44-.94,1.3,0,2.46,1.15,3.75,1,2.48-.25,4.7-1.8,7.18-2.12.87-.11,1.61.86,2.49.87s1.58-.83,2.44-.84,1.61.79,2.48.79c.47,0,.73-.65,1.19-.79a2.11,2.11,0,0,1,1.29,0c.45.16.68.78,1.15.85a43.5,43.5,0,0,0,6.15.18,10.74,10.74,0,0,0,2.47-.18c.85-.2,1.55-1,2.42-1s1.6,1,2.49,1c6.13-.37,12.16-1.79,18.28-2.25a69.65,69.65,0,0,1,11,0c1.28.1,2.39,1.32,3.67,1.16,1.78-.22,3.11-2.2,4.91-2.22,2.51,0,4.79,1.54,7.24,2.1a7.85,7.85,0,0,0,2.51.14,2.69,2.69,0,0,0,1.65-.56c.3-.3.21-.84.15-1.26A4.53,4.53,0,0,0,1011.74,695Z"/><polygon points="1143.87 967.25 1143.87 967.25 1143.87 967.25 1143.87 967.25"/><path d="M1137.63,891.68h0a28,28,0,0,0,4.53-2,11.12,11.12,0,0,0,2.9-3.06,1.46,1.46,0,0,0,0-1.32,11.55,11.55,0,0,0-1.92-3.22c-2.51-2.86-5.63-5.15-8-8.1a22.1,22.1,0,0,1-3.15-5.66,5.31,5.31,0,0,1-.15-2.51,3.48,3.48,0,0,1,.6-1.68,16.36,16.36,0,0,1,2.85-3c1.39-1.16,2.73-2.53,4.45-3.1.82-.28,1.61.83,2.47.78a1.76,1.76,0,0,0,1.23-1,2.39,2.39,0,0,0,.41-1.84,3.51,3.51,0,0,0-1.61-1.62,2.48,2.48,0,0,0-1.25-.16c-.67,0-1.45-.27-2,.1-.93.65-1.23,1.94-2.07,2.7s-2.26,1.21-3.23,2a32.17,32.17,0,0,0-4.92,4.91,22.3,22.3,0,0,0-2.89,5.43,2.14,2.14,0,0,0,.22,1.67,24.11,24.11,0,0,0,3.37,5.31c3.3,3.65,7.67,6.31,10.66,10.21.46.6-.91,1.24-1.55,1.65a1.87,1.87,0,0,1-1.26.14,4.62,4.62,0,0,1-1.81-.57c-.7-.42-1-1.45-1.82-1.65-1-.25-3-.55-2.91.43.14,1.57,2,2.46,3.25,3.4Z"/><path d="M1096.53,883.39a8.37,8.37,0,0,0,2.11-2.9,3.58,3.58,0,0,0,0-2.54,3.73,3.73,0,0,0-1.62-1.62c-.38-.22-1-.44-1.31-.15-2,1.74-3,4.6-5.28,5.92-1,.56-2.1-.92-3.22-1-.59-.05-2,.1-1.67.59,1.09,1.6,3.53,2,4.53,3.62.46.75-1,1.64-.81,2.51a8.29,8.29,0,0,0,1.88,3.25,5.77,5.77,0,0,0,2.15,2l1.82-.39h0c1.56-2,3.6-3.81,4.69-6.15.24-.5-1.1-.62-1.62-.41-1,.39-1.39,2-2.45,2s-3.09-.86-2.89-2C1093.08,884.61,1095.43,884.46,1096.53,883.39Zm-2.42-3c.27-.71.9-1.58,1.65-1.56.56,0,.61,1.1.41,1.62l-1.61,1.54h0C1094.41,881.47,1093.92,880.92,1094.11,880.4Z"/><polygon points="1107.95 898.12 1107.95 898.12 1107.95 898.12 1107.95 898.12"/><path d="M1118.7,944.34c-2.47-.92-5.31-.9-7.56-2.25-.57-.34.84-1.09.94-1.74a11.51,11.51,0,0,0,0-5,8.22,8.22,0,0,0-2.86-4c-.67-.51-1.68-.17-2.5,0a1.07,1.07,0,0,0-.83.69,92.22,92.22,0,0,0-2,11.91c-.05.51.92.8.81,1.3a10.38,10.38,0,0,1-1.88,3.26,4.21,4.21,0,0,1-1.3,1.29c-1.33.76-2.92,1-4.22,1.84-1.06.67-1.58,2.11-2.75,2.56a3,3,0,0,1-2.88-.39c-.45-.38.08-1.23.41-1.72.8-1.17,2.08-2,2.89-3.14a2.42,2.42,0,0,0,.15-1.29c0-1.07.42-2.29-.11-3.21a3.87,3.87,0,0,0-2.94-2.09,7.68,7.68,0,0,0-4.55,1.94c-1.7,1.31-2.31,3.94-4.26,4.84-.86.4-1.36-1.37-2.19-1.84-.15-.09-.39.16-.4.33-.13,1.24-.5,2.58,0,3.73.38.92,1.71,1.08,2.32,1.86,1.74,2.25,2.55,5.25,4.67,7.15.81.73,2.32.5,3.25-.05,2.08-1.26,3.36-3.52,5.24-5.06a11,11,0,0,1,3.22-1.93,5.16,5.16,0,0,1,2.5-.15c.75.12,1.81.17,2.1.87,1.18,2.94.67,6.42,2,9.29.52,1.11,2,1.4,3.17,1.87a1.58,1.58,0,0,0,1.33,0,4.71,4.71,0,0,0,1.62-1.61l.16-1.2h0c-.06-2.06.1-4.15-.16-6.19-.07-.48-.8-.72-.8-1.19s.71-.72.8-1.19c.26-1.41-.78-3.28.24-4.28,1.68-1.65,4.61-1.22,6.62-2.45.55-.34.51-1.25.45-1.89A1.09,1.09,0,0,0,1118.7,944.34Zm-27.78,4.94c-.55-.13-1.37.1-1.65-.39s.74-.76.74-1.24-.62-.76-.73-1.23a.38.38,0,0,1,.33-.4c1,0,2.16-.27,2.89.38.47.42-.1,1.29-.41,1.84l-1.17,1Z"/><path d="M421.34,220.48l1.68-.36h0c1.16-3.14,2.15-6.36,3.49-9.43a7.6,7.6,0,0,1,1.68-2.4c.85-.84,1.71-2,2.9-2.11a7.2,7.2,0,0,1,4.51,1.17,9.58,9.58,0,0,1,2.63,3.32c1.54,2.51,2.68,5.25,4.19,7.79a1.76,1.76,0,0,0,.93.81c.65.19,1.49.46,2,.06a12.51,12.51,0,0,0,3.31-4.12,2,2,0,0,0-.19-1.64c-1.43-3.24-3.47-6.21-4.74-9.52-1.77-4.62-2.69-9.54-4.34-14.2A23.14,23.14,0,0,0,437,185a5.43,5.43,0,0,0-2.11-2,4.58,4.58,0,0,0-2.47-.16c-.56.05-1.36.06-1.59.58s.72.72.8,1.19c.22,1.48.71,3.14.05,4.48s-3.11,1.67-3.8,3.18c-1.6,3.48-1.65,7.5-2.77,11.17-1.58,5.19-4.16,10.08-5.32,15.38C419.58,219.55,420.63,220.19,421.34,220.48Zm6.93-17.59c1-3.16.52-8.59,3.77-9.16,2.81-.5,2.29,5.23,3.22,7.93.15.42.39,1.2,0,1.32-.94.28-2-.69-2.91-.46l-3.54,2h0C428.6,204,428.11,203.44,428.27,202.89Z"/><path d="M1500.07,951.09c-1.19.79,2.14,1.91,3.35,2.68l.93,0h0c-.2-.31-.88-.68-.6-.92,1.12-1,5.32-1.35,4-2A8.2,8.2,0,0,0,1500.07,951.09Z"/><polygon points="1497.86 949.23 1497.86 949.23 1497.86 949.23 1497.86 949.23"/><path d="M1504.63,969.65c0,.57,0,1.57.59,1.6l.59-1.55h0c0-1.64.15-3.29,0-4.93,0-.57,0-1.6-.59-1.6s-.54,1-.59,1.6A26.52,26.52,0,0,0,1504.63,969.65Z"/><path d="M1505.22,957.06c-.55,0-.53,1.08-.4,1.62l.79,0h0C1505.48,958.16,1505.79,957.07,1505.22,957.06Z"/><path d="M1293.74,887a33.93,33.93,0,0,0,6.13.16l1.63-.53h0c0-.69.45-1.48.08-2.06-.6-1-2-1.17-2.69-2.08a28.32,28.32,0,0,1-3.11-5.63,1.58,1.58,0,0,1,0-1.33,3.29,3.29,0,0,1,1.61-1.6,2.38,2.38,0,0,1,1.84.41,3.71,3.71,0,0,1,1.52,1.52c1,2,.76,4.65,2.21,6.37.65.78,2.1.23,3-.12a2.49,2.49,0,0,0,1.62-1.62,28.76,28.76,0,0,0,.17-7.36c-.53-8.65-.8-17.35-2.2-25.9-.17-1-1.36,1.66-1.61,2.66-1.41,5.62-2.38,11.34-3.35,17a6.44,6.44,0,0,0,0,2.55c.11.46.69.7.85,1.16s.29,1,0,1.29a2,2,0,0,1-1.67.38c-.47-.08-.69-.74-1.15-.85a4.13,4.13,0,0,0-2.51,0,5.64,5.64,0,0,0-2.16,2,27.48,27.48,0,0,0-3.14,5.66,4.14,4.14,0,0,0,0,2.58,21.26,21.26,0,0,0,2,4.48A1.36,1.36,0,0,0,1293.74,887Z"/><path d="M1511.33,930.17a6.46,6.46,0,0,0-.41,2.84l.81,0h0a19.28,19.28,0,0,0,0-2.52C1511.72,930.34,1511.39,930,1511.33,930.17Z"/><path d="M1344.79,956.54c-2-1.2-4.59-1-6.57-2.26a8.65,8.65,0,0,1-2.64-3.35c-1.24-2.19-2.65-4.4-3.15-6.87a19.08,19.08,0,0,1,0-8.7c1.14-4.18,3.57-7.91,5.58-11.76.33-.62,1.25-.89,1.4-1.58.21-.94.53-2.93-.42-2.85-1.56.15-2.42,2-3.42,3.2a14.25,14.25,0,0,0-1.49,2.71c-1.17,2.33-2.41,4.63-3.44,7-1.16,2.67-2.64,5.28-3.11,8.15a38.16,38.16,0,0,0,0,11.14c.16,1.24,1.16,2.23,1.92,3.22a7.12,7.12,0,0,0,2.47,2.47,38.73,38.73,0,0,0,8.2,2,15,15,0,0,0,3.73.14l1.63-.54h0C1345.26,958,1345.44,956.94,1344.79,956.54Z"/><path d="M1550.82,950.54c-.06-9.46.52-19.2-.57-28.62a2,2,0,0,0-1.71-1.75,2.5,2.5,0,0,0-.23-.23l-5.81-4.33c-.93-.69-1.85-1.39-2.79-2.08a7.32,7.32,0,0,0-2.8-1.27,1.6,1.6,0,0,0-1.91-.63c-2.47.8-5,1.59-7.51,2.25l-.93.25a38,38,0,0,1-8.68,1.2c-5.35,0-10.57-1-15.64,1.26a1.57,1.57,0,0,0-.76,2.31,1.85,1.85,0,0,0-.32,1c-.19,4.06.69,8,.71,12.1a61,61,0,0,1-1.27,11.18,28.17,28.17,0,0,1-5.06,1.18,2,2,0,0,0-1.83,1.44,2.52,2.52,0,0,0-.24.43c-1.8,5.28-.44,10.88.06,16.26a130,130,0,0,1,.41,17.65,1.69,1.69,0,0,0,1.92,1.81l6.83,4.79a1.62,1.62,0,0,0,1.12.23,1.91,1.91,0,0,0,1,0c6.86-1.91,14.18-1.89,21.23-2.35l22.3-1.47a1.91,1.91,0,0,0,1.79-1.66,1.71,1.71,0,0,0,.84-1.56Zm-31.14-31.43c5.36-.34,10.5-1.9,15.59-3.52a2.43,2.43,0,0,0,1,.35c-.52-.06.52.2.08,0a4.07,4.07,0,0,1,.65.35c.44.28.85.6,1.27.91l2.64,2,2.86,2.13-.83.09c-10.1,1.4-20.25,2.54-30.39,3.6a5.54,5.54,0,0,1-2.5-.15,11.54,11.54,0,0,1-3.23-1.93c-.42-.33-1.13-.75-1.79-1.18,0-.63,0-1.27,0-1.91a1.33,1.33,0,0,0,0-.21C1509.59,918,1514.91,919.42,1519.68,919.11Zm5.52,61.64c-6.12.41-12.39.56-18.43,1.8-.08-1.49-.31-3-1.48-3s-.85,2.11-1,3.53h0l-6.44-4.51a129.29,129.29,0,0,0-.37-15.5c-.42-4.76-1.71-9.89-.58-14.63l1,.78c0-.31.2-.67,0-.93s-.25-.32-.37-.48a32.4,32.4,0,0,0,5.28-1.33,2.48,2.48,0,0,0,.9-.58,84.87,84.87,0,0,0,8.87,5.78l.38-.31h0c-.06-1.33.7-3-.17-4-.55-.63-1,1.88-1.84,1.69-2-.48-3.63-2.11-5.3-3.36-.55-.4-.84-1.17-1.31-1.64a67.9,67.9,0,0,0,1.39-11.62c0-3.34-.53-6.64-.68-10a.84.84,0,0,0,.14.06c1.69,1.08,3.14,2.51,4.86,3.53a2.06,2.06,0,0,0,1.3.15c10.6-1.11,21.17-2.57,31.78-3.63.61-.06,1.28-.22,1.94-.32l1.31,1a.69.69,0,0,0,.13.05c.89,9,.41,18.22.46,27.22l.18,28.77Z"/><path d="M1329.25,884.51c3-2.5,5.35-5.81,8.52-8.12.46-.32.5,1.07.42,1.63s-.77.68-.85,1.15a21.88,21.88,0,0,0-.17,4.92,4.16,4.16,0,0,0,.59,1.81A2.14,2.14,0,0,0,1339,887a2.48,2.48,0,0,0,1.84-.42,6.45,6.45,0,0,0,2.29-2.41,4,4,0,0,0,0-2.51c-.11-.47-.69-.71-.85-1.16a2.09,2.09,0,0,1,0-1.33c.55-1.64,2.24-3,2.06-4.77-.13-1.34-1.58-2.4-2.85-2.85-.63-.23-1,1-1.55,1.28-1.35.73-3,1-4.22,1.83-1.51,1-2.19,3.85-4,3.73-1.35-.09-.66-2.67-.59-4,0-.87,1-1.57,1-2.45s-1-1.57-.94-2.44.87-1.56,1-2.42a6.94,6.94,0,0,0,0-3.73c-.21-.53-1.12-.55-1.67-.38s-.94,1-1.52,1.33a90.34,90.34,0,0,1-8.16,4.41,1.23,1.23,0,0,1-1.32,0,1.92,1.92,0,0,1-.41-1.7c.46-2.06,1.53-3.94,2.11-6a2,2,0,0,0,0-1.37c-.91-1.87-1.89-6.9-3.25-5.33-3.2,3.68-3.1,9.25-4.25,14-1.37,5.64-2.44,11.36-3.31,17.09a8.68,8.68,0,0,0,.15,3.73c.45,1.5,1,3.16,2.23,4.11l2.46-.47h0c.38-.21,1.06-.2,1.14-.62,1.21-6.49.24-13.48,2.62-19.63.86-2.2,4.25-2.07,6.27-3.27.6-.35.95-1.08,1.58-1.38a1.5,1.5,0,0,1,1.29,0c.23.13.26.53.17.79-.9,2.74-2.46,5.28-3.09,8.1a10.34,10.34,0,0,0,0,5.73c.4,1.12,1.8,1.58,2.86,2.11A1.32,1.32,0,0,0,1329.25,884.51Z"/><path d="M1356.74,895.1a6.13,6.13,0,0,0,3,.61l4-.59h0c-1.66-1.76-3.45-3.41-5-5.29a15.45,15.45,0,0,1-1.93-3.22,3.17,3.17,0,0,1-.15-1.3c0-4.91-.36-9.85.14-14.74a25.36,25.36,0,0,1,2.16-7.35c.92-2.13,2.73-3.8,3.62-6a2,2,0,0,0-.44-1.72.58.58,0,0,0-.77,0,23.28,23.28,0,0,0-3.86,4.5,30.25,30.25,0,0,0-2.53,6,69.41,69.41,0,0,0-3.06,10.61,29.64,29.64,0,0,0-.15,8.62,22.21,22.21,0,0,0,2.14,7A7,7,0,0,0,1356.74,895.1Z"/><path d="M1310.91,950.9c-.84-.17-1.59.76-2.45.84a2.16,2.16,0,0,1-1.88-.46c-1-1.29-1.22-3.11-2.12-4.51-.63-1-2.85-1.46-2.39-2.53.74-1.71,3.26-1.83,4.75-3a5.83,5.83,0,0,0,2-2.15,3.48,3.48,0,0,0,0-2.54,5.42,5.42,0,0,0-2.12-2.87,6.17,6.17,0,0,0-5.66,1.1c-1.65,1.64-2.39,4.18-4.31,5.5-.85.58-2.09-.76-3.06-.41-.53.19-.69,1.18-.38,1.66.73,1.16,2.54,1.44,3.12,2.68.33.71-.76,1.41-.85,2.19a22.75,22.75,0,0,0,0,4.88,2.94,2.94,0,0,0,.62,1.84,14.61,14.61,0,0,0,4.83,3.48l4-.16c2.21-1,4.48-1.83,6.61-3,.37-.19.88-.58.76-1A2.33,2.33,0,0,0,1310.91,950.9Zm-8.81-12.18a6.4,6.4,0,0,1,1.9-2.51.88.88,0,0,1,1.18.41l-.38,3h0c-.4.36-.68,1-1.21,1.08a1.69,1.69,0,0,1-1.67-.38C1301.59,939.92,1301.85,939.21,1302.1,938.72Z"/><polygon points="1305.09 956.48 1305.09 956.48 1305.09 956.48 1305.09 956.48"/><path d="M1363,928a7.34,7.34,0,0,0-1.33-2.32,32.56,32.56,0,0,0-5.49-5.33,1.32,1.32,0,0,0-1.68.38,3.14,3.14,0,0,0,0,2.55c1.23,3.33,3.72,6.18,4.55,9.64a24.33,24.33,0,0,1,.15,9.84c-.43,2.41-1.83,4.57-3.07,6.69-1.14,2-3.31,3.35-4,5.5-.25.75,1,1.25,1.63,1.71h.77a18.42,18.42,0,0,0,2.48-2.35,83.81,83.81,0,0,0,6.21-9.43,21.42,21.42,0,0,0,2.12-5.79,9.21,9.21,0,0,0-.14-3.73A54.93,54.93,0,0,0,1363,928Z"/><path d="M1450.09,691.38c-1.36-.59-3-.17-4.47,0-.86.14-1.54,1-2.41,1s-1.61-1.1-2.49-1c-1.72.24-3.08,1.78-4.8,2-.89.13-1.6-.92-2.49-1a63.86,63.86,0,0,0-9.78,0c-7.33.52-14.6,1.87-22,2.25-.89,0-1.6-1-2.5-1a145,145,0,0,0-15.88,0c-.87,0-1.54,1-2.41,1s-1.65-.89-2.54-.84c-6.1.36-12.12,1.68-18.22,2.06-.53,0-.81-.87-1.33-.83-11,.83-21.91,3.2-33,3.43-5.76.13-11.37-2-17.12-2.37-.86-.06-1.54,1-2.4,1s-1.62-.78-2.48-.78c-.48,0-.74.64-1.19.78a4,4,0,0,1-1.34,0c-17.47-.67-34.94-1.67-52.42-2.1-.5,0-.78.81-1.28.79-.87,0-1.57-1-2.44-.94-5.71.38-11.32,1.91-17,2.25-1.29.07-2.46-.89-3.74-1.05a12.09,12.09,0,0,0-3.7.17c-.47.09-.71.79-1.19.79s-.72-.79-1.19-.79c-.86,0-1.61.78-2.48.79-.47,0-.74-.74-1.22-.73s-.73.67-1.19.8a18.1,18.1,0,0,1-5,0c-.46-.13-.71-.8-1.19-.8s-.74.64-1.19.78a2.27,2.27,0,0,1-1.29,0c-.84-.23-1.55-.92-2.42-1a37.3,37.3,0,0,0-7.32,0c-10.29,1-20.59,2.06-30.82,3.56-3.24.47-6.26,2.33-9.53,2.36-4.91,0-9.7-1.56-14.58-2.11a8,8,0,0,0-3.78,0c-.54.2-.55,1.06-.55,1.64,0,1-.37,2.54.55,2.85,1.59.53,3.25-.91,4.92-1a63.86,63.86,0,0,1,9.78,0c.87.07,1.55.87,2.42,1l2.78-.14h0c2.72-.73,5.39-1.72,8.18-2.18,6.08-1,12.21-1.77,18.35-2.19.5,0,.77.67,1.24.83a2.72,2.72,0,0,0,1.33,0c3.66-.67,7.24-1.77,10.93-2.26a24.42,24.42,0,0,1,6.1,0c.87.1,1.55,1,2.42,1s1.61-.82,2.48-.79,1.58.85,2.44,1a12.09,12.09,0,0,0,3.7-.16c.38-.07.58-.85.94-.69.76.33.85,1.85,1.67,1.84,6.06-.06,12-1.69,18.06-2,.88,0,1.61.85,2.49.87s1.61-.81,2.48-.79,1.57,1,2.44.94c1.28,0,2.4-1,3.67-1.16a46.08,46.08,0,0,1,8.55,0c.87.08,1.54,1,2.41,1,1.68,0,3.25-1,4.92-1,1.28,0,2.43,1,3.71,1,.87,0,1.54-1,2.41-1,1.28,0,2.38,1.15,3.67,1.14s2.39-1,3.67-1.16a47.88,47.88,0,0,1,8.55,0c1.27.1,2.42,1,3.7,1,.87,0,1.55-.94,2.41-1a51.43,51.43,0,0,1,9.77,0,64.37,64.37,0,0,1,10.73,2.17c.65.18.88,1.34,1.55,1.27,2.49-.22,4.72-1.84,7.21-2.07,1.29-.13,2.46.9,3.75,1a29.61,29.61,0,0,0,6.1,0c5.7-.56,11.32-1.85,17-2.27.88-.06,1.64.81,2.52.82.48,0,.73-.68,1.19-.8a5.74,5.74,0,0,1,2.47-.16c.86.15,1.56.84,2.42,1a6.26,6.26,0,0,0,2.55,0c2.45-.52,4.74-1.7,7.21-2.08.49-.08.78.78,1.27.78s.74-.65,1.19-.79a2.36,2.36,0,0,1,1.29,0c.84.22,1.55,1.09,2.41,1,2.9-.33,5.58-1.88,8.48-2.24.87-.11,1.61.85,2.49.86s1.61-.77,2.48-.78c.47,0,.74.76,1.22.73.87,0,1.57-1,2.44-.94,1.29.05,2.4,1,3.67,1.17a31.08,31.08,0,0,0,6.1,0c8.17-.65,16.29-1.87,24.46-2.43a76.06,76.06,0,0,1,11,0c1.28.1,2.4,1.33,3.67,1.17,1.78-.22,3.11-2.22,4.91-2.22,2.94,0,5.64,1.76,8.55,2.22a2.74,2.74,0,0,0,1.8-.57c.46-.3,1.16-.73,1-1.26A4.24,4.24,0,0,0,1450.09,691.38Z"/><path d="M1461.74,933.43a18.79,18.79,0,0,0-3.3-2.58,30.64,30.64,0,0,0-5.74-3.17,2.39,2.39,0,0,0-1.84.41,2.2,2.2,0,0,0-1.07,1.2,4.86,4.86,0,0,0,0,2.51,3.16,3.16,0,0,0,1.1,1.85c2,1.45,4.56,2.18,6.63,3.61a.78.78,0,0,1,.06,1c-.3.3-.83.18-1.25.18-1.64,0-3.36.32-4.92-.17-1-.31-1.48-1.53-2.38-2.08a1.76,1.76,0,0,0-1.26-.14c-.87.2-1.6,1-2.49,1-6.11-.31-12.13-1.66-18.23-2.06-.5,0-.78.81-1.27.79-.88,0-1.58-.86-2.45-.94-.57-.06-1.37,0-1.64.54a2.64,2.64,0,0,0,0,2.5,5.35,5.35,0,0,0,2.77,1.94,38,38,0,0,0,8.66,2.28c.86.1,1.56-.83,2.41-1a4.46,4.46,0,0,1,2.51,0c1,.42,1.41,1.67,2.38,2.08a4.14,4.14,0,0,0,2.51,0c.46-.1.7-.69,1.15-.84a1.7,1.7,0,0,1,1.29,0c.6.27.87,1.06,1.49,1.3,2.17.84,4.55,1.08,6.74,1.9a1.22,1.22,0,0,1,.66.89c0,.22-.21.4-.37.57-1.31,1.46-3.27,2.49-4,4.31-.29.69.87,1.33,1.56,1.64l1.62-.18h0c1.31-.91,2.87-1.54,3.94-2.72s1.42-3.11,2.51-4.4c1.32-1.57,3.68-2.26,4.61-4.09.75-1.47.46-3.36,0-5A8.29,8.29,0,0,0,1461.74,933.43Z"/><polygon points="1379.32 897.96 1379.32 897.96 1379.32 897.96 1379.32 897.96"/><path d="M1385.13,856.32a14.94,14.94,0,0,0-2.84-3.56,12.82,12.82,0,0,0-2.9-2.11,2.1,2.1,0,0,0-1.29-.13c-.55.08-1.75,0-1.58.57.3,1,1.66,1.19,2.36,1.93a12.27,12.27,0,0,1,2.65,3.37,39.59,39.59,0,0,1,3.28,10.6,63.62,63.62,0,0,1-.14,16c-.4,2.86-1.81,5.52-3.15,8.08-1,1.92-2.87,3.31-3.83,5.25a1.59,1.59,0,0,0,.38,1.67h1.25c2.34-2.69,5.06-5.08,7-8.07a12.51,12.51,0,0,0,2-5.72,99.83,99.83,0,0,0,.15-19.63C1388.14,861.6,1386.51,858.94,1385.13,856.32Z"/><path d="M826.37,687c.09-.75,0-1.81-.7-2.13-2.55-1.23-5.6-1.08-8.22-2.15-.77-.31-1.92-1.09-1.64-1.88.84-2.36,3.39-3.8,4.46-6.07.53-1.12.26-2.47.16-3.7,0-.58,0-1.37-.55-1.64a3.5,3.5,0,0,0-2.55,0c-1.67.48-3.09,1.64-4.75,2.11a5.12,5.12,0,0,1-2.55,0c-.46-.11-.68-.83-1.16-.85-.74,0-1.86,0-2.12.7a77,77,0,0,0-3.39,14.39,19.18,19.18,0,0,0,.16,6.14,1.68,1.68,0,0,0,1.08,1.19c.45.17,1.31.2,1.43-.27A140.47,140.47,0,0,0,809.25,676c0-.38-1-.76-.64-.93a30.81,30.81,0,0,1,8.76-3.18c.56-.1.73,1.16.45,1.64-1.58,2.66-4.43,4.48-5.74,7.27-.7,1.5-.2,3.32,0,4.95a1.15,1.15,0,0,0,.72.85,35.08,35.08,0,0,0,7,2c.49.07.77-.8,1.27-.78.87,0,1.57.86,2.44.94l1.78-.54h0C825.65,687.82,826.31,687.56,826.37,687Z"/><path d="M1168.22,653.55c.48.05.72.77,1.2.79s.73-.38.92-.72a9.83,9.83,0,0,0,1-2.67c1.26-5.46,2.46-10.94,3.44-16.46a14.12,14.12,0,0,0,.15-3.73c-.05-.59-.11-2-.61-1.68-1.2.75-1.78,2.25-2.38,3.53-1.13,2.43-1.55,5.16-2.76,7.55a7.37,7.37,0,0,1-2.18,2.2c-.2.17-.59-.05-.77.13a41.51,41.51,0,0,0-3.85,4.53,11.63,11.63,0,0,0-1.93,3.22,3.85,3.85,0,0,0,0,2.55,3.07,3.07,0,0,0,1.62,1.61,5,5,0,0,0,2.47.17l1.81-.56h0A5.87,5.87,0,0,1,1168.22,653.55Zm-2.44-2.82-1.23,0c-.16-.56-.66-1.14-.46-1.68a8,8,0,0,1,2.11-2.83c.18-.18.67-.23.77,0a4.8,4.8,0,0,1,.43,2.92C1167.21,649.86,1166.44,650.36,1165.78,650.73Z"/><path d="M1368.65,627.94c-2,.76-3.23,2.81-4.63,4.41a16.89,16.89,0,0,0-2.39,3.63c-.89,1.77-1,7.1-2.18,5.52-2.55-3.42-1.81-8.35-3-12.45-.06-.2-.45.24-.46.45a65.44,65.44,0,0,0,0,11.11,17.85,17.85,0,0,0,2.34,6.53l1.13-.48h0c1.52-3.53,2.9-7.13,4.57-10.6a8.78,8.78,0,0,1,1.68-2.41c.77-.78,2.13-2.93,2.65-2,1.92,3.58,1.18,8.11,2.66,11.89.22.57,1.74,0,1.73-.64a53.73,53.73,0,0,0-2-13.14C1370.49,628.9,1369.51,627.61,1368.65,627.94Z"/><path d="M1262.91,635.65a22.11,22.11,0,0,0-2.13-5.78,1.39,1.39,0,0,0-.89-.77,4.76,4.76,0,0,0-2.54,0,7.39,7.39,0,0,0-3.18,1.9c-1.06,1.15-1.13,3.06-2.31,4.09a32.45,32.45,0,0,1-9.1,5.82c-.7.27-2-.95-1.59-1.6,1.71-2.87,4.88-4.61,6.89-7.29.33-.44,0-1.14-.19-1.63-.48-1-.86-2.33-1.9-2.56a26.28,26.28,0,0,0-9.4,0,13.9,13.9,0,0,0-4.48,2,1.31,1.31,0,0,0-.75.88,3,3,0,0,0,.41,1.84c.27.47.75,1.21,1.26,1,1.83-.65,3.06-2.47,4.85-3.2.44-.18.75.7,1.22.73s.66-.84,1-.62c.89.65,2.26,1.66,1.91,2.7-1.11,3.23-4.19,5.45-5.74,8.49-.3.57.12,1.31.43,1.87a2,2,0,0,0,1.19,1.07,16.18,16.18,0,0,0,5,0c.47-.07.7-.7,1.15-.86.64-.24,1.48.1,2-.3.92-.68,1.23-2,2.08-2.71s2.07-2.47,3-1.76c1.63,1.3.89,4.22,2.17,5.86,1,1.23,2.71,1.61,4.15,2.23a2.47,2.47,0,0,0,1.29.13,4.92,4.92,0,0,0,1.81-.57l1.07-1.18h0a8.7,8.7,0,0,0,1.22-2.46A26,26,0,0,0,1262.91,635.65Zm-2.45,4.88-.56,1.58h0c-.31-.23-.77-.33-.92-.68a27.53,27.53,0,0,1-2-5.72c-.12-.57-.14-1.49.41-1.71.9-.36,2.48-.5,2.9.39C1261.16,636.24,1260.56,638.48,1260.46,640.53Z"/><path d="M1291.22,639.34a7.44,7.44,0,0,0,3.32,4.12l3.64-.43h0c1.22-2,2.76-3.91,3.68-6.1.22-.54.15-1.52-.4-1.7-.83-.26-1.63.65-2.49.78-.17,0-.37-.16-.4-.34a3.19,3.19,0,0,1-.08-2c.47-.9,1.8-1.16,2.2-2.09a6.63,6.63,0,0,0,.1-3.23c0-.57,0-1.37-.55-1.64a2.71,2.71,0,0,0-2.52,0c-1.87,1.16-2.87,3.5-4.82,4.53-1.1.58-2.5.2-3.73,0-.88-.14-1.58-1-2.47-1s-1.36,1.58-2.11,1.26c-1.14-.5-1.28-2.14-2.08-3.09-.53-.64-1.12-2-1.87-1.63-2.86,1.39-4.24,5.38-7.35,6.09-1.52.36-1.77-2.6-2.87-3.72-.17-.19-.53-.11-.76,0a1.88,1.88,0,0,0-.93.78c-.79,1.45-2,2.9-2,4.55a10,10,0,0,0,2.26,5.42c.37.49,1.24.19,1.84.06A4.08,4.08,0,0,0,1273,639c1.42-1.52,1.49-4.78,3.54-5.13,1.54-.26,1.81,2.64,2.09,4.17.17.88-1,1.68-.83,2.55a7,7,0,0,0,2.06,2.9.76.76,0,0,0,.72.09c.78-.23,1.78-.3,2.25-1,1.46-2.09,1.51-5.08,3.29-6.9.73-.74,2.07.49,3.1.38.48,0,.71-.68,1.16-.84s1.2-.4,1.29,0C1292,636.59,1290.76,638,1291.22,639.34Z"/><path d="M1398.35,630.75c.19-.37-.87-.3-1-.67-1.34-2.91-2.07-6.08-3.42-9-.34-.73-.82-2-1.59-1.82a3.44,3.44,0,0,0-2.07,2.86c-.22,1.67.84,3.28,1,5a6.86,6.86,0,0,1-.18,2.47c-.21.85-1,1.55-1,2.42a89.55,89.55,0,0,0,0,11,3.84,3.84,0,0,0,.59,1.82c.28.45.66,1,1.19,1.06l3-.4c.36-.41,1.07-.67,1.08-1.21,0-1.28-.9-2.44-1-3.71-.18-2-.51-4.21.16-6.14C1395.64,632.85,1397.61,632.2,1398.35,630.75Z"/><path d="M1380.87,640.89c-.29.25-.72-.36-.91-.7-1.54-2.75-2.26-6-4.23-8.47-.42-.52-1.28.79-1.4,1.44a16.63,16.63,0,0,0,0,6.21,8.38,8.38,0,0,0,1.92,3.22c.61.78,1.21,1.77,2.15,2s1.62-.78,2.48-.79c.48,0,.77.64,1.23.74l.56-.36h0c1.18-2,2.53-4,3.54-6.06a1.59,1.59,0,0,0,0-1.35c-.77-1.46-1.45-3.18-2.85-4a4.37,4.37,0,0,0-3.74,0c-.52.21-.4,1.1-.38,1.67a.82.82,0,0,0,.45.59c1.27.78,3.65.63,3.94,2.09S1382.06,639.89,1380.87,640.89Z"/><path d="M1410.63,674.79c.13-.55.17-1.53-.39-1.68a14,14,0,0,0-6.18,0,2.55,2.55,0,0,0-1.61,1.62c-.19.54-.15,1.49.39,1.68a12.69,12.69,0,0,0,4.92.17l1.79-.56h0C1409.91,675.6,1410.5,675.32,1410.63,674.79Z"/><path d="M1373.57,675.55c-.78-.31-2-.64-2.51,0a3.77,3.77,0,0,0-.45,3.63c.47,1.1,1.83,1.55,2.9,2.07l.58-.37h0c.36-.4.94-.69,1.09-1.21a3.92,3.92,0,0,0,0-2.51A3,3,0,0,0,1373.57,675.55Z"/><path d="M1391.1,676c.16-.76-.91-1.39-1.64-1.65a2.43,2.43,0,0,0-1.84.41,2.09,2.09,0,0,0-1.06,1.19,2.48,2.48,0,0,0,.42,1.85l1.58.84h0C1389.41,677.75,1390.85,677.19,1391.1,676Z"/><polygon points="1394.88 645.45 1394.88 645.45 1394.88 645.45 1394.88 645.45"/><path d="M1156.57,641.76c-.47-1.79-.63-4-2.13-5.13-.78-.57-1.29,1.52-1.58,2.44a74.74,74.74,0,0,0-2.35,10,2.51,2.51,0,0,0,.35,1.59c.5.93.94,2.08,1.89,2.56l2.4-.43h0a14.32,14.32,0,0,1,.39-2.53c.15-.46.75-.69.86-1.16a5.75,5.75,0,0,0,0-2.51c-.1-.47-.79-.71-.79-1.19s.67-.73.79-1.19A5.07,5.07,0,0,0,1156.57,641.76Z"/><path d="M1136.39,660.5l17.42-.11h0c6.41-1,12.77-2.43,19.22-3.16.52-.06.81.9,1.32.82,2.09-.35,3.93-1.69,6-2,.49-.09.76.66,1.23.82a3.18,3.18,0,0,0,1.34,0c6.5-.7,13-1.64,19.49-2.26a6.78,6.78,0,0,1,2.46.16c.48.13.75.92,1.24.83,2.12-.4,3.94-1.92,6.07-2.22a44.33,44.33,0,0,1,9.77,0c.87.08,1.57.82,2.42,1a7.13,7.13,0,0,0,2.48.19c1.66-.2,3.24-1,4.92-1,.49,0,.74.88,1.23.83,3.71-.43,7.26-1.83,11-2.23a53.14,53.14,0,0,1,9.77,0c1.29.1,2.46,1.15,3.75,1,3.7-.31,7.22-1.93,10.92-2.28a78.34,78.34,0,0,1,13.44,0c4.91.39,9.7,1.88,14.62,2.23.9.06,1.61-1,2.5-1,8.55-.31,17.11-.07,25.67,0a11.29,11.29,0,0,1,2.47.18c.85.21,1.54,1,2.42,1s1.56-.8,2.41-1a11.38,11.38,0,0,1,2.48-.18c4.07,0,8.15-.26,12.22,0,.89.06,1.6,1.09,2.49,1,3.71-.34,7.24-1.94,11-2.21,1.27-.1,2.38,1.11,3.66,1.15.9,0,1.6-1.05,2.5-1,4.91.31,9.7,2.21,14.61,2.08,12.28-.34,24.43-2.6,36.67-3.5a31.26,31.26,0,0,1,8.59.18c1,.22,1.53,1.51,2.42,2.1a.66.66,0,0,0,.76,0,11,11,0,0,0,2.11-2.83,1.46,1.46,0,0,0,0-1.32,4.52,4.52,0,0,0-1.6-1.62,1.77,1.77,0,0,0-1.26-.14c-1.26.26-2.4,1-3.67,1.16a5.73,5.73,0,0,1-2.47-.16c-.48-.13-.74-.86-1.24-.84-1.7.09-3.29.89-5,1.16a167.82,167.82,0,0,1-17,2.29c-8.13.45-16.3.29-24.43,0-.88,0-1.58-1-2.45-1s-1.58.86-2.45,1a26.56,26.56,0,0,1-6.11,0c-1.27-.15-2.38-1.26-3.66-1.17-3.74.27-7.27,2.23-11,2.24-15.08,0-30.1-1.75-45.17-2.08-.9,0-1.6.93-2.5,1a49.82,49.82,0,0,1-8.55,0c-1.27-.11-2.42-1-3.7-1-.48,0-.7.72-1.16.85a9.34,9.34,0,0,1-2.48.17,10.21,10.21,0,0,1-2.47-.17c-.85-.21-1.55-1-2.42-1a79.18,79.18,0,0,0-11,0c-9.78.56-19.55,1.43-29.3,2.35-2.46.23-4.85,1-7.32,1.11-.49,0-.73-.83-1.23-.83-.87,0-1.6.71-2.45.85a21.75,21.75,0,0,1-3.7.18,10.18,10.18,0,0,1-2.47-.18c-.85-.21-1.55-1-2.42-1a42,42,0,0,0-9.77,0c-1.76.26-3.12,1.81-4.86,2.21-.48.11-.73-.81-1.22-.82-.87,0-1.62.79-2.48.79-.5,0-.78-.84-1.27-.78-3.71.44-7.28,1.66-11,2.23a6.43,6.43,0,0,1-2.47-.17c-.85-.2-1.56-.87-2.42-1a5.91,5.91,0,0,0-2.47.17c-.46.12-.71.79-1.19.79s-.78-.84-1.27-.77c-9.41,1.24-18.67,3.38-28.07,4.67a16.58,16.58,0,0,1-4.92-.17c-.49-.08-.74-.91-1.24-.84a54.47,54.47,0,0,0-10.24,2.34C1135.56,659.68,1136,660.49,1136.39,660.5Z"/><path d="M1279.39,211.92c.69.25,1.92.05,2.11-.66,1.64-6.19,1.81-12.67,3.1-18.94a1,1,0,0,1,.93-.73,1.17,1.17,0,0,1,.92.7c2.93,5.78,4.84,12.11,8.35,17.56,1.07,1.65,3.47,1.87,5,3.11.87.71,1.26,1.89,2.08,2.66a.7.7,0,0,0,.77,0c.64-.43,1.47-.88,1.66-1.64a13.29,13.29,0,0,0,0-4.95c-.07-.49-.94-.75-.83-1.23a58.43,58.43,0,0,1,3.18-9.43,61.81,61.81,0,0,1,3.59-7.25c.42-.75,1.32-2.82,1.62-2,3,7.93,4.22,16.46,7,24.49a3.46,3.46,0,0,0,2.12,2l2.88-.37h0a43.34,43.34,0,0,0,0-6.24c-.14-.93-1-1.61-1.3-2.5-1.62-5.17-2.78-10.48-4.41-15.65-.28-.89-1-1.6-1.29-2.5-.29-1.06.24-2.32-.29-3.28a3.94,3.94,0,0,0-2.57-1.88,3,3,0,0,0-2.36.91,11,11,0,0,0-2.63,3.35c-2.9,5.61-4.08,12.23-8,17.2-.91,1.16-2.22-2-3-3.25-1.69-2.88-2.59-6.17-4.24-9.06a22.92,22.92,0,0,0-3.79-5c-.89-.87-2.09-2.35-3.25-1.88A12.78,12.78,0,0,0,1281,191c-1.42,2.47-1.84,5.44-2.16,8.27a70.74,70.74,0,0,0,0,11C1278.86,210.86,1278.85,211.72,1279.39,211.92Z"/><path d="M1423.33,878.57a1.91,1.91,0,0,0,1.22,1c.49,0,.79-.89,1.26-.76,1.32.35,2.22,1.79,3.56,2.05.88.18,1.67-1,2.56-.84,2.48.31,4.73,1.8,7.21,2.07,1.29.15,2.49-.89,3.78-.86.87,0,1.54,1,2.41,1s1.54-1,2.41-1,1.58.83,2.45.84,1.64-1,2.51-.81c1.06.22,2.46.81,2.66,1.87s-1.54,1.27-1.9,2.15a2.94,2.94,0,0,0,0,2.51c.29.5,1.1.39,1.68.39l.53-.4h0a23.4,23.4,0,0,1,2.14-3.31c.84-.92,2.17-1.33,3-2.31,1.32-1.62,2.92-3.3,3.27-5.37.16-1-1.24-1.57-2-2.21a35.46,35.46,0,0,0-4.84-3.62,18.48,18.48,0,0,0-4.48-2,4,4,0,0,0-2.55,0c-.72.29-1.63.91-1.59,1.68.07,1.24,1.12,2.24,1.86,3.23.39.52,1.91.75,1.5,1.25a5.68,5.68,0,0,1-4.2,2c-6.19-.07-12.31-1.35-18.43-2.28-1.2-.19-2.28-.93-3.48-1-1-.1-2.22-.26-2.94.41s-.25,1.65-.17,2.48A4,4,0,0,0,1423.33,878.57Z"/><path d="M1499.9,879.24c1.4,2.06,3,4.2,5.29,5.28l5.28-.19h0c1-.63,2.32-1,3.08-1.87a17.76,17.76,0,0,0,3.11-5.63,5,5,0,0,0,0-3.77c-1-1.95-3.36-2.95-4.51-4.82-.33-.54.08-1.31.41-1.85.57-.88,1.67-1.34,2.2-2.25a36.32,36.32,0,0,0,3.14-6.86,4.1,4.1,0,0,0,0-2.59c-.38-1-.81-2.83-1.9-2.69-3.73.48-7,2.67-10.43,4.29a18.57,18.57,0,0,0-3.63,2.4c-.76.62-1.71,1.22-2,2.15a7.37,7.37,0,0,0,0,3.73,4.27,4.27,0,0,0,1.13,2c1,1.1,3.53,1.46,3.36,2.93-.31,2.83-3.31,4.65-4.5,7.23A2.8,2.8,0,0,0,1499.9,879.24Zm3.62-16.38c-.3-.37-.41-1.13,0-1.43a37.18,37.18,0,0,1,7.78-4.67,2.9,2.9,0,0,1,2.54,0,1.4,1.4,0,0,1,.4,1.7l-4.55,6.49h0c-1.1,0-2.26.35-3.29,0A6.66,6.66,0,0,1,1503.52,862.86Zm4.15,7.43c.55-.51,1.46.53,2,1.06a23.48,23.48,0,0,1,3.33,4.16,1.68,1.68,0,0,1,.14,1.25,8.48,8.48,0,0,1-1.28,3.22l-2.87,2.1c-.86,0-1.84.45-2.56,0-1.62-1-4.21-2.2-4-4.1C1502.74,874.89,1505.37,872.38,1507.67,870.29Z"/><path d="M1293.29,667.39a1.33,1.33,0,0,0-1.68-.39,7.82,7.82,0,0,0-2.18,3.21,171.14,171.14,0,0,0-6.78,16.7,5.61,5.61,0,0,0,0,3.77c.22.53,1.1.4,1.67.38a.81.81,0,0,0,.6-.45c.8-1.46,1.3-3.07,2.13-4.52a1.53,1.53,0,0,1,.88-.76,3.24,3.24,0,0,1,4.48,1.75c1.34,2.45,1.68,5.41,3.29,7.69.39.57,1.48.32,2.07,0l.56-1.59h0c0-3.3.49-6.66-.15-9.89-.31-1.57-1.89-2.59-2.63-4a30.2,30.2,0,0,1-3.14-6.87c-.21-.85.72-1.62.87-2.48A3.85,3.85,0,0,0,1293.29,667.39Z"/><polygon points="1265.96 220.42 1265.96 220.42 1265.96 220.42 1265.96 220.42"/><path d="M1548.42,860.92h0a10.11,10.11,0,0,0,1.23-2.46,19.74,19.74,0,0,0,.17-4.92,2.53,2.53,0,0,0-.56-1.64,1.42,1.42,0,0,0-1.26-.16,3.48,3.48,0,0,0-2.13.91c-1,1.32-2,2.9-2,4.55a6,6,0,0,0,2.2,4.18Z"/><path d="M1521.11,887.13c.65.89,1.35,2,2.42,2.28,2,.57,4.09.26,6.13.17l1.65-.54h0a6.93,6.93,0,0,1,.79-1.87c.53-.6,1.45-.76,2-1.33,1.23-1.28,2.89-2.44,3.32-4.16a27.56,27.56,0,0,0,.17-9.8,22.31,22.31,0,0,0-2.15-7,6.34,6.34,0,0,0-2.45-2.45c-1.39-.87-3-2.42-4.51-1.93-1.79.57-2.52,2.82-3.45,4.45-1.7,3-3.63,6-4.38,9.32-.79,3.61-.27,7.38-.14,11.07A3.29,3.29,0,0,0,1521.11,887.13Zm3.22-15.32a5.76,5.76,0,0,1,2.12-2.87c.37-.32,1.1.12,1.45-.22.91-.89,1.17-2.31,2.07-3.2.21-.2.42.59.69.5.59-.2,1.07-1.7,1.44-1.2a16.52,16.52,0,0,1,2.9,7c.53,2.84,1.09,6,0,8.66-1,2.41-3.72,3.66-5.75,5.31h-.74a11.62,11.62,0,0,1-2.18-2,12.41,12.41,0,0,1-2-4.48A21.07,21.07,0,0,1,1524.33,871.81Z"/><path d="M1163.64,438.54a16.63,16.63,0,0,0,4.51,1.94c.49.09.75-.71,1.24-.84,1-.26,2.31.25,3.25-.3,1.26-.74,1.48-3.67,2.89-3.3,2.61.7,4.14,3.54,5.85,5.63,3.28,4,5.8,8.66,9.08,12.69,2,2.51,4.83,4.33,6.81,6.87,3.74,4.82,6.59,10.29,10.3,15.14,1.61,2.1,3.93,3.58,5.59,5.64s2.66,4.47,4.19,6.58c.74,1,2,1.67,2.6,2.78a2,2,0,0,1-.19,1.63c-.49,1.15-1.57,2-1.89,3.24a6.86,6.86,0,0,0,0,3.76,2.36,2.36,0,0,0,1.62,1.61c.86.16,1.65-1,2.51-.81l3.55,2h0c.64-.14,1.42,0,1.92-.44a6.49,6.49,0,0,0,1.45-2.51,26.2,26.2,0,0,0,2-5.95c.12-.87-.69-1.65-.81-2.52,0-.23.2-.41.36-.58a39.84,39.84,0,0,0,3.41-3.47c1.19-1.65,1.85-3.64,3-5.34a95.85,95.85,0,0,1,6.12-8.57c1.68-2,3.86-3.63,5.58-5.64.84-1,1.27-2.25,2.07-3.25s2-1.78,2.82-2.86c2.38-3.3,4.1-7.06,6.64-10.24a161.67,161.67,0,0,1,12.34-13.57,8.31,8.31,0,0,1,3.22-1.92c1-.36,2.3.16,3.3-.3s1.09-2.22,2.09-2.15c1.79.11,3.08,1.87,4.73,2.57a15.47,15.47,0,0,0,3.61,1c16.49,2.8,33.06,5.11,49.53,8a16,16,0,0,1,5.21,1.65c1.47.85,2.15,2.79,3.68,3.52,1.12.54,2.5.22,3.73,0a1.41,1.41,0,0,0,.93-.82,57.68,57.68,0,0,0,3.3-8.17,3,3,0,0,0-.17-2.47c-1.2-1.66-3.15-2.62-4.58-4.08-.16-.17-.1-.48-.09-.72.8-14.08.89-28.23,2.53-42.24.8-6.86,4-13.3,4.75-20.16s.34-13.85,0-20.77c-.06-1.28-1.09-2.39-1.18-3.67a123,123,0,0,1,0-13.44,3.1,3.1,0,0,1,.59-1.68c.83-1.16,2.08-2,2.89-3.15a2.33,2.33,0,0,0,.15-1.29,8.41,8.41,0,0,0-.15-2.51,13.2,13.2,0,0,0-2.08-4.59c-.8-1-2-2.16-3.26-1.86-2.65.64-4.7,2.79-7,4.34-.33.23-.75.56-.74,1s.73.72.79,1.19c.21,1.64,1,3.62,0,5-2.8,3.82-6.83,6.6-10.59,9.48a65.44,65.44,0,0,1-10,6.39c-4.79,2.45-10,3.92-14.84,6.36a48.63,48.63,0,0,0-7.35,4.89c-1.19.91-1.91,2.41-3.21,3.15-4.46,2.54-9.39,4.16-13.9,6.63-1.81,1-3.15,4.68-5,3.7-2.26-1.2-.45-5.35-2-7.41-1.26-1.74-3.63-2.33-5.65-3.06-.37-.13-.65.85-1,.65-.72-.41-1-1.34-1.41-2-1.29-2-2.6-4.07-3.74-6.2-3.05-5.71-5.66-11.65-8.81-17.3s-7.45-10.39-9.92-16.24c-.41-1,1.51-1.53,2-2.44a2.44,2.44,0,0,0,.16-1.26,26,26,0,0,0-.16-4.92,3.86,3.86,0,0,0-1.13-2c-.86-.86-1.76-2.08-3-2.09-2,0-4,1-5.79,2-.57.31-.55,1.21-1,1.67-.87.87-2.13,1.33-2.94,2.27a1.13,1.13,0,0,0,0,1.2c.55.88,1.56,1.4,2.18,2.24.74,1,2.22,2.05,1.88,3.25-.83,3-3.5,5-5,7.71-1.61,2.92-2.55,6.19-4.24,9.06-3.63,6.13-8.07,11.75-11.7,17.88-4.12,6.92-7.34,14.35-11.53,21.23a60.39,60.39,0,0,1-6.55,8.49c-.75.86-2,1.23-2.73,2.08s-1.22,2.25-2,3.23c-1.22,1.47-2.79,2.62-4,4.07a46,46,0,0,0-3.67,4.9c-1.11,1.71-1.84,3.65-3,5.34-.51.77-1.41,1.22-1.92,2-1.13,1.69-1.74,3.7-3,5.33s-3,2.84-4.37,4.44c-.73.87-1,2-1.75,2.91a35.71,35.71,0,0,1-4.89,5.52c-.29.24-.55-.64-.93-.67a2.57,2.57,0,0,0-1.84.41c-1.06.87-1.59,2.25-2.56,3.22-1.29,1.29-3,2.17-4.19,3.53a3,3,0,0,0-.59,1.81,33.13,33.13,0,0,0,.17,6.14A1.33,1.33,0,0,0,1163.64,438.54Zm11.46-14.39c.28-1.24,1.84-1.77,2.61-2.79,1.91-2.52,3.47-5.3,5.42-7.8.91-1.18,2.26-2,3.13-3.2,2.4-3.29,4.32-6.91,6.64-10.24s4.7-6.67,7.34-9.78c2.08-2.46,4.68-4.44,6.8-6.87.85-1,1.27-2.25,2.07-3.25s2.1-1.74,2.83-2.87c2.35-3.61,4.39-7.43,6.37-11.26,1.48-2.86,2.37-6,4-8.79,1.18-2.05,3-3.63,4.32-5.61,2.39-3.72,4.27-7.73,6.63-11.45.5-.79,1.49-1.19,1.93-2,2-3.72,3.37-7.81,5.46-11.5a33.72,33.72,0,0,1,4.84-6.7c.27-.28.57.56.93.67a2.23,2.23,0,0,0,1.28,0c.37-.11.61-.87.94-.68.72.44,1,1.37,1.43,2.09,2.5,4.07,5.11,8.08,7.39,12.27,3.53,6.48,6.48,13.27,10,19.74,1.48,2.7,4.24,4.78,5,7.75.34,1.33-1.63,2.27-2.07,3.57a3.38,3.38,0,0,0,0,2.54,29,29,0,0,0,4.09,5.47,22.6,22.6,0,0,0,3.64,3.48,1.22,1.22,0,0,0,1.31.15c1.52-1.1,2.51-2.82,4-4a47.41,47.41,0,0,1,7.35-4.89c3.28-1.71,7.11-2.3,10.27-4.23,4.24-2.6,7.45-6.67,11.73-9.22,4-2.36,8.55-3.46,12.75-5.37a49.45,49.45,0,0,0,7.25-3.7c5.08-3.41,9.87-7.22,14.67-11,1.45-1.15,2.39-3,4-3.78.58-.28,1.55.33,1.71,1a96.3,96.3,0,0,1,2.55,16.53,143.89,143.89,0,0,1,0,23.21c-.57,5.71-2.81,11.13-4,16.74a98.14,98.14,0,0,0-2.1,12.61,123.74,123.74,0,0,0,0,15.88c0,.87.88,1.55,1,2.41a12.94,12.94,0,0,1,0,3.78c-.51,4-.76,8.07-2,11.88-.45,1.34-2.22,1.83-3,3-1,1.57-.69,4-2.16,5.11-1.15.89-2.92.13-4.35-.08-1.89-.27-3.69-1-5.58-1.35-14.72-2.46-29.51-4.52-44.24-7a11.44,11.44,0,0,1-3.56-1c-1.22-.64-3-1.21-3.22-2.57-.26-2,1.54-3.68,2.11-5.59a1.8,1.8,0,0,0,0-1.33,3.51,3.51,0,0,0-1.61-1.62,3.78,3.78,0,0,0-2.55,0,49.93,49.93,0,0,0-10.21,4.67c-.54.36-.08,1.31.08,1.93.21.85.92,1.55,1,2.41.19,1.63.81,3.6-.16,4.92-3.84,5.2-9.39,8.92-13.62,13.8-1.33,1.54-1.85,3.64-3,5.34-2.73,4.16-5.44,8.35-8.56,12.23-2,2.51-4.66,4.46-6.81,6.87a39.85,39.85,0,0,0-3.67,4.9c-1.11,1.7-1.75,3.7-3,5.33a11.17,11.17,0,0,1-3.38,3.26,3.61,3.61,0,0,1-2.51,0c-.46-.1-.7-.69-1.15-.84a1.67,1.67,0,0,0-1.3,0l-2.38,2h0a38.31,38.31,0,0,1-3.43-3.18c-.83-1-1.23-2.27-2.07-3.25-1.62-1.89-3.62-3.43-5.26-5.3a42.55,42.55,0,0,1-3.67-4.9c-1.11-1.71-1.82-3.65-3-5.34a110.88,110.88,0,0,0-7.33-9.79c-2.48-2.88-5.49-5.26-8-8.08a39.85,39.85,0,0,1-3.67-4.9c-1.1-1.71-1.75-3.7-3-5.34a24.32,24.32,0,0,0-3.8-3.79c-1.15-1-3.23-1.23-3.71-2.68A16.37,16.37,0,0,1,1175.1,424.15Z"/><path d="M1266,220.42c1-.92,2.38-1.53,2.88-2.77.32-.8-.82-1.61-.78-2.48s.86-1.57,1-2.45a25.93,25.93,0,0,0,0-6.1c-.1-.87-.81-1.57-1-2.41a6.3,6.3,0,0,1-.16-2.48c.21-1.27,1.05-2.39,1.18-3.67a47.07,47.07,0,0,0,0-7.32,3.72,3.72,0,0,0-.37-1.61c-.45-.85-.75-2.16-1.7-2.32s-1.69.9-1.81,1.72a166.22,166.22,0,0,0-2,24.19c0,2.44,1.16,4.76,2,7.05Z"/><path d="M1273,565.68c1.36-4.2,1.83-8.64,3.12-12.86a2.22,2.22,0,0,1,1.2-1.19c1.85-.88,3.89-1.31,5.76-2.14a.77.77,0,0,0,.46-.6,2.44,2.44,0,0,0-.39-1.67,1.3,1.3,0,0,0-1.25-.16c-2,.55-4.25,3.45-5.83,2.11-2.3-1.95-1.23-5.92-2.09-8.82-.07-.26-.4-.6-.65-.49a3.64,3.64,0,0,0-1.9,1.61c-1.05,2.26-.89,5-2.18,7.17a4.93,4.93,0,0,1-3.21,1.84c-.48.11-.73-.82-1.22-.82-.86,0-1.58.83-2.45.84s-1.62-.94-2.47-.78-1.25.91-1.65,1.55a1.28,1.28,0,0,0-.15,1.31c.77,1.12,1.64,2.6,3,2.78,1,.15,1.41-1.76,2.44-2a12.69,12.69,0,0,1,5,0c.24,0,.3.45.26.69-.52,3.21-1.7,6.31-1.93,9.54,0,.75.59,1.43,1.12,2a10.79,10.79,0,0,0,2.94,2.07l.58-.37h0C1271.94,566.7,1272.75,566.37,1273,565.68Z"/><path d="M1136.38,619a4.85,4.85,0,0,0,2.51,0c.86-.18,1.55-1,2.42-1a74.66,74.66,0,0,1,11,0c.87.06,1.57.91,2.45,1,.47,0,.73-.64,1.18-.79a2.76,2.76,0,0,1,1.34,0c3.24.61,6.38,1.69,9.65,2.08.5.06.78-.78,1.27-.77l2.44.82h0c1.83-.43,3.64-1,5.51-1.31,8.13-1.22,16.32-2,24.45-3.19,1.84-.28,3.59-1.2,5.45-1.25.89,0,1.6.89,2.49,1a31.19,31.19,0,0,0,6.11,0c7.33-.59,14.59-1.89,21.92-2.28,1.31-.07,2.53,1.07,3.83.9,4.92-.66,9.6-2.61,14.51-3.34.87-.13,1.64.84,2.52.81s1.57-.95,2.45-.94c1.29,0,2.45,1.1,3.74,1,4.88-.29,9.64-1.74,14.51-2.12.88-.06,1.64.81,2.52.82.48,0,.74-.64,1.19-.78a2.18,2.18,0,0,1,1.29,0c.84.22,1.56.85,2.42,1a5.74,5.74,0,0,0,2.47-.16c.46-.12.72-.81,1.19-.79.87,0,1.57.94,2.45.94s1.57-.94,2.44-.94,1.58.88,2.45.95a67.59,67.59,0,0,0,8.54,0c26.88-1,53.74-2.67,80.63-3.46.9,0,1.61.92,2.5,1a26.84,26.84,0,0,0,6.14-.16c.86-.12,1.54-1,2.41-1s1.57.94,2.45.94,1.57-.89,2.45-1a47.76,47.76,0,0,1,8.54,0c.89.08,1.61,1.14,2.49,1,1.35-.24,2.23-1.75,3.56-2a20.3,20.3,0,0,1,6.18-.16c1.27.11,2.42,1.06,3.7,1,.41,0,.66-.84.41-1.17a6.45,6.45,0,0,0-2.82-2.12,4.52,4.52,0,0,0-2.55,0c-.46.1-.71.82-1.19.8-.87,0-1.56-1-2.43-.94-6.56.42-13,2-19.57,2.37-.89.05-1.6-1-2.49-1-11.39.34-22.74,1.67-34.12,2.07-.52,0-.81-.88-1.33-.84-5.29.38-10.49,1.68-15.78,2.06-.5,0-.76-.72-1.25-.85a9.27,9.27,0,0,0-2.47-.18c-11.82,0-23.64-.31-35.45,0-.87,0-1.56.81-2.41,1a10.29,10.29,0,0,1-2.48.18,18.29,18.29,0,0,1-3.7-.18c-.47-.1-.68-.85-1.16-.85-.86,0-1.58.83-2.44.84s-1.61-.82-2.48-.79-1.58.82-2.45,1a5.9,5.9,0,0,1-2.47-.16c-.46-.13-.68-.85-1.15-.85-1.28,0-2.46.84-3.74.84-.47,0-.71-.69-1.16-.84a2,2,0,0,0-1.28,0c-.45.16-.7.72-1.16.85a9.78,9.78,0,0,1-2.48.18c-5.29.05-10.59.26-15.88,0-.88,0-1.58-.94-2.45-1-.36,0-.26.79-.61.89a128.47,128.47,0,0,1-15.2,3.58c-.9.14-1.68-.91-2.58-.86-8.15.42-16.24,1.7-24.39,2.25a30.11,30.11,0,0,1-6.15-.18c-.49-.07-.74-.9-1.23-.84-6.13.76-12.11,2.49-18.24,3.27-.49.06-.77-.77-1.27-.78s-.75.74-1.22.73-.74-.64-1.19-.79a2.5,2.5,0,0,0-1.33,0c-4.49,1.05-8.78,3.29-13.38,3.48s-8.91-2-13.45-2.41a73.24,73.24,0,0,0-14.73.15,12.3,12.3,0,0,0-5.3,2.29C1135.62,618.14,1136,618.82,1136.38,619Z"/><path d="M1415.53,641.79c.27-1,.85-2.35.11-3.06-1.6-1.55-4.16-1.62-6.1-2.71-.88-.5-2.6-1.06-2.26-2,.72-2,3.54-2.6,4.58-4.46a4.57,4.57,0,0,0,0-3.73c-.21-.54-1.07-.5-1.65-.56a3.9,3.9,0,0,0-2.47.16c-1.3.87-1.91,2.52-3.08,3.55s-3.12.92-3.5,2.26c-.3,1,1.93,1.34,2.17,2.39s-1.06,2.18-.88,3.3a7.44,7.44,0,0,0,1.92,3.22c.61.77,1.24,1.71,2.18,2,.7.19,1.32-1,2-.82,1.16.35,1.67,1.93,2.83,2.27l3.06-.57h0C1414.8,642.6,1415.38,642.31,1415.53,641.79Z"/><path d="M1230.9,217.35a1.08,1.08,0,0,0,.82.69l1.62-.19h0c2.72-1.85,5.23-4,8.16-5.55,1-.5,2.45.43,3.25-.31a43.14,43.14,0,0,0,7-9,1.84,1.84,0,0,0-.2-1.64,5.47,5.47,0,0,0-1.71-2.32c-.32-.2-.61.76-1,.62-1-.39-1.42-2-2.48-2-2.12,0-3.93,1.64-6,2.08-.56.12-2,0-1.66-.44,2.06-2.91,5.1-5,7.44-7.72a16,16,0,0,0,3.14-4.48,7,7,0,0,0,0-3.73,2.52,2.52,0,0,0-1.06-1.76,29.15,29.15,0,0,0-6.63-2.32,5.57,5.57,0,0,0-2.6,0,35,35,0,0,0-6,2c-1.49.67-3.93.91-4.21,2.52-1.23,7.11-.42,14.45,0,21.64A72.69,72.69,0,0,0,1230.9,217.35Zm10.56-14.83a2.06,2.06,0,0,1,1.88.43,6.21,6.21,0,0,1,2.28,2.41,2.24,2.24,0,0,1-.42,1.85,4.89,4.89,0,0,1-1.61,1.59l-9.36,5.5a25.16,25.16,0,0,1-.64-4c0-1-.11-2.34.64-3.07A25.58,25.58,0,0,1,1241.46,202.52ZM1232.55,187a5.23,5.23,0,0,1,2-2.15c1-.77,2-1.94,3.29-1.91,1.58.05,2.94,1.24,4.23,2.14a9.76,9.76,0,0,1,2.32,2.39.69.69,0,0,1,0,.78l-9.86,12.45h0c-.68-3.31-1.55-6.58-2-9.92A8.18,8.18,0,0,1,1232.55,187Z"/><path d="M970.6,677.24c.14-.56.17-1.51-.38-1.68a9.39,9.39,0,0,0-5,0,3.64,3.64,0,0,0-2.63,1.93c-.23.63.8,1.2,1.44,1.39a10.38,10.38,0,0,0,3.69.17l1.79-.57h0C969.88,678.05,970.48,677.76,970.6,677.24Z"/><path d="M714.46,639.06c-.21-.16-.52.28-.61.54a41.44,41.44,0,0,0-2,7,28.35,28.35,0,0,0-.14,6.18,3.8,3.8,0,0,0,.59,1.81,2.14,2.14,0,0,0,1.19,1.05l1.68-.36h0a16.75,16.75,0,0,0,1.39-3.72,56.75,56.75,0,0,0,0-8.55,3.72,3.72,0,0,0-.37-1.61A6.89,6.89,0,0,0,714.46,639.06Z"/><path d="M697.62,663.12l16.16-.28h0c6.41-1.05,12.78-2.43,19.23-3.17.52-.06.8.87,1.32.83,9.39-.84,18.7-2.44,28.07-3.45a6.83,6.83,0,0,1,2.47.16c.48.13.75.93,1.24.84,2.11-.41,3.94-1.92,6.07-2.22a44.33,44.33,0,0,1,9.77,0c.87.07,1.57.81,2.41,1a10.29,10.29,0,0,0,2.48.18,19,19,0,0,0,3.7-.18c.47-.09.71-.79,1.19-.8s.74.64,1.19.79a2.72,2.72,0,0,0,1.33,0c3.66-.67,7.24-1.84,10.93-2.26a42.86,42.86,0,0,1,8.55,0c1.29.1,2.45,1.15,3.74,1,3.31-.31,6.4-2,9.71-2.27a99.63,99.63,0,0,1,14.66,0c.87,0,1.57.92,2.45,1,.5,0,.78-.83,1.27-.78,3.67.4,7.2,1.75,10.87,2.09.88.07,1.63-.73,2.49-.88a21.8,21.8,0,0,1,3.7-.18c8.15-.05,16.3-.3,24.44,0,.88,0,1.55,1,2.42,1,1.28,0,2.43-.94,3.7-1a107.62,107.62,0,0,1,13.44,0c.9,0,1.6,1.07,2.5,1,3.68-.29,7.19-1.84,10.87-2.08,1.69-.11,3.28.92,5,1.06a28,28,0,0,0,6.14-.19c.5-.06.75-.9,1.24-.83,2.9.36,5.6,2.16,8.51,2.07,12.28-.38,24.43-2.58,36.68-3.48a31.51,31.51,0,0,1,8.57.16c1,.21,1.47,1.56,2.38,2.07a1.39,1.39,0,0,0,1.3,0,4.57,4.57,0,0,0,1.61-1.6,1.67,1.67,0,0,0,.15-1.26,5.67,5.67,0,0,0-1.21-2.44,2.29,2.29,0,0,0-1.81-.57c-1.28.13-2.4,1-3.67,1.16a6,6,0,0,1-2.47-.16c-.49-.13-.75-.9-1.24-.84-7,.82-13.75,2.91-20.74,3.44a214.09,214.09,0,0,1-24.43,0c-.88,0-1.55-1-2.42-1-1.28,0-2.43.88-3.71,1a28.93,28.93,0,0,1-6.1,0c-1.29-.13-2.45-1.13-3.75-1-3.68.27-7.2,1.7-10.87,2.09-.49.05-.77-.77-1.27-.78s-.75.74-1.23.73-.73-.64-1.19-.79a2.15,2.15,0,0,0-1.28,0c-.48.16-.75.86-1.25.84-13-.39-26-1.73-39-2.06-.9,0-1.61.93-2.5,1a47.88,47.88,0,0,1-8.55,0c-.87-.07-1.58-.92-2.45-1-.48,0-.72.72-1.19.79a17.64,17.64,0,0,1-4.92.16c-1.28-.15-2.39-1.07-3.67-1.18a58,58,0,0,0-9.77,0c-.88.07-1.57.91-2.45,1-.5,0-.78-.81-1.28-.79-8.48.43-17,1.29-25.41,2.14-2.5.26-4.94,1.09-7.46,1.17-.88,0-1.64-.8-2.52-.81-.48,0-.72.7-1.19.79a18.3,18.3,0,0,1-3.7.19,9.82,9.82,0,0,1-2.48-.19c-.85-.2-1.54-.94-2.41-1a44.33,44.33,0,0,0-9.77,0c-2.13.3-4,1.8-6.07,2.22-.49.1-.78-.76-1.27-.77s-.75.75-1.22.73-.74-.64-1.19-.78a2.61,2.61,0,0,0-1.33,0c-3.26.66-6.43,1.75-9.71,2.26a10.9,10.9,0,0,1-3.69-.16c-.86-.16-1.54-1-2.41-1s-1.58.9-2.45.94c-.48,0-.74-.64-1.19-.79a3,3,0,0,0-1.33,0c-8.93,1.45-17.8,3.24-26.74,4.57a19.17,19.17,0,0,1-5,.14c-.89-.1-1.6-1.08-2.5-1a50.31,50.31,0,0,0-9.45,2c-.35.1-.84.57-.64.87A1.93,1.93,0,0,0,697.62,663.12Z"/><path d="M731.55,654.85c2.36-5.11,1.84-11.12,3-16.63.29-1.31,1.5-2.46,1.36-3.79s-1.32-3.93-2-3c-2.59,3.59-3,8.35-4.78,12.38a2.93,2.93,0,0,1-1.52,1.59c-.46.18-1-.75-1.41-.47a10.85,10.85,0,0,0-2.64,3.28,28.51,28.51,0,0,0-3.14,5.66,2.43,2.43,0,0,0,.43,1.87,2,2,0,0,0,1.2,1.07l4-.14h0C727.87,656.09,730.74,656.61,731.55,654.85Zm-7.46-2.06c-.47-.42,0-1.33.41-1.85.64-.9,1.37-2,2.45-2.22.56-.12.58,1,.59,1.59l-.53,2.85h0C726,653,724.83,653.43,724.09,652.79Z"/><path d="M822,633.51c-.45-.84-1.13-2-2.08-2a9.22,9.22,0,0,0-5.76,1.89c-1.26,1-.87,3.28-2,4.41a33.87,33.87,0,0,1-8.1,5.53,1.55,1.55,0,0,1-1.67-.38,1.11,1.11,0,0,1,0-1.29c1.08-1.5,2.67-2.57,3.83-4a11,11,0,0,0,1.92-3.22,4.86,4.86,0,0,0,0-2.54,1.22,1.22,0,0,0-.72-.85c-2.29-.84-4.61-2.23-7-2-2.84.27-5.49,1.8-7.85,3.42-.53.37-.2,1.36.09,1.94s.89,1.45,1.65,1.55,1.42-.6,2-1.08.95-2.17,1.87-2a4.73,4.73,0,0,1,3.83,2.8c.39,1.19-1.13,2.25-1.88,3.25s-2.11,1.62-2.61,2.79a8,8,0,0,0-.16,3.69c0,.58,0,1.48.56,1.65a9.81,9.81,0,0,0,5,0,14.16,14.16,0,0,0,4.17-2.16c1.09-.69,1.9-1.77,3-2.39a1.68,1.68,0,0,1,1.32,0,1.7,1.7,0,0,1,.88.75c.76,1.37.8,3.2,1.92,4.3a8.84,8.84,0,0,0,4.43,1.92l2.92-.38h0c.83-3.31,2.37-6.51,2.48-9.92C824,637.21,822.91,635.29,822,633.51Zm-2.34,10.07a11.42,11.42,0,0,1-1.44-1.76,2.83,2.83,0,0,1-.15-1.3,6.8,6.8,0,0,1,.16-2.47c.24-.61.82-1.82,1.35-1.43a5.2,5.2,0,0,1,2,3.91Z"/><path d="M458,193.59c.73.09,1.91-1.35,2.12-.65,1.78,6.07,1.92,12.51,3.19,18.71a11.44,11.44,0,0,0,1.54,4.29,7.25,7.25,0,0,0,2.93,2.08l.59-.38h0A24.69,24.69,0,0,1,471,214.4c1.1-1,2.63-1.4,3.74-2.37.92-.82,1.39-2.06,2.27-2.93.37-.38,1-.36,1.4-.74a54.72,54.72,0,0,0,5.07-5.79c1.63-2.18,3.44-4.33,4.37-6.89a7.91,7.91,0,0,0,0-5c-.49-1.57-1.24-3.72-2.86-4-6-1.15-12.31-.52-18.43,0a25.9,25.9,0,0,0-7.36,2.15,5.61,5.61,0,0,0-2.76,1.94c-.34.53.11,1.29.41,1.84S457.49,193.53,458,193.59Zm8.53-4.53a34.64,34.64,0,0,1,9.91,0,13.69,13.69,0,0,1,4.48,2,1.3,1.3,0,0,1,.77.88,27.59,27.59,0,0,1,0,7.43,7.5,7.5,0,0,1-1.93,3.22c-1.4,1.69-3.17,3-4.62,4.68-.34.38-.33,1-.7,1.36l-2.91,2.06h0c-.32-.24-.82-.33-.95-.7-1.61-4.62-2.56-9.45-4.19-14.06-.61-1.73-2.54-3.08-2.51-4.92C463.92,189.9,465.46,189.23,466.54,189.06Z"/><path d="M861.44,637.68c-.83-.27-1.63.64-2.49.77-.17,0-.37-.16-.41-.33-.13-.67-.44-1.47-.07-2,.8-1.22,2.52-1.65,3.29-2.89.25-.41-.72-.75-.72-1.23s.86-.76.73-1.22a2.84,2.84,0,0,0-1.55-1.64,2.18,2.18,0,0,0-1.63.19A10.21,10.21,0,0,0,855.7,631c-.85.75-1.28,1.89-2.08,2.69-.17.17-.48.11-.72.1a19.66,19.66,0,0,1-3.76-.15c-.46-.1-.67-.86-1.15-.85-1.09,0-2.15,1.32-3.15.89-1.4-.6-1.63-2.72-2.93-3.51a2.6,2.6,0,0,0-2.54.16c-1.88,1.19-2.68,4.23-4.87,4.55-1.62.23-2.18-2.55-3.63-3.31-.55-.3-1.29.11-1.84.41s-1,.67-1.06,1.19a24.81,24.81,0,0,0,0,7.4,2.25,2.25,0,0,0,1.62,1.62,3.63,3.63,0,0,0,3.09-.46c1.77-1.47,2-6.53,4.1-5.53,2.82,1.36,1.81,6,3,8.94a1.36,1.36,0,0,0,.84.71,1.69,1.69,0,0,0,1.29,0,6.22,6.22,0,0,0,2.1-2c1.21-1.89,1.67-4.22,3-6,.23-.31.57.56.94.67a2.11,2.11,0,0,0,1.29,0c.45-.15.7-.68,1.16-.83s1.18-.4,1.28,0c.23,1-.6,1.88-.6,2.85a2.91,2.91,0,0,0,.57,1.81,11.08,11.08,0,0,0,3.64,3.51l3-.41a49.23,49.23,0,0,0,3.54-6.07C862.05,638.84,862,637.85,861.44,637.68Z"/><path d="M933.55,678a3,3,0,0,0-2.9.4c-.59.59-.31,1.73,0,2.51a3.13,3.13,0,0,0,1.62,1.62,5,5,0,0,0,2.47.16l1.62-.54h0a5,5,0,0,0-.38-1.86A5.56,5.56,0,0,0,933.55,678Z"/><path d="M716.29,677a92.07,92.07,0,0,0-3.36,14.9,2.79,2.79,0,0,0,.57,1.81,2.62,2.62,0,0,0,1.23,1l.56-.35h0c.83-2.85,2.05-5.63,2.48-8.57a24.23,24.23,0,0,0-.17-7.36C717.49,677.75,716.51,676.36,716.29,677Z"/><path d="M838.59,671.12c.32-.48,0-1.25-.38-1.67s-.84-.21-1.26-.16a3.21,3.21,0,0,0-1.81.57,13.34,13.34,0,0,0-2.69,3.76,20.62,20.62,0,0,0-2.06,6,46,46,0,0,0-.14,8.63,3.23,3.23,0,0,0,.59,1.81,14.28,14.28,0,0,0,3.64,3.51,4.13,4.13,0,0,0,2.47.16l1.8-.58h0a38.23,38.23,0,0,0,2.32-4.83,4.29,4.29,0,0,0,0-2.58,7.37,7.37,0,0,0-2-3.32c-1.47-1.23-3.92-1.14-5.12-2.65-.55-.7.82-1.61,1-2.49.24-1.06-.25-2.32.31-3.25C836,672.72,837.79,672.35,838.59,671.12Zm-2.89,13a2.84,2.84,0,0,1,2.89.38,2.25,2.25,0,0,1,0,2.51l-1.63.39h0c-.55-.54-1.37-.9-1.64-1.61C835.11,685.25,835.17,684.32,835.7,684.12Z"/><path d="M951.05,679.68a1.43,1.43,0,0,0,0-1.29,4.29,4.29,0,0,0-1.61-1.61,1.4,1.4,0,0,0-1.29,0,4.29,4.29,0,0,0-1.61,1.61,1.43,1.43,0,0,0,0,1.29,4.36,4.36,0,0,0,1.61,1.61h1.25A8.36,8.36,0,0,0,951.05,679.68Z"/><path d="M859.4,693a67,67,0,0,0-2-9.43c-.29-.83-1.41-1.12-1.84-1.89-1.24-2.21-2.86-4.41-3.11-6.93-.15-1.38,1.91-2.25,2-3.64.07-.76-.92-1.28-1.58-1.67a1.61,1.61,0,0,0-1.29,0,1.51,1.51,0,0,0-.88.76c-2,4.61-3.47,9.41-5.42,14-.75,1.77-2.12,3.27-2.67,5.11a5.86,5.86,0,0,0,0,3.77c.21.53,1.11.5,1.67.39a3,3,0,0,0,1.8-1.07c1-1.44,1.13-3.56,2.44-4.78a2.05,2.05,0,0,1,2.63.06c2,2.53,2.65,6,4.41,8.7l1.67.79h0a20.47,20.47,0,0,0,2.12-2.83A2.14,2.14,0,0,0,859.4,693Z"/><polygon points="858.3 645.44 858.3 645.44 858.3 645.44 858.3 645.44"/><path d="M921,647.52c1.24-2.53,1.71-5.4,3-7.88,1.11-2,2.52-7,4.23-5.45,2.82,2.53.91,7.6,2.16,11.19.21.61,1.25.43,1.9.45a.43.43,0,0,0,.38-.38,45.25,45.25,0,0,0,.17-7.36c-.07-.87-.82-1.57-1-2.42-.25-1.06.26-2.31-.3-3.25s-1.77-2.42-2.9-2.06c-2,.64-3.41,2.7-4.66,4.45-1.72,2.38-1.5,9-4.16,7.78-3.47-1.65-1.62-7.53-2.92-11.14-.12-.33-.89.15-.93.5a29.41,29.41,0,0,0,0,7.44,50.57,50.57,0,0,0,2.38,10.22l1.08-.5h0C919.94,648.58,920.66,648.19,921,647.52Z"/><path d="M838.77,231c.35.55,1.2.61,1.86.63l2.86-.54h0a20.83,20.83,0,0,0,1.22-2.46,2.16,2.16,0,0,0,0-1.33c-1-2.89-3-5.47-3.47-8.5-.7-4.42-.29-9,0-13.43.06-.87.86-1.56,1-2.42a13.82,13.82,0,0,0,.17-3.69,3.31,3.31,0,0,0-.59-1.82c-.46-.55-1.57-1.78-1.85-1.11a53.26,53.26,0,0,0-3.5,13.85,63.19,63.19,0,0,0-.14,14.74A14.7,14.7,0,0,0,838.77,231Z"/><path d="M857.7,211.93c1.25.26,2.43-.87,3.71-1s2.61-.42,3.69.17a8.71,8.71,0,0,1,4,4.06c.43,1.07-.4,2.36-1.12,3.25a20.55,20.55,0,0,1-4.53,3.82c-1.09.76-2.82.71-3.57,1.82-.36.55.82,1.12,1.44,1.35a5.41,5.41,0,0,0,2.47.16l1.65-.53h0a5.89,5.89,0,0,1,.79-1.87c1.72-1.82,4-3,5.63-4.95a13.94,13.94,0,0,0,2.15-4.16,1.85,1.85,0,0,0,0-1.37c-.54-1.21-.91-2.77-2.09-3.38-3.44-1.76-7.44-2.09-11.09-3.35-.15-.06,0-.36,0-.49a98.61,98.61,0,0,1,5.63-8.22c1.89-2.33,4.51-4,6.27-6.46a1.36,1.36,0,0,0-.38-1.66c-.44-.33-1.13,0-1.63.18a7.37,7.37,0,0,0-3.06,1.86c-3.5,4.36-6.08,9.39-9.5,13.81-.9,1.17-2.59,1.61-3.38,2.86-.33.53.06,1.32.41,1.84C855.91,210.56,856.62,211.7,857.7,211.93Z"/><path d="M800.22,230.29a13.72,13.72,0,0,0,5,0c.47-.06.71-.79,1.19-.79s.72.68,1.18.78l1.63-.18h0a25.47,25.47,0,0,1,3.23-1.89c.65-.27,1.45,0,2.08-.29a11,11,0,0,0,3.54-2.42,9.46,9.46,0,0,0,2.23-4.11,14,14,0,0,0,0-6.22c-.14-.56-1.07-.5-1.64-.56a6.22,6.22,0,0,0-2.51.15c-1.68.55-3.56,1-4.79,2.26a3,3,0,0,0-.46,3.1c.57,1.25,3,1.31,3.13,2.68s-1.63,1.92-2.67,2.6a1.46,1.46,0,0,1-1.32,0,31.89,31.89,0,0,1-5.66-3.14c-.55-.4-.6-1.26-1.09-1.74-.8-.8-2.11-1.08-2.7-2-1.06-1.73-2.28-3.71-2.06-5.73.33-3.06,2-5.9,3.59-8.52a14.54,14.54,0,0,1,4.61-4.59c1.81-1.1,4.78-.21,6.06-1.9.74-1-1.5-2.64-2.73-2.5-2.55.27-4.79,2-6.84,3.54a15.7,15.7,0,0,0-3.81,4.53,26.69,26.69,0,0,0-2.42,5.87c-1.24,4-3.18,7.94-3.21,12.12,0,2.53,1.63,4.87,3.11,6.92A6,6,0,0,0,800.22,230.29Z"/><path d="M1157.64,680.79a33,33,0,0,0-2.32-6.54c-.17-.31-1,.11-1,.47,0,1.29,1,2.5.85,3.78-.28,2.48-1.54,4.75-2.11,7.18a10.12,10.12,0,0,0-.16,2.52,6.05,6.05,0,0,0,.18,2.48,3.69,3.69,0,0,0,1.66,1.56l.54-.35h0c.35-.41,1-.7,1-1.24s-.64-.74-.79-1.19a2.41,2.41,0,0,1,0-1.33c.58-2,1.52-3.94,2.11-6A2.59,2.59,0,0,0,1157.64,680.79Z"/><path d="M1251.92,683.31c.28.31.51.74.91.88a35.47,35.47,0,0,0,7,2c.49.07.77-.8,1.27-.78.89,0,1.66,1.23,2.5.94a4.13,4.13,0,0,0,2.6-2.66c.2-.79-.68-1.63-1.4-2a3.85,3.85,0,0,0-2.51,0c-.48.1-.77,1-1.23.82a17.49,17.49,0,0,1-5.29-3.28c-.29-.25,0-.8.21-1.14,1.34-2.37,3.17-4.45,4.34-6.91a4.79,4.79,0,0,0,.15-2.5c-.06-.58,0-1.44-.56-1.65a6.14,6.14,0,0,0-3.77,0c-1.32.37-2.29,1.53-3.53,2.11a2.27,2.27,0,0,1-1.29.13c-1.26-.22-2.47-1.35-3.7-1a4.54,4.54,0,0,0-2.78,2.86c-.28.82,1.06,1.57.94,2.44-.33,2.51-1.87,4.76-2.24,7.26a46.05,46.05,0,0,0-.15,8.63c0,.57,0,1.37.56,1.63l1.83-.39h0c.78-4.46,1.68-8.9,2.33-13.39.2-1.43-.71-3.24.23-4.35,1.25-1.48,3.49-1.75,5.35-2.28a3.4,3.4,0,0,1,2.55,0,1.54,1.54,0,0,1,.4,1.71,9,9,0,0,1-1.91,3.22c-1.13,1.26-3,1.81-3.86,3.27-.36.62.8,1.28.82,2,0,.48-.78.76-.74,1.23S1251.57,682.92,1251.92,683.31Z"/><path d="M1279.06,679.92c-1.46-1.24-3.79-1.25-5.12-2.64-.59-.62-.06-1.73.16-2.56.13-.46.7-.7.86-1.15.24-.65-.1-1.48.31-2,.88-1.17,2.54-1.63,3.35-2.86.31-.47,0-1.24-.39-1.67a1.3,1.3,0,0,0-1.25-.15,5.44,5.44,0,0,0-2.45,1.18,9.7,9.7,0,0,0-2.25,3.5c-1.37,3.84-2.85,7.73-3.21,11.78-.14,1.54,1.06,2.92,1.8,4.28s1.2,2.76,2.41,3.48c1.06.64,2.46.25,3.69.17l1.65-.54h0c.81-2.46,2.34-4.79,2.45-7.38C1281.12,682,1280.07,680.78,1279.06,679.92Zm-1.67,5.86c-.06.28-.64.2-.83,0l-.36-1.25h0a21.54,21.54,0,0,1-2-2.45c-.08-.15.17-.4.34-.4,1,0,2.34-.42,2.9.37C1278.11,683.07,1277.66,684.57,1277.39,685.78Z"/><path d="M753,430.27c0,.86-.67,1.61-.79,2.47,0,.23.2.42.37.58a9.72,9.72,0,0,0,2.44,2.23c.34.16.64-.83,1-.62,1.14.79,1.36,3.4,2.72,3.15,2.18-.4,3.06-3.22,4.84-4.53a1.39,1.39,0,0,1,1.33,0c7.17,3.23,14.29,6.59,21.28,10.21,5.74,3,11.1,6.65,16.88,9.55,3.32,1.67,7,2.59,10.36,4.12s6.59,3.16,9.75,5a70.31,70.31,0,0,1,7.29,4.84c2.8,2.13,5.28,4.68,8.09,6.81a84.12,84.12,0,0,0,7.33,4.89c2.53,1.51,5.29,2.62,7.79,4.19.78.48,1.23,1.41,2,1.92,1.69,1.13,3.64,1.83,5.33,3,.77.52,1.23,1.42,2,1.93,1.69,1.13,3.66,1.81,5.34,3a18,18,0,0,1,4.54,3.86c.54.75-.32,2,.25,2.77.89,1.16,2.61,1.4,3.7,2.37,1.53,1.38,2.27,3.66,4.08,4.62,1.45.77,3.29.26,4.92.16l1.79-.56h0c.77-.82,2-1.37,2.31-2.44a16.66,16.66,0,0,0,.17-6.14,3.3,3.3,0,0,0-.94-2.15c-1-.88-3.15-.53-3.63-1.79-.42-1.09,1.05-2.12,1.79-3a26.48,26.48,0,0,1,3.78-3.78c2.9-2.36,6.13-4.29,9-6.64a30.08,30.08,0,0,0,3.79-3.78c1.14-1.33,1.85-3,3.08-4.25.91-.91,2.28-1.23,3.26-2.07,1.89-1.62,3.37-3.69,5.3-5.27,2.45-2,5.41-3.34,7.8-5.41,5-4.31,9.2-9.45,14.25-13.67.53-.44,1.39-.1,2,.06.85.2,1.55.88,2.42,1a13.52,13.52,0,0,0,3.65,0,4.16,4.16,0,0,0,1.82-.59c.44-.29,1-.7,1-1.23,0-.87-1-1.57-.94-2.44,0-1.28,1.1-2.39,1.14-3.67,0-.78-.2-1.84-.92-2.14-3.69-1.55-7.94-1.48-11.59-3.1a96.17,96.17,0,0,1-14.56-8.46c-5.36-3.6-10.07-8.12-15.44-11.71-4.43-2.95-9.48-4.9-13.9-7.85-1.73-1.15-2.84-3-4.43-4.37-.87-.72-2.06-1-2.91-1.74a30.73,30.73,0,0,1-5.69-5.82c-.61-.91.12-2.26-.31-3.27s-1.73-1.74-2.29-2.82a1.53,1.53,0,0,1,.15-1.31c.32-.6,1-.91,1.34-1.52a10.58,10.58,0,0,0,.9-3.22c1.74-15.83,2.76-31.74,4.69-47.56a38.81,38.81,0,0,1,2.29-9.58c.48-1.2,2.22-1.61,2.64-2.84a6.57,6.57,0,0,0,0-5,6.83,6.83,0,0,0-4-2.85c-1.57-.53-3.3-.17-5-.17-.82,0-1.8-.31-2.47.18-1.66,1.2-2.62,3.15-4.09,4.58-.17.17-.47.11-.71.11a12.52,12.52,0,0,1-2.53-.16c-.86-.21-1.55-.95-2.42-1a63.73,63.73,0,0,0-9.77,0c-7.35.52-14.64,2.62-22,2.26-9.5-.46-18.71-3.42-28.12-4.72a18.82,18.82,0,0,0-5,.16c-7.33,1-14.56,2.72-21.93,3.49a34.59,34.59,0,0,1-9.8-.16c-1-.19-1.48-1.53-2.38-2.09a2.42,2.42,0,0,0-1.26-.16,20.44,20.44,0,0,0-4.95.15,7,7,0,0,0-3.19,1.9c-.93.94-2.38,2.13-2,3.4.69,2.47,2.88,4.28,4.67,6.12a2.34,2.34,0,0,0,1.84.6c.86-.08,1.56-.83,2.41-1s1.86-.53,2.51,0a117.35,117.35,0,0,1,11.61,11.46c.87.94,1.26,2.25,2.06,3.25.94,1.17,2.42,1.91,3.15,3.21,3,5.27,5.09,11,7.85,16.34a17.86,17.86,0,0,0,2.45,3.68c2.51,2.82,5.79,5,8,8.05,1.93,2.71,2.56,6.17,4.23,9.06,1.46,2.52,5.19,4.18,5.12,7.09,0,2-3.68,1.38-5.33,2.42a6.08,6.08,0,0,0-2.5,2.5c-.66,1.56.06,3.53-.73,5-.66,1.25-2.11,1.89-3.31,2.63-5.77,3.58-11.81,6.71-17.57,10.3q-7.48,4.66-14.67,9.78c-1,.74-1.67,2-2.8,2.61a3.92,3.92,0,0,1-2.47.17c-.86-.15-1.56-.86-2.41-1a8.91,8.91,0,0,0-3.7-.17,17.9,17.9,0,0,0-4.51,2.08,2,2,0,0,0-.81.93,2.09,2.09,0,0,0-.15,1.25C752.24,428.7,753,429.39,753,430.27Zm12.66-2.42c-.05-.24.19-.47.39-.61,2.26-1.59,4.69-2.92,6.93-4.54.74-.54,1.24-1.38,2-1.92,2.37-1.73,4.81-3.38,7.33-4.89,4.57-2.74,9.38-5.05,13.91-7.85,3.08-1.92,5.51-5,8.9-6.27,1.56-.6,3.25,1.2,4.92,1s3.06-1.29,4.52-2.08A10,10,0,0,0,817,399a25.58,25.58,0,0,0,3.32-4.16c.24-.37.43-1,.15-1.31-1-1.26-2.74-1.86-3.81-3.1-1.28-1.5-1.94-3.44-3.14-5-.91-1.2-2.38-1.94-3.15-3.23-1.7-2.83-2.67-6.05-4.18-9a9.43,9.43,0,0,0-1.67-2.39c-1.19-1.21-2.82-2-3.92-3.27a56.61,56.61,0,0,1-6.12-8.57c-2.53-4.46-4-9.47-6.63-13.89a61.87,61.87,0,0,0-7.31-9.75c-.84-.95-2.3-1.14-3.19-2s-1.23-2.25-2-3.23c-1.46-1.74-3.54-3-4.74-4.89-.52-.85-1.11-2.74-.15-3,9.75-2.57,19.85-3.54,29.84-4.83a33.18,33.18,0,0,1,8.62-.14c5.79.79,11.32,3.13,17.13,3.64,8.12.7,16.3.29,24.44,0,.87,0,1.57-.91,2.45-.95.47,0,.73.64,1.18.78a2.36,2.36,0,0,0,1.29,0c.84-.23,1.55-1,2.42-1,4.88-.29,9.77-.18,14.66,0a3,3,0,0,1,1.68.59c1.3,1,2.23,2.4,3.55,3.36,1.17.87,3.31.73,3.84,2.09,1,2.48.31,5.33.08,8-1.38,15.86-2.81,31.73-4.92,47.52a14.05,14.05,0,0,1-2,4.65c-.2.36-.52.83-.94.81-1.27,0-2.43-.86-3.7-1a8.5,8.5,0,0,0-3.69.17,3.28,3.28,0,0,0-1.61,1.61,1.46,1.46,0,0,0,0,1.29c.3.64,1.05,1,1.39,1.59,1.65,3,2.72,6.39,4.53,9.35.2.34.84.22,1.19,0,.72-.39,1-1.49,1.83-1.65a15.64,15.64,0,0,1,6.21,0A8,8,0,0,1,883,400c3.63,2.95,6.78,6.49,10.54,9.26,2.38,1.74,5.29,2.63,7.79,4.19q7.49,4.65,14.67,9.78c2.41,1.71,4.42,3.94,6.87,5.58,3.25,2.18,7,3.59,10.18,5.85a5,5,0,0,1,2.1,2.9c.24,1.27-1.09,2.5-.85,3.77.19,1,2.22,1.39,2,2.41-.3,1.53-2,2.4-3.18,3.41-1,.83-2.32,1.19-3.26,2.06-1.64,1.53-2.81,3.51-4.4,5.08a74.67,74.67,0,0,1-7,6.3c-2.06,1.59-4.65,2.46-6.58,4.19-6.25,5.63-11.62,12.19-17.87,17.81-1.92,1.73-4.71,2.35-6.54,4.17l-5.24,7.51h0c-2.88,0-6,1.07-8.65,0-4.43-1.74-8-5.25-11.81-8-.75-.54-1.21-1.43-2-1.92-5.75-3.6-11.91-6.54-17.56-10.3-2.93-2-5.28-4.7-8.1-6.81-2.08-1.56-4.46-2.68-6.58-4.2-.75-.53-1.18-1.46-2-1.92-3.94-2.25-8-4.25-12.14-6.15-3.39-1.55-7-2.52-10.37-4.19-4.95-2.49-9.5-5.72-14.43-8.26-5.16-2.65-10.61-4.73-15.8-7.31-2.48-1.23-5.21-2.21-7.21-4.12-.52-.5.79-1.28.81-2C766.44,428.6,765.78,428.32,765.7,427.85Z"/><path d="M958.35,633.23c.15-.65-1-.92-1.27-1.55-.88-2.31-1.11-4.84-2-7.14-.44-1.06-.89-3.09-2-2.8-1.6.42-2.25,2.53-2.82,4.08-.18.47.7.75.83,1.24a9.24,9.24,0,0,1,.18,2.47,9.34,9.34,0,0,1-.18,2.48c-.13.46-.85.68-.85,1.15,0,1.28.87,2.46.84,3.74,0,.87-.91,1.55-1,2.41a31.88,31.88,0,0,0,0,6.1,4.16,4.16,0,0,0,.59,1.82l1.17,1h0a7.18,7.18,0,0,0,2.53,0,2.76,2.76,0,0,0,1.63-1.63,8.2,8.2,0,0,0,0-3.72c-.08-.48-.69-.71-.85-1.16a2,2,0,0,1,0-1.33C956,638,957.76,635.81,958.35,633.23Z"/><path d="M836.06,556.5a3.06,3.06,0,0,1,1.29-1.28c2.12-1.15,4.47-1.86,6.6-3,.34-.19.82-.55.7-.92a3.33,3.33,0,0,0-1.55-1.64,1.7,1.7,0,0,0-1.33,0c-1.56.52-3.29,3.06-4.54,2-2.26-2-1.8-5.71-3-8.46-.17-.4-.6-1.06-1-.86a5.77,5.77,0,0,0-2.87,2.83c-.65,1.76.65,4-.27,5.62-.75,1.36-2.58,1.89-4.1,2.21-.87.19-1.64-.78-2.52-.8-.48,0-.75.73-1.22.73s-.8-.95-1.23-.73c-1.17.61-2.8,1.49-2.81,2.81a3.12,3.12,0,0,0,2.78,2.86c2.67-.1,4.82-2.33,7.33-3.27.19-.06.42.19.45.38a7.29,7.29,0,0,1,0,2.55c-.53,2.85-1.82,5.55-2.09,8.43a3,3,0,0,0,1.12,2.05,7.89,7.89,0,0,0,2.9,2.1l1.85-.4h0c.76-.82,2-1.37,2.3-2.44.24-.83-.7-1.6-.85-2.45a6.26,6.26,0,0,1,0-2.55A29.71,29.71,0,0,1,836.06,556.5Z"/><path d="M943.32,635.21a2.69,2.69,0,0,0-2.5,0c-.88.36-1.2,2.13-2.12,1.9-1.34-.35-1.46-2.58-2.73-3.14-.54-.24-.57,1.08-.6,1.68a39.33,39.33,0,0,0,.16,7.36,3.63,3.63,0,0,0,1.13,2,7.13,7.13,0,0,0,2.9,2.11l3.08-.42h0c1.18-2,2.53-3.95,3.53-6.06a1.55,1.55,0,0,0,0-1.36A11.5,11.5,0,0,0,943.32,635.21Zm.4,5.35-2.85,2.77h0c-.56-.51-1.44-.82-1.67-1.54a5.21,5.21,0,0,1,0-3.73c.25-.51,1.09.47,1.64.39s.74-.64,1.19-.78,1.07-.36,1.29,0A3.37,3.37,0,0,1,943.72,640.56Z"/><path d="M971.84,633.23c.52-1.12.25-2.47.16-3.69,0-.58,0-1.41-.56-1.65a3.78,3.78,0,0,0-3.25-.07c-1.34.76-1.82,2.51-2.93,3.57s-2.92,1.76-4,3c-.24.28.77.27.91.61.94,2.49,1.23,5.2,2.24,7.66a2.53,2.53,0,0,0,1.51,1.51c.86.22,1.77-.75,2.6-.45s1.12,1.88,2.09,2.16l3.8-.47h0c.79-1.42,3.24-2.87,2.38-4.25-1.24-2-4.5-1.37-6.57-2.45-.75-.4-2-1.07-1.71-1.89C969,635.28,971.13,634.71,971.84,633.23Z"/><path d="M697.59,621.39a4.71,4.71,0,0,0,2.5,0c.85-.17,1.54-1,2.41-1s1.58.9,2.45.94c.47,0,.71-.73,1.19-.8a27.42,27.42,0,0,1,6.14-.16c.87.09,1.54,1,2.41,1s1.65-.92,2.53-.83c3.28.33,6.4,1.67,9.68,2.05.49.06.77-.78,1.27-.78s.72.72,1.19.8l2.78-.14h0c4-1,7.84-2.44,11.87-3.15.49-.08.75.77,1.24.84a17.1,17.1,0,0,0,5,0c5.3-.83,10.44-2.62,15.77-3.3.89-.11,1.6.89,2.49,1a31.18,31.18,0,0,0,6.11,0c7.32-.59,14.59-1.86,21.92-2.29.88,0,1.63.73,2.49.89a7.05,7.05,0,0,0,2.55,0c4.48-.94,8.78-2.64,13.3-3.34.86-.14,1.61.85,2.48.86,1.28,0,2.46-.84,3.74-.84.47,0,.7.68,1.15.84a3,3,0,0,0,1.34,0c5.26-.63,10.47-1.7,15.76-2.09.49,0,.74.83,1.24.84.86,0,1.61-.79,2.48-.79.47,0,.72.68,1.19.8a6.43,6.43,0,0,0,2.47.16c1.27-.17,2.42-1,3.7-1,.48,0,.68.83,1.16.84.87,0,1.61-.82,2.48-.79s1.57.88,2.45,1a67.6,67.6,0,0,0,8.54,0c26.88-1,53.74-2.66,80.62-3.45.9,0,1.61.89,2.51,1a17.34,17.34,0,0,0,4.88,0c.86-.12,1.57-.81,2.41-1a11.42,11.42,0,0,1,2.48-.18c4.07,0,8.16-.24,12.22,0,1.28.08,2.44,1.23,3.71,1,1-.18,1.48-1.52,2.37-2.07a2.53,2.53,0,0,1,1.26-.16,34.56,34.56,0,0,1,4.88,0c1.27.15,2.44,1.21,3.71,1,.56-.09.58-1.13.38-1.67a2.86,2.86,0,0,0-1.61-1.61,4.26,4.26,0,0,0-2.5,0c-.47.1-.71.69-1.16.84a2.11,2.11,0,0,1-1.29,0c-.84-.22-1.54-1-2.41-1-6.12.37-12.14,1.85-18.26,2.25-.9.06-1.67-.9-2.57-.87-14,.43-28,1.32-42,2.23-3.09.2-6.14,1.17-9.23,1.08-9-.26-18-2.14-27-2.11-5.36,0-10.58,1.75-15.91,2.26a26.75,26.75,0,0,1-6.13-.17c-.47-.06-.68-.86-1.16-.84-1.28,0-2.43.86-3.7,1a19.92,19.92,0,0,1-4.88,0c-1.27-.14-2.43-.95-3.71-1-.47,0-.71.78-1.19.78s-.73-.64-1.19-.78a2.15,2.15,0,0,0-1.28,0c-.85.22-1.55,1-2.42,1q-9.15.45-18.33,0c-.87,0-1.57-.94-2.45-.95-.36,0-.26.81-.61.91a126,126,0,0,1-15.2,3.57c-.89.13-1.67-.91-2.57-.87-8.16.42-16.25,1.7-24.39,2.25a30.82,30.82,0,0,1-6.15-.17c-.49-.07-.74-.92-1.24-.85-5.32.76-10.47,2.49-15.79,3.27-.49.07-.77-.77-1.27-.78s-.75.75-1.22.73-.72-.71-1.19-.79a10.17,10.17,0,0,0-3.77,0c-2.07.43-3.91,1.71-6,2.08-.5.08-.8-.91-1.31-.81-2.12.4-3.92,2.23-6.08,2.21-4.55,0-8.9-2-13.44-2.41a64.22,64.22,0,0,0-13.51.15,12.67,12.67,0,0,0-5.3,2.29C696.82,620.58,697.23,621.27,697.59,621.39Z"/><path d="M1511.12,925.9c-.93,1.38-.22,3.22.23,4.83a26.55,26.55,0,0,1,.72,6.54q.17,7,0,14" fill="none" stroke="#000" stroke-linecap="round" stroke-miterlimit="10" stroke-width="0.5"/><path d="M1496.84,947.83a48.51,48.51,0,0,1,7.67,6.27,24.89,24.89,0,0,0-.58,8.1c.19,1.26.57,2.48.76,3.74a25.29,25.29,0,0,1,.21,4v15.3" fill="none" stroke="#000" stroke-linecap="round" stroke-miterlimit="10" stroke-width="0.5"/></svg>