<svg xmlns="http://www.w3.org/2000/svg" viewBox="0 0 963 195.57"><defs><style>.cls-1,.cls-5,.cls-6{fill:none;stroke-miterlimit:10;}.cls-1{stroke:#287bd9;stroke-width:6px;}.cls-2{fill:#287bd9;}.cls-3{fill-rule:evenodd;}.cls-4{fill:#fff;}.cls-5,.cls-6{stroke:#000;stroke-linecap:round;}.cls-5{stroke-width:6.26px;}.cls-6{stroke-width:4px;}</style></defs><g id="Layer_2" data-name="Layer 2"><g id="Layer_2-2" data-name="Layer 2"><line class="cls-1" y1="97.94" x2="941.47" y2="97.94"/><polygon class="cls-2" points="937.09 112.9 963 97.94 937.09 82.98 937.09 112.9"/></g><g id="draft"><polygon class="cls-3" points="66.8 173.98 66.8 164.09 76.45 164.09 76.25 132.36 76.25 61.88 85.73 61.88 85.73 54.05 108.39 54.05 108.39 61.88 119.11 61.88 119.11 112.98 122.82 112.98 122.82 55.28 138.48 55.28 138.48 34.67 148.38 34.67 147.96 23.55 167.33 23.55 167.33 101.86 170.63 101.86 170.63 68.06 175.16 68.06 175.16 54.05 187.53 21.9 200.72 54.05 200.72 68.06 206.49 68.06 206.49 129.06 208.96 129.06 208.96 82.48 216.79 82.48 216.79 69.71 228.75 69.71 228.75 42.09 231.63 42.09 231.63 69.71 242.35 69.71 242.35 82.48 252.24 82.48 252.24 128.65 252.35 164.09 259.2 164.09 259.2 173.57 66.8 173.98"/><polygon points="568.29 126.58 568.29 105.65 568.29 87.65 538.29 69.65 469.29 69.65 469.29 87.65 469.29 105.65 469.29 123.65 469.29 132.84 469.13 132.84 459.17 132.84 459.17 150.77 504.6 186.65 577.29 186.65 577.29 168.65 577.29 150.65 577.29 132.84 577.29 132.65 568.29 126.58"/><rect class="cls-4" x="516.5" y="174.16" width="5.8" height="13.25"/><rect class="cls-4" x="527.41" y="174.16" width="5.8" height="5.8"/><rect class="cls-4" x="538.33" y="174.16" width="5.8" height="5.8"/><rect class="cls-4" x="549.25" y="174.16" width="5.8" height="5.8"/><rect class="cls-4" x="560.17" y="174.16" width="5.8" height="5.8"/><rect class="cls-4" x="516.5" y="157.91" width="5.8" height="5.8"/><rect class="cls-4" x="527.41" y="157.91" width="5.8" height="5.8"/><rect class="cls-4" x="538.33" y="157.91" width="5.8" height="5.8"/><rect class="cls-4" x="549.25" y="157.91" width="5.8" height="5.8"/><rect class="cls-4" x="560.17" y="157.91" width="5.8" height="5.8"/><rect class="cls-4" x="506.91" y="113.65" width="5.8" height="5.8"/><rect class="cls-4" x="517.83" y="113.65" width="5.8" height="5.8"/><rect class="cls-4" x="528.75" y="113.65" width="5.8" height="5.8"/><rect class="cls-4" x="539.67" y="113.65" width="5.8" height="5.8"/><rect class="cls-4" x="550.59" y="113.65" width="5.8" height="5.8"/><rect class="cls-4" x="506.91" y="97.4" width="5.8" height="5.8"/><rect class="cls-4" x="517.83" y="97.4" width="5.8" height="5.8"/><rect class="cls-4" x="528.75" y="97.4" width="5.8" height="5.8"/><rect class="cls-4" x="539.67" y="97.4" width="5.8" height="5.8"/><rect class="cls-4" x="550.59" y="97.4" width="5.8" height="5.8"/><rect class="cls-4" x="516.5" y="140.62" width="5.8" height="5.8"/><rect class="cls-4" x="527.41" y="140.62" width="5.8" height="5.8"/><rect class="cls-4" x="538.33" y="140.62" width="5.8" height="5.8"/><rect class="cls-4" x="549.25" y="140.62" width="5.8" height="5.8"/><rect class="cls-4" x="560.17" y="140.62" width="5.8" height="5.8"/><path d="M533.37,83.64a3.19,3.19,0,0,1,.44,2.37A3.27,3.27,0,0,1,530,88.52L515.7,85.64a3.28,3.28,0,0,1-1.2-.51l-14.74-10c-1,.91-2.58,2.34-4.69,4.42-4.67,4.61-12.07,5.24-23.35,5.24l-3.16,0c-8.08,4.7-17.29,8.34-28.56,8.1l-17.79,17.56a3.29,3.29,0,0,1-4.61,0L388.32,81.63h0a3.19,3.19,0,0,1,0-4.55l46.74-46.14-9.36-6.39a9.12,9.12,0,0,1-1.83-12.38,8.71,8.71,0,0,1,12-2.18l14.5,9.89A28,28,0,0,1,463,19.36l6.21,1.1c10.49,1.86,16.83,3,22.94,4.57a3.09,3.09,0,0,1,.68.26,26.33,26.33,0,0,1,9.59,9.42c.88,1.48,2.66,4.12,4.71,7.18,7.43,11.06,13.68,20.63,14.84,25.76a3.08,3.08,0,0,1,.05,1.09l2.69,1.84a3.19,3.19,0,0,1,.9.93Zm-9.62-3-3.33-5.18L503.47,63.94a3.19,3.19,0,0,1-2.9,2.64c-.48,0-1,.15-1.45.24l18.54,12.64Zm-11.4-18.52c-3.05-5.33-7.55-12-10.69-16.72-2.2-3.27-3.94-5.86-4.91-7.5a20.32,20.32,0,0,0-6.72-6.8c-5.74-1.47-11.92-2.57-22-4.35l-6.22-1.1a24.17,24.17,0,0,0-3.4-.34Zm-18.09,9.15-2.55-1.74a109.86,109.86,0,0,0-11,7.17l-2,1.41c5.75-.29,9.67-1.1,11.81-3.21C492,73.43,493.25,72.24,494.26,71.32Zm.92-10.2c-4-3.89-11.82-2.44-22.58.12-9.21,2.2-17.92,4.28-23.3,0l-.25-.22a3.19,3.19,0,0,1,0-4.55L458.61,47l-18.1-12.35L395.24,79.34l24.66,24.21,16.49-16.27a3.3,3.3,0,0,1,2.46-.94c15.87.77,27.64-7.52,38-14.84C483.05,67.15,489,63,495.18,61.12Zm-16-7.92a53.76,53.76,0,0,1,7.25-.89l-54.27-37a2.2,2.2,0,0,0-2.92.53,2.93,2.93,0,0,0,.16,3.43l40,27.26Zm-8.66,1.92-4.87-3.32-1.57-1.08-6.65,6.56A61.08,61.08,0,0,0,470.51,55.12Z"/><path class="cls-4" d="M520.42,75.51l3.33,5.18-6.09-1.23L499.12,66.82c.49-.09,1-.2,1.45-.24a3.19,3.19,0,0,0,2.9-2.64Z"/><path class="cls-4" d="M501.66,45.45c3.14,4.68,7.64,11.39,10.69,16.72l-54-36.81a24.17,24.17,0,0,1,3.4.34L468,26.8c10.09,1.78,16.27,2.88,22,4.35a20.32,20.32,0,0,1,6.72,6.8C497.72,39.59,499.46,42.18,501.66,45.45Z"/><path class="cls-4" d="M491.71,69.58l2.55,1.74c-1,.92-2.27,2.11-3.8,3.63-2.14,2.11-6.06,2.92-11.81,3.21l2-1.41A109.86,109.86,0,0,1,491.71,69.58Z"/><path class="cls-4" d="M472.6,61.24c10.76-2.56,18.61-4,22.58-.12-6.22,1.87-12.13,6-18.31,10.38-10.38,7.32-22.15,15.61-38,14.84a3.3,3.3,0,0,0-2.46.94L419.9,103.55,395.24,79.34l45.27-44.69L458.61,47l-9.56,9.45a3.19,3.19,0,0,0,0,4.55l.25.22C454.68,65.52,463.39,63.44,472.6,61.24Z"/><path class="cls-4" d="M486.42,52.31a53.76,53.76,0,0,0-7.25.89l-9.82-6.7-40-27.26a2.93,2.93,0,0,1-.16-3.43,2.2,2.2,0,0,1,2.92-.53Z"/><path class="cls-4" d="M465.64,51.8l4.87,3.32a61.08,61.08,0,0,1-13.09,2.16l6.65-6.56Z"/><polygon points="785.26 73.53 785.26 64.81 785.26 57.3 772.75 49.8 743.98 49.8 743.98 57.3 743.98 64.81 743.98 72.31 743.98 76.14 743.92 76.14 739.76 76.14 739.76 83.62 758.7 98.57 789.01 98.57 789.01 91.07 789.01 83.57 789.01 76.14 789.01 76.06 785.26 73.53"/><rect class="cls-4" x="763.66" y="93.36" width="2.42" height="5.52"/><rect class="cls-4" x="768.21" y="93.36" width="2.42" height="2.42"/><rect class="cls-4" x="772.77" y="93.36" width="2.42" height="2.42"/><rect class="cls-4" x="777.32" y="93.36" width="2.42" height="2.42"/><rect class="cls-4" x="781.87" y="93.36" width="2.42" height="2.42"/><rect class="cls-4" x="763.66" y="86.59" width="2.42" height="2.42"/><rect class="cls-4" x="768.21" y="86.59" width="2.42" height="2.42"/><rect class="cls-4" x="772.77" y="86.59" width="2.42" height="2.42"/><rect class="cls-4" x="777.32" y="86.59" width="2.42" height="2.42"/><rect class="cls-4" x="781.87" y="86.59" width="2.42" height="2.42"/><rect class="cls-4" x="759.67" y="68.14" width="2.42" height="2.42"/><rect class="cls-4" x="764.22" y="68.14" width="2.42" height="2.42"/><rect class="cls-4" x="768.77" y="68.14" width="2.42" height="2.42"/><rect class="cls-4" x="773.32" y="68.14" width="2.42" height="2.42"/><rect class="cls-4" x="777.87" y="68.14" width="2.42" height="2.42"/><rect class="cls-4" x="759.67" y="61.37" width="2.42" height="2.42"/><rect class="cls-4" x="764.22" y="61.37" width="2.42" height="2.42"/><rect class="cls-4" x="768.77" y="61.37" width="2.42" height="2.42"/><rect class="cls-4" x="773.32" y="61.37" width="2.42" height="2.42"/><rect class="cls-4" x="777.87" y="61.37" width="2.42" height="2.42"/><rect class="cls-4" x="763.66" y="79.39" width="2.42" height="2.42"/><rect class="cls-4" x="768.21" y="79.39" width="2.42" height="2.42"/><rect class="cls-4" x="772.77" y="79.39" width="2.42" height="2.42"/><rect class="cls-4" x="777.32" y="79.39" width="2.42" height="2.42"/><rect class="cls-4" x="781.87" y="79.39" width="2.42" height="2.42"/><polygon points="862.03 148.71 862.03 139.98 862.03 132.48 849.52 124.97 820.75 124.97 820.75 132.48 820.75 139.98 820.75 147.49 820.75 151.32 820.69 151.32 816.53 151.32 816.53 158.79 835.48 173.75 865.78 173.75 865.78 166.25 865.78 158.74 865.78 151.32 865.78 151.24 862.03 148.71"/><rect class="cls-4" x="840.43" y="168.54" width="2.42" height="5.52"/><rect class="cls-4" x="844.99" y="168.54" width="2.42" height="2.42"/><rect class="cls-4" x="849.54" y="168.54" width="2.42" height="2.42"/><rect class="cls-4" x="854.09" y="168.54" width="2.42" height="2.42"/><rect class="cls-4" x="858.64" y="168.54" width="2.42" height="2.42"/><rect class="cls-4" x="840.43" y="161.77" width="2.42" height="2.42"/><rect class="cls-4" x="844.99" y="161.77" width="2.42" height="2.42"/><rect class="cls-4" x="849.54" y="161.77" width="2.42" height="2.42"/><rect class="cls-4" x="854.09" y="161.77" width="2.42" height="2.42"/><rect class="cls-4" x="858.64" y="161.77" width="2.42" height="2.42"/><rect class="cls-4" x="836.44" y="143.32" width="2.42" height="2.42"/><rect class="cls-4" x="840.99" y="143.32" width="2.42" height="2.42"/><rect class="cls-4" x="845.54" y="143.32" width="2.42" height="2.42"/><rect class="cls-4" x="850.09" y="143.32" width="2.42" height="2.42"/><rect class="cls-4" x="854.65" y="143.32" width="2.42" height="2.42"/><rect class="cls-4" x="836.44" y="136.54" width="2.42" height="2.42"/><rect class="cls-4" x="840.99" y="136.54" width="2.42" height="2.42"/><rect class="cls-4" x="845.54" y="136.54" width="2.42" height="2.42"/><rect class="cls-4" x="850.09" y="136.54" width="2.42" height="2.42"/><rect class="cls-4" x="854.65" y="136.54" width="2.42" height="2.42"/><rect class="cls-4" x="840.43" y="154.56" width="2.42" height="2.42"/><rect class="cls-4" x="844.99" y="154.56" width="2.42" height="2.42"/><rect class="cls-4" x="849.54" y="154.56" width="2.42" height="2.42"/><rect class="cls-4" x="854.09" y="154.56" width="2.42" height="2.42"/><rect class="cls-4" x="858.64" y="154.56" width="2.42" height="2.42"/><polygon class="cls-5" points="719.31 29.82 895.74 3.44 910.18 34.14 895.74 33.94 895.74 192.44 719.31 192.44 719.31 29.82"/><line class="cls-5" x1="719.31" y1="31.5" x2="910.18" y2="34.14"/><line class="cls-6" x1="758.93" y1="134.08" x2="802.7" y2="180.06"/><line class="cls-6" x1="842.85" y1="95.52" x2="810.25" y2="51.9"/><line class="cls-6" x1="731.64" y1="143.32" x2="876.91" y2="81.81"/><circle cx="855.86" cy="61.37" r="7.83"/><rect x="742.83" y="153.58" width="14.88" height="22.78"/><polygon points="858.95 115.1 878.19 115.1 869.15 100.59 858.95 115.1"/><polyline class="cls-5" points="719.31 153.58 700.21 153.58 719.31 192.44"/></g></g></svg>