<svg xmlns="http://www.w3.org/2000/svg" xmlns:xlink="http://www.w3.org/1999/xlink" viewBox="0 0 1920 640.56"><defs><style>.cls-1,.cls-12,.cls-24,.cls-25,.cls-6,.cls-9{fill:none;}.cls-1{stroke:#231f20;}.cls-1,.cls-6,.cls-9{stroke-width:2px;}.cls-2{font-size:36px;fill:#08192b;}.cls-15,.cls-2,.cls-20,.cls-23{font-family:HelveticaNeue-Bold, Helvetica Neue;}.cls-15,.cls-2,.cls-20,.cls-23,.cls-3{font-weight:700;}.cls-13,.cls-20,.cls-23,.cls-3,.cls-8{font-size:24px;}.cls-13,.cls-20,.cls-3,.cls-8{fill:#287bd9;}.cls-3{font-family:Helvetica-Bold, Helvetica;}.cls-4{letter-spacing:-0.07em;}.cls-5{font-family:Helvetica;}.cls-16,.cls-17,.cls-18,.cls-5{font-weight:400;}.cls-12,.cls-24,.cls-25,.cls-6,.cls-9{stroke-miterlimit:10;}.cls-6{stroke:url(#New_Gradient_Swatch_1);}.cls-7{fill:url(#New_Gradient_Swatch_1);}.cls-8{font-family:HelveticaNeue-Italic, Helvetica Neue;font-style:italic;}.cls-9{stroke:url(#New_Gradient_Swatch_1-3);}.cls-10{fill:url(#New_Gradient_Swatch_1-4);}.cls-11{letter-spacing:-0.05em;}.cls-12{stroke:#287bd9;}.cls-12,.cls-24{stroke-width:8px;}.cls-13,.cls-16,.cls-17,.cls-18{font-family:HelveticaNeue, Helvetica Neue;}.cls-14,.cls-17{letter-spacing:-0.02em;}.cls-16{letter-spacing:0em;}.cls-19{letter-spacing:-0.02em;}.cls-21{letter-spacing:-0.11em;}.cls-22{letter-spacing:0.02em;}.cls-23{fill:#d96c28;}.cls-24{stroke:#d96c28;}.cls-25{stroke:#08192b;}</style><linearGradient id="New_Gradient_Swatch_1" x1="118.32" y1="7.48" x2="1815.68" y2="7.48" gradientUnits="userSpaceOnUse"><stop offset="0" stop-color="#fff"/><stop offset="1" stop-color="#287bd9"/></linearGradient><linearGradient id="New_Gradient_Swatch_1-3" x1="644.43" y1="592.44" x2="1765.94" y2="592.44" xlink:href="#New_Gradient_Swatch_1"/><linearGradient id="New_Gradient_Swatch_1-4" x1="644.43" y1="592.44" x2="1765.94" y2="592.44" xlink:href="#New_Gradient_Swatch_1"/></defs><g id="Layer_2" data-name="Layer 2"><g id="Layer_1-2" data-name="Layer 1"><line class="cls-1" x1="90.95" y1="291.3" x2="90.95" y2="326.53"/><text class="cls-2" transform="translate(104.3 326.53)">2017</text><line class="cls-1" x1="1331.97" y1="291.3" x2="1331.97" y2="326.53"/><text class="cls-2" transform="translate(1345.32 326.53)">2020</text><line class="cls-1" x1="1745.65" y1="291.3" x2="1745.65" y2="326.53"/><text class="cls-2" transform="translate(1759 326.53)">2021</text><line class="cls-1" x1="504.62" y1="291.3" x2="504.62" y2="326.53"/><text class="cls-2" transform="translate(517.97 326.53)">2018</text><line class="cls-1" x1="918.3" y1="291.3" x2="918.3" y2="326.53"/><text class="cls-2" transform="translate(931.65 326.53)">2019</text><text class="cls-3" transform="translate(863.23 130.59)">Prototype “Parametric Modeling <tspan class="cls-4" x="373.41" y="0">T</tspan><tspan x="386.3" y="0">ool”</tspan><tspan class="cls-5"><tspan x="0" y="28.8">in development, used for North Brooklyn, </tspan><tspan x="0" y="57.6">Bushwick, and Bronx Metro-North </tspan><tspan x="0" y="86.4">Neighborhood Studies</tspan></tspan></text><text class="cls-3" transform="translate(1448.55 130.59)">UD<tspan class="cls-4" x="34.66" y="0">T</tspan><tspan x="47.55" y="0">ools for Rhino</tspan><tspan class="cls-5"><tspan x="0" y="28.8">in development, used for Soho-Noho,</tspan><tspan x="0" y="57.6">M-Crown Neighborhood Studies</tspan></tspan></text><line class="cls-6" x1="118.32" y1="7.48" x2="1815.68" y2="7.48"/><polygon class="cls-7" points="1813.49 14.96 1826.44 7.48 1813.49 0 1813.49 14.96"/><text class="cls-8" transform="translate(1307.62 44.05)">tools and interfaces, easier modeling for users</text><line class="cls-9" x1="644.43" y1="592.44" x2="1765.94" y2="592.44"/><polygon class="cls-10" points="1763.76 599.92 1776.71 592.44 1763.76 584.96 1763.76 599.92"/><text class="cls-8" transform="translate(1119.2 629.01)">models as data, easy access to context when using the tools</text></g><g id="Personnel"><text class="cls-3" transform="translate(90.95 384.21)">David <tspan class="cls-11" x="72.02" y="0">V</tspan><tspan x="86.72" y="0">ega-Barachowitz</tspan></text><line class="cls-12" x1="90.95" y1="352.31" x2="1125.14" y2="352.31"/><text class="cls-3" transform="translate(814.88 400.66)">Xun Liu</text><text class="cls-3" transform="translate(645.27 402.78)">Summer<tspan x="0" y="28.8">Interns</tspan></text><line class="cls-12" x1="814.88" y1="370.74" x2="1158.23" y2="370.74"/><line class="cls-12" x1="645.27" y1="370.74" x2="804.67" y2="370.74"/><line class="cls-12" x1="645.27" y1="335.01" x2="804.67" y2="335.01"/><text class="cls-3" transform="translate(1331.97 384.21)">Carsten Rodin</text><line class="cls-12" x1="1331.97" y1="352.31" x2="1920" y2="352.31"/><text class="cls-13" transform="translate(151.5 130.52)">UD O<tspan class="cls-14" x="59.14" y="0">f</tspan><tspan x="65.81" y="0">fice obtains</tspan><tspan class="cls-15"><tspan x="0" y="28.8">Rhino</tspan><tspan class="cls-16" x="66.65" y="28.8" xml:space="preserve"> softwa</tspan><tspan class="cls-17" x="144.84" y="28.8">r</tspan><tspan class="cls-18" x="152.4" y="28.8">e</tspan></tspan></text><text class="cls-13" transform="translate(504.62 130.52)">Rhino used for <tspan x="0" y="28.8">Basement EAS</tspan></text><text class="cls-13" transform="translate(795.54 475.19) scale(1.05 1)">File-based<tspan class="cls-15"><tspan x="0" y="28.8">3D Model of NYC</tspan></tspan><tspan class="cls-19" x="0" y="57.6">r</tspan><tspan x="7.56" y="57.6">eleased</tspan></text><text class="cls-20" transform="translate(1529.77 475.19)">NYC Digital <tspan class="cls-21" x="138.17" y="0">T</tspan><tspan x="150.17" y="0">win</tspan><tspan class="cls-18"><tspan x="0" y="28.8">launches</tspan><tspan x="0" y="57.6">(inte</tspan><tspan class="cls-22" x="45.33" y="57.6">r</tspan><tspan x="53.76" y="57.6">nal only)</tspan></tspan></text></g><g id="Today"><text class="cls-23" transform="translate(1736.65 253.61)">Dec 2020</text><line class="cls-24" x1="1723.3" y1="291.3" x2="1723.3" y2="236.12"/></g><g id="timeline-root"><line class="cls-25" x1="1920" y1="291.3" y2="291.3"/></g></g></svg>