<svg xmlns="http://www.w3.org/2000/svg" viewBox="0 0 1920 1080"><g id="annotations"><g id="anno-data"><path d="M1214.63,933.92a5.28,5.28,0,0,0-3.51,0c-2.23.93-3.9,2.9-6,4-.24.13-.56-.26-.65-.52-.87-2.4-1.33-4.93-2.2-7.33a.71.71,0,0,0-.62-.47.87.87,0,0,0-.64.5,10.69,10.69,0,0,0-1.41,3.17c-.33,1.88.56,4-.18,5.73-.44,1-2.1.93-2.94,1.68A1.77,1.77,0,0,0,1196,942c0,.41,0,1,.38,1.16.64.34,1.86-.48,2.17.18,1.41,3,1.33,6.57,2.43,9.72a2.3,2.3,0,0,0,1.47,1.37l2.16-.29c.54-1.45,1.6-2.8,1.63-4.34s-1.22-2.79-1.49-4.28-.81-3,0-4.09c1.09-1.5,3.2-1.89,4.89-2.66,1.25-.57,2.68-.69,3.89-1.34a4,4,0,0,0,1.39-1.47,1.36,1.36,0,0,0,.11-.89C1215,934.67,1215,934,1214.63,933.92Z" fill="#d96c28"/><path d="M1257.09,929.57a4.83,4.83,0,0,0-2.64,0c-.34.06-.51.57-.85.57s-.52-.45-.84-.56a1.27,1.27,0,0,0-.94,0c-1.15.63-2.58,1.13-3.2,2.28-1.36,2.48-1.18,5.6-2.47,8.1a5.61,5.61,0,0,1-2.92,2.36,3.78,3.78,0,0,1-2.65,0c-.66-.22-1.08-.89-1.52-1.44a10,10,0,0,1-2.23-3.17,8.22,8.22,0,0,1,0-4.4,5.71,5.71,0,0,1,2-2.85c.35-.27.91.08,1.3.29s.8.87,1.32,1.13c.15.07.29-.15.41-.26.28-.26.66-.48.76-.84a2.46,2.46,0,0,0,0-1.79,6.53,6.53,0,0,0-2-2,1.07,1.07,0,0,0-.89-.1,13.82,13.82,0,0,0-3.2,1.46,4.41,4.41,0,0,0-1.79,1.79,58.52,58.52,0,0,0-3.22,10.16c-.13.6.64,1.11.67,1.73,0,.34-.46.52-.56.84a1.35,1.35,0,0,0,0,.93,11.46,11.46,0,0,0,1.59,2.53,12.5,12.5,0,0,0,2.16,2.08l.89.24c.28.21.5.54.84.61a2.54,2.54,0,0,0,1.78,0c.65-.35.75-1.32,1.36-1.74,1.37-.93,3.07-1.32,4.45-2.24,1-.7,1.46-2.87,2.66-2.57,1.55.4,1.31,3.24,2.75,3.95a5.75,5.75,0,0,0,5.25,0,9,9,0,0,0,3.75-5.45,23.4,23.4,0,0,0,0-9.61C1258.94,930.65,1258,930,1257.09,929.57Zm-.58,9a2.88,2.88,0,0,1-1.5,2l-1.39-.73a21.89,21.89,0,0,1-2.92-3,2.76,2.76,0,0,1-.12-1.76c.05-.4,0-1.18.42-1.13.73.1,1,1.12,1.71,1.42a1.51,1.51,0,0,0,1.15-.13c.82-.35,1.5-1,2.32-1.31.13,0,.3.12.31.26A14.75,14.75,0,0,1,1256.51,938.59Z" fill="#d96c28"/><path d="M1377.83,927.23c-.51-4-1-8-1.66-11.94a4.92,4.92,0,0,0-.8-1.85,2.92,2.92,0,0,0-1.3-1.19,1.71,1.71,0,0,0-1.31.3c-.32.18-.75.49-.71.86s.68.69.91,1.1a8.66,8.66,0,0,1,1.4,3.18,74.94,74.94,0,0,1,0,14,29.53,29.53,0,0,1-2.26,7.51,9.53,9.53,0,0,1-1.71,2.57c-1.38,1.61-3.2,2.85-4.44,4.57-.24.33,0,.89.27,1.19l.87.11a7.64,7.64,0,0,0,1.75-.84,37.05,37.05,0,0,0,4.15-4.16,13,13,0,0,0,1.74-2.61,29.37,29.37,0,0,0,1.7-4,25.16,25.16,0,0,0,1.39-5.15c.08-.63-.57-1.17-.57-1.79,0-.34.45-.52.56-.84A2.29,2.29,0,0,0,1377.83,927.23Z" fill="#d96c28"/><path d="M1336.58,930.12c-2-.86-4.55-.8-6.19-2.25-.8-.72-.26-2.19,0-3.24.54-2.07,1.77-3.91,2.36-6,.12-.4.1-1.06-.28-1.22a5,5,0,0,0-2.65,0,.93.93,0,0,0-.63.55c-1.15,2.74-2,5.61-3.13,8.35a2.35,2.35,0,0,1-.84,1.27,1.72,1.72,0,0,1-1.47,0,9.39,9.39,0,0,1-3.14-2.2c-.73-.85-.83-2.09-1.39-3.06-.13-.24-.39-.59-.64-.5a1.76,1.76,0,0,0-1.17,1.1,7.52,7.52,0,0,0,0,3.53,6.31,6.31,0,0,0,1.36,2.29,7.61,7.61,0,0,0,1.79,1.79c1.39.9,3.16,1.18,4.43,2.24.38.32.11,1,0,1.49-.38,1.46-1.61,2.77-1.48,4.27s1.4,2.76,2.21,4.07a1.57,1.57,0,0,0,.67.58,1.65,1.65,0,0,0,.88.1l1.27-.4a11.64,11.64,0,0,0,1.65-2.56,6,6,0,0,0,0-2.67c-.11-.61-.62-1.1-.73-1.71a2.58,2.58,0,0,1,.13-1.76,1.25,1.25,0,0,1,1.16-.38c.62.07,1.15.85,1.76.69a12.59,12.59,0,0,0,4.67-2.4c.35-.3.06-.93-.06-1.37A1,1,0,0,0,1336.58,930.12Z" fill="#d96c28"/><path d="M1299.53,924.27c-.8.08-1.6,1.12-2.29.72-1.06-.61-1.34-2-1.89-3.12s-.67-2.1-1.24-3a4.28,4.28,0,0,0-1.49-1.41,1,1,0,0,0-.92,0c-.47.28-1.15.65-1.13,1.2.08,3.14,1.68,6.19,1.4,9.33-.09,1-1.75,1.07-2.39,1.85a.75.75,0,0,0,.12.94c.42.35,1.39-.06,1.58.45,1.3,3.54,1.49,7.41,2.65,11a1.69,1.69,0,0,0,1.23,1.07l2.16-.4a13.31,13.31,0,0,0,1.64-1.72,1.36,1.36,0,0,0,.11-.89c-.47-3.66-2-7.28-1.62-10.95.17-1.45,2.42-1.71,3.25-2.89a1.87,1.87,0,0,0,0-1.79C1300.49,924.3,1299.93,924.24,1299.53,924.27Z" fill="#d96c28"/><path d="M1361.71,922.33a46.07,46.07,0,0,0-5.81-1.44,4.6,4.6,0,0,0-1.81,0c-.33.07-.5.56-.84.56s-.52-.46-.85-.55a1.49,1.49,0,0,0-.91,0c-.47.13-.93.93-1.31.63a5.31,5.31,0,0,1-1.55-2.91c-.09-.35.63-.56.57-.93a20.24,20.24,0,0,0-1.42-4.23,6.6,6.6,0,0,0-1-1.77c-.64-.77-1.21-2.2-2.19-2-1.14.21-1.46,1.81-2,2.81a1.77,1.77,0,0,0-.11.92,6.82,6.82,0,0,0,.11,1.75c.1.32.6.48.61.82,0,.61-.58,1.14-.56,1.76s.61,1.11.68,1.73a6.81,6.81,0,0,1-.12,3.48c-.43,1-1.8,1.17-2.38,2a1.2,1.2,0,0,0,0,1.44c.65.49,2.07-.3,2.42.44,1.47,3.07,1.81,6.55,2.53,9.88a4.25,4.25,0,0,1,0,1.81c-.07.33-.49.51-.56.84,0,.16.14.34.28.43a12,12,0,0,0,2.53,1.61,3.69,3.69,0,0,0,1.78.11l1.27-.41c.55-.87,1.68-1.59,1.63-2.62-.19-4.12-1.94-8-2.32-12.14,0-.4.78-.33,1.18-.27s.53.63.87.58c1.76-.25,3.35-1.28,5.12-1.47.91-.1,1.85,1,2.67.61,1-.5,1.53-1.8,2-2.87C1362.3,922.73,1362,922.42,1361.71,922.33Z" fill="#d96c28"/><path d="M1282.65,925.57a3,3,0,0,0-1.3-1.19,2.43,2.43,0,0,0-1.78,0,5.71,5.71,0,0,0-2.26,1.66c-2.37,2.93-3.79,6.65-6.57,9.21-.57.54-1-1.26-1.27-2-.63-1.37-.75-3-1.56-4.23a1.18,1.18,0,0,0-1.33-.32c-.52.18-1.17.65-1.14,1.19a59.34,59.34,0,0,0,1.57,9.15,6.51,6.51,0,0,0,.66,1.82,1.09,1.09,0,0,0,.64.57h2.62c1.08-1.63,2.26-3.19,3.25-4.87,1.38-2.37,2.27-5,3.85-7.27.5-.71,1.93-2.2,2.21-1.37,1.33,3.9.33,8.34,1.5,12.3.21.72,1.49.51,2.21.34.52-.12,1.16-.61,1.14-1.15a87.61,87.61,0,0,0-1.62-11.94A5,5,0,0,0,1282.65,925.57Z" fill="#d96c28"/><path d="M1316.86,934.67c-.62.07-1.11.59-1.72.71a3.22,3.22,0,0,1-1.77,0c-.3-.11-.25-.61-.48-.84-.85-.83-2-1.34-2.75-2.3s-1.66-2-1.31-3,1.94-.85,2.8-1.45a5.75,5.75,0,0,0,1.76-1.78,4.36,4.36,0,0,0,.42-2.15,2.18,2.18,0,0,0-.42-1.28,4.16,4.16,0,0,0-1.71-1.62,3.15,3.15,0,0,0-2.65,0c-1.51,1-2.24,2.82-3.63,4-.21.17-.4-.4-.65-.48a1.27,1.27,0,0,0-.92,0c-.47.27-1.19.65-1.12,1.19.12.88,1.33,1.28,1.59,2.13.86,2.78.92,5.76,1.72,8.56a6.26,6.26,0,0,0,1.57,3,7.65,7.65,0,0,0,3.15,1.38,3.82,3.82,0,0,0,1.81,0c.33-.08.49-.5.82-.61l1.75-.26a18,18,0,0,0,2.91-2.87,1.92,1.92,0,0,0,0-1.79C1317.82,934.7,1317.26,934.63,1316.86,934.67Zm-7.35-10.86a1.75,1.75,0,0,1,1.3-.28c.14,0,.37.17.29.28a8.19,8.19,0,0,1-1.79,1.88l-.53-.11C1309,925,1309.06,924.26,1309.51,923.81Z" fill="#d96c28"/><path d="M1236.68,890.93a1.23,1.23,0,0,0-.38-1.21.93.93,0,0,0-.89-.11c-1.19.41-2.24,1.17-3.42,1.59-.41.14-1.15.48-1.31.08-1.29-3.31-1.68-6.91-2.69-10.32,0-.12-.29-.12-.37,0-.77.93-1.81,1.78-2.06,3-.52,2.42.82,5.15-.17,7.42-.56,1.28-2.68.91-3.82,1.71-.38.27-.42.86-.43,1.32s0,1,.38,1.16c.92.37,2.64-.78,3,.16,1.49,4.24.54,9.05,1.79,13.38l2.19.34c.39-.39,1.07-.61,1.17-1.15a17.9,17.9,0,0,0,.12-5.22c-.08-.9-.9-1.69-.83-2.6.16-2,.26-4.23,1.48-5.82,1-1.31,3.09-1.17,4.51-2A4.24,4.24,0,0,0,1236.68,890.93Z" fill="#d96c28"/><path d="M1247.54,888.55c-.69-.27-1.06-1.07-1.71-1.42a.92.92,0,0,0-.92,0,9.06,9.06,0,0,0-2.36,2.26,7.4,7.4,0,0,0-1.4,3.18,30.25,30.25,0,0,0,0,8.76,6.11,6.11,0,0,0,2.07,3,4.31,4.31,0,0,0,2.57,1.58l2.1-1.48c.66-1.35,1.41-2.67,2-4.06a23.44,23.44,0,0,0,1.44-4.23,5.52,5.52,0,0,0,0-2.71,16.7,16.7,0,0,0-2.48-5.13C1248.57,888,1248,888.71,1247.54,888.55Zm1.18,7.59a20.6,20.6,0,0,1-1.42,4.06.85.85,0,0,1-.61.51l-1.29-.28c-.55-1.45-1.6-2.8-1.64-4.35,0-1.73.82-3.37,1.42-5a.94.94,0,0,1,.6-.5c.29-.09.69-.22.91,0a7.85,7.85,0,0,1,2,2.85A5,5,0,0,1,1248.72,896.14Z" fill="#d96c28"/><path d="M1290.88,896.39c.66-.23,1.08-.9,1.52-1.44.3-.38.46-1.72.68-1.28.92,1.8.77,4,1.65,5.85a4.33,4.33,0,0,0,2.17,2.07l2.16-.29a8.6,8.6,0,0,0,1.64-1.72,3.27,3.27,0,0,0,.11-1.76,2.53,2.53,0,0,0-.42-1.28c-.57-.81-1.81-1.2-2-2.16-.56-2.45.39-5.08-.21-7.51-.21-.81-1.22-1.3-2-1.5a10.34,10.34,0,0,0-4.43,0,5.25,5.25,0,0,0-2.39,1.47,10.44,10.44,0,0,0-1.68,2.55c-.55,1-1.38,2.06-1.38,3.23s.83,2.19,1.38,3.22a1,1,0,0,0,.63.55A5.48,5.48,0,0,0,1290.88,896.39Zm-.05-7.52c.39-.1,1.14-.12,1.16.28l-1.12.28C1290.86,889.25,1290.65,888.91,1290.83,888.87Z" fill="#d96c28"/><path d="M1279.86,886.74a12.06,12.06,0,0,1,2.57-1.7c1.81-.86,3.82-1.24,5.59-2.17a3.11,3.11,0,0,0,1.4-1.49c.16-.37.12-1.09-.27-1.19a8.22,8.22,0,0,0-4.4,0,20.12,20.12,0,0,0-5.75,3.09,22.49,22.49,0,0,0-3.55,3.55c-.88,1-1.37,2.32-2.37,3.2-.28.24-.8-.4-1.1-.18-.63.46-1.36,1.14-1.35,1.93,0,2.34,1.1,4.55,1.49,6.86l.11,2.62a9.83,9.83,0,0,0,.13,2.66,1.89,1.89,0,0,0,1.15,1.13,1.63,1.63,0,0,0,1.3-.29,4,4,0,0,0,1.32-1.32,2,2,0,0,0,.32-1.33c-.36-2.05-1.58-3.94-1.59-6a12.36,12.36,0,0,1,1.51-5.85C1277.15,888.78,1278.61,887.81,1279.86,886.74Z" fill="#d96c28"/><path d="M1312.33,890.62c-.29.58-.94,2-1.27,1.47-1.59-2.67-2-5.9-3.1-8.78a.84.84,0,0,0-.62-.52c-.45,0-1.12-.08-1.33.32a11.75,11.75,0,0,0-1.6,5.18,34.62,34.62,0,0,0,1.44,8.47c.09.39.5.65.85.84,1,.56,2,1.38,3.19,1.37.71,0,1.18-.84,1.58-1.42,1.26-1.82,1.18-6.07,3.37-5.73s1.25,4.51,2.23,6.61a3.74,3.74,0,0,0,1.5,1.42l.86.1a5.82,5.82,0,0,0,1.76-.83,8.7,8.7,0,0,0,1.73-2.63c1.71-3.82,3.88-7.55,4.64-11.67.3-1.63-.81-3.26-1.64-4.69-.15-.27-.63.16-.84.38a3.36,3.36,0,0,0-.83,1.39c-.93,3.41-1.38,7-2.34,10.35a2.37,2.37,0,0,1-1,1.55,1,1,0,0,1-1.17-.51c-1-2.92-1.28-6.06-2.15-9a1,1,0,0,0-.68-.61c-.47-.14-1.19-.43-1.46,0C1314,885.76,1313.5,888.36,1312.33,890.62Z" fill="#d96c28"/><path d="M1406.32,875.06c-1.14-4.09-1.29-8.38-2.18-12.53-.05-.27-.36-.45-.62-.53a1.11,1.11,0,0,0-.91,0,3.17,3.17,0,0,0-1.14,1.13,1.25,1.25,0,0,0-.11.89c.14.6.57,1.11.72,1.71a7.94,7.94,0,0,1,.12,1.76,7.38,7.38,0,0,1-.12,1.76c-.15.6-.65,1.09-.73,1.71-.2,1.62.42,3.34-.1,4.87-.27.8-1.25,1.23-2,1.47-.34.1-.53-.51-.87-.58a2.65,2.65,0,0,0-1.78,0,6,6,0,0,0-2,2,1.07,1.07,0,0,0,0,.91,1.19,1.19,0,0,0,.54.63,10.39,10.39,0,0,0,3.2,1.37c.46.07,1.12-1.13,1.23-.67,1,4.08.85,8.38,1.79,12.48.14.57.82.88,1.34,1.16l.4-.23c.31-.17.73-.21.94-.5a7.62,7.62,0,0,0,1.54-3c.11-.62-.67-1.12-.7-1.76-.18-3.35-.74-6.82.07-10.07.34-1.35,2.66-1.43,3.13-2.74C1408.25,875.68,1406.52,875.74,1406.32,875.06Z" fill="#d96c28"/><path d="M1371.45,879.36c.5.16,1.09.57,1.16,1.1.1.9-.64,1.73-.72,2.63a10.66,10.66,0,0,0,.12,4.36,4,4,0,0,0,2,2,2.54,2.54,0,0,0,1.78,0,1.61,1.61,0,0,0,.85-.76,2.16,2.16,0,0,0,.3-1.33c-.09-.71-.61-1.32-.76-2-.67-3-.51-6.28-1.69-9.15-.29-.7-1.52-.58-2.24-.35a10.86,10.86,0,0,0-3,2,4.66,4.66,0,0,0-1.12,1.14c-1.66,2.64-3,5.48-4.7,8.11-.33.52-1.07,1.88-1.29,1.31-1.25-3.26-1.27-6.88-2.15-10.26a.9.9,0,0,0-.69-.6,2.07,2.07,0,0,0-1.3.3,8.14,8.14,0,0,0-2.89,2c-1.35,1.85-.79,6.37-3.07,6.15s-1-4.52-1.88-6.65a1.68,1.68,0,0,0-1.27-1c-.39,0-.67.44-.87.77a2.66,2.66,0,0,0-.42,1.28,38.08,38.08,0,0,0,0,6.92,21.46,21.46,0,0,0,1.52,5,.93.93,0,0,0,.61.52,2.92,2.92,0,0,0,1.78,0,4.44,4.44,0,0,0,1.52-1.44,12.85,12.85,0,0,0,1.68-2.54c.94-2,.76-7.59,2.4-6.13l2.39,10.42c.21.19.35.5.62.56a2.92,2.92,0,0,0,1.78,0,3.66,3.66,0,0,0,1.53-1.44c2.58-4.06,4.78-8.35,7.3-12.45C1370.91,879.65,1371.17,879.27,1371.45,879.36Z" fill="#d96c28"/><path d="M1391,886.16c-.56-1.5-.21-3.2-.06-4.81.06-.61.69-1.1.68-1.73,0-.37-.38-.68-.71-.87a2.53,2.53,0,0,0-1.3-.29.55.55,0,0,0-.42.31c-1.13,1.9-2,3.91-3.21,5.77a3.68,3.68,0,0,1-1.14,1.15c-.19.12-.74.25-.69,0,.59-3,1.78-5.76,2.43-8.7a2.34,2.34,0,0,0-.12-1.75.94.94,0,0,0-1.18-.27,5.93,5.93,0,0,0-1.55,2.27,30.31,30.31,0,0,0-1.6,4,28.19,28.19,0,0,0-1.48,5.22c-.08.62.56,1.16.57,1.79,0,.33-.72.6-.51.86a5.88,5.88,0,0,0,2.83,2c.52.16,1-.4,1.44-.77.71-.67.87-2.41,1.83-2.27s.92,1.86,1.5,2.74a2.14,2.14,0,0,0,.9.89l2.15.31a33.84,33.84,0,0,0,2.05-2.86c.16-.28.3-.71.1-1C1392.84,887.38,1391.39,887.19,1391,886.16Z" fill="#d96c28"/><path d="M1493.93,880.44c-1.61-3.05-4.24-5.51-5.82-8.57a3.06,3.06,0,0,1,0-2.66c.48-.94,1.8-1.17,2.39-2a1.43,1.43,0,0,0,0-1.44,1.17,1.17,0,0,0-1.16-.38,8,8,0,0,0-3.18,1.44,6.58,6.58,0,0,0-1.47,2.39,2.18,2.18,0,0,0-.11.92,26.85,26.85,0,0,0,.11,5.23,5.41,5.41,0,0,0,1.37,2.29c1.09,1.33,2.61,2.29,3.58,3.71.33.48.13,1.17.13,1.76a12,12,0,0,1-.13,3.49,2.92,2.92,0,0,1-1.39,1.47c-1.13.68-2.6.71-3.62,1.54a1,1,0,0,0,.08,1.32,3.24,3.24,0,0,0,2,.41l2.14-.41a13.79,13.79,0,0,0,2.78-2.24,23.87,23.87,0,0,0,2.33-4.66,2.42,2.42,0,0,0,.1-.93C1494,882.2,1494.34,881.22,1493.93,880.44Z" fill="#d96c28"/><path d="M1476,878.74c-.45-6.62,1.13-13.23,1.49-19.86a2.52,2.52,0,0,0-.31-1.34,2.17,2.17,0,0,0-.88-.76c-.16-.09-.46-.16-.56,0a24.83,24.83,0,0,0-2,4.26,25.91,25.91,0,0,0-1.34,4.72,119.49,119.49,0,0,0-1.58,12.08c0,.62.57,1.16.58,1.78,0,.34-.48.52-.57.84a4.51,4.51,0,0,0-.11,1.75,45.21,45.21,0,0,0,1.54,7.61,2.42,2.42,0,0,0,1.46,1.37,6.19,6.19,0,0,0,2.61.11l1.28-.41c.54-2.32,1.93-4.6,1.62-7C1478.92,881.91,1476.12,880.77,1476,878.74Z" fill="#d96c28"/><path d="M1424.32,881.06a1.32,1.32,0,0,0-1.44,0c-1.46,1.14-2.27,3-3.76,4.1-.35.27-.91-.07-1.3-.29a1.45,1.45,0,0,1-.76-.84c-.2-1-.62-2.31,0-3.18.83-1.26,2.68-1.43,3.78-2.46a8.85,8.85,0,0,0,2.07-3,2.17,2.17,0,0,0,0-1.8,6.53,6.53,0,0,0-2-2,1.26,1.26,0,0,0-.9-.11,5.14,5.14,0,0,0-2.14.41,6.76,6.76,0,0,0-2,2c-.61.83-.78,2-1.48,2.72-.23.25-.72.13-1,0-.75-.38-1.19-1.42-2-1.51-.55-.07-.89.68-1.18,1.15a1.3,1.3,0,0,0-.1.89,2.36,2.36,0,0,0,.43,1.31c.82.86,2.26,1.11,2.88,2.14.45.75.14,1.77,0,2.64-.1.61-.67,1.1-.73,1.71a18.7,18.7,0,0,0,.12,5.23,1.6,1.6,0,0,0,1.15,1.14h4.35c1.38-1.63,2.82-3.22,4.15-4.91a25.75,25.75,0,0,0,2.22-3.17,1.35,1.35,0,0,0,.1-.89C1424.65,881.81,1424.66,881.28,1424.32,881.06Zm-5.51-6.65a1,1,0,0,1,1.18-.27c.22.07.1.5,0,.69l-.85.71C1419,875.16,1418.6,874.73,1418.81,874.41Z" fill="#d96c28"/><path d="M1464,874.67a12.2,12.2,0,0,0-3.58-4.06c-.38-.3-1-.14-1.46,0a9.56,9.56,0,0,0-2.28,1.36,9.28,9.28,0,0,0-1.82,1.83,29.47,29.47,0,0,0-3.09,4.9,2.92,2.92,0,0,0,0,1.78c.07.33.56.51.57.84s-.67.57-.52.87a3.86,3.86,0,0,0,2,2,11.54,11.54,0,0,0,4.35.11,1.93,1.93,0,0,0,1.31-.44c.49-.52.6-2.58.91-1.93,1.08,2.18.83,4.82,1.65,7.12a2.32,2.32,0,0,0,1.31,1.2,3.45,3.45,0,0,0,1.75.12l1.28-.41c.54-1.45,1.66-2.79,1.62-4.33,0-1.11-1.4-1.76-1.78-2.81C1465.18,880.22,1465.15,877.24,1464,874.67Zm-3.26.17-3.45,3.3a5.79,5.79,0,0,1-.43-1.11c-.07-.47-.21-1,.07-1.42a4.46,4.46,0,0,1,2-1.5,2.48,2.48,0,0,1,1.8,0C1460.93,874.21,1460.84,874.66,1460.69,874.84Z" fill="#d96c28"/><path d="M1439.92,870.66a1.59,1.59,0,0,0-1.15.13,13,13,0,0,0-3,2.17,10.81,10.81,0,0,0-1.74,2.61c-1.36,2.52-2,5.5-3.81,7.71-.59.71-.32-1.86-.26-2.79,0-.69.73-1.33.57-2s-.73-1.55-1.41-1.49a2.22,2.22,0,0,0-1.64,1.73,14.2,14.2,0,0,0,0,5.28,9.32,9.32,0,0,0,1.38,4,5,5,0,0,0,2.38,1.4l.42-.26c.36-.37.91-.62,1.1-1.1,1.49-3.8,2-8,3.87-11.63,1-1.78,3.2-2.51,4.48-4.07.21-.26-.13-.69-.32-1A1.74,1.74,0,0,0,1439.92,870.66Z" fill="#d96c28"/><path d="M1446.83,874c-.32-.39-1-1.21-1.27-.81a10.2,10.2,0,0,0-1.65,4.64,29.7,29.7,0,0,0-.1,6.11,2.74,2.74,0,0,0,.42,1.29,1.45,1.45,0,0,0,.84.74l1.29-.28a4.12,4.12,0,0,0,.77-.85,2.09,2.09,0,0,0,.12-.9c0-2.88.12-5.78,0-8.66A2.2,2.2,0,0,0,1446.83,874Z" fill="#d96c28"/><path d="M1184.67,870.36c-.85-2.6-.94-5.4-1.65-8-.11-.38-.74-.5-.78-.88a27.9,27.9,0,0,1,0-7.85c.28-1.34,2-2.08,2.32-3.41.14-.53-.65-.92-1.12-1.19a.9.9,0,0,0-.91,0,9.06,9.06,0,0,0-2.36,2.26,6.7,6.7,0,0,0-1.4,3.18,82.35,82.35,0,0,0,0,15.7c.42,3.49,1.82,6.79,3.07,10.05a11.72,11.72,0,0,0,2.08,3.44,10.18,10.18,0,0,0,2.95,2.36,3.14,3.14,0,0,0,1.75.11l1.16-.37a8.39,8.39,0,0,0,0-2.69C1188.36,878.71,1186.09,874.69,1184.67,870.36Z" fill="#d96c28"/><path d="M1215.29,850.44c-.92-1.21-1.76-2.91-3.25-3.17-2.09-.38-4.21.69-6.16,1.5a5.58,5.58,0,0,0-3,2.29,28.26,28.26,0,0,0-2.57,8.64,24.27,24.27,0,0,0,.11,7.84,12,12,0,0,0,2.21,4.85,4.35,4.35,0,0,0,2.41,1.44c.34.1.57-.65.89-.53.71.24,1,1.11,1.71,1.42a1.49,1.49,0,0,0,1.16-.14l1.83-1.34c.87-1.18,3.13-2.19,2.59-3.56-.6-1.54-3.23-.88-4.65-1.73a9.88,9.88,0,0,1-2.45-2.46,8.44,8.44,0,0,1-1.37-2.29,4,4,0,0,1-.1-1.77,1.79,1.79,0,0,1,.39-1.16c.24-.21.64-.11,1,0,1.44.4,2.77,1.13,4.23,1.5a3.44,3.44,0,0,0,1.83,0,34,34,0,0,0,4.87-2.24,1,1,0,0,0,.58-.67,8.9,8.9,0,0,0-2.22-8.4Zm-.27,5.79a3.38,3.38,0,0,1-.41,1.28,2.23,2.23,0,0,1-.85.76l-.86.12c-.59.25-1.16.84-1.79.72a27.93,27.93,0,0,1-5.79-2.23,1.09,1.09,0,0,1-.55-.64,4,4,0,0,1-.11-1.75,5.36,5.36,0,0,1,.92-2.28,4.23,4.23,0,0,1,2.05-1.49,9.84,9.84,0,0,1,3.51-.11,1.84,1.84,0,0,1,1.31.43,23,23,0,0,1,2.47,4.28A1.56,1.56,0,0,1,1215,856.23Z" fill="#d96c28"/><path d="M1446.33,862.61c-.52-.6-1.19-1.71-1.91-1.4a3,3,0,0,0-1.36,2.81,6.11,6.11,0,0,0,1.67,3.15,5.27,5.27,0,0,0,2,1.5l1.18-.16c.54-.44,1.79-.64,1.61-1.31C1449.07,865.4,1447.55,864,1446.33,862.61Z" fill="#d96c28"/><path d="M1244.37,846.85c1.57-1.11,3.65-1.3,5.28-2.33.27-.17.17-.73,0-1-.55-.64-1.23-1.6-2.07-1.48-1.64.25-3,1.51-4.31,2.44a7,7,0,0,0-1.57,1.59,12.31,12.31,0,0,0-1.37,2.28,2.18,2.18,0,0,0-.11.92,14.09,14.09,0,0,0,.11,3.5,5,5,0,0,0,1.35,2.27c.59.61,1.52.78,2.16,1.34a15.3,15.3,0,0,1,3.17,3.26c.23.38-.06.93-.3,1.3-.39.6-.83,1.64-1.52,1.49-1-.2-1-1.91-1.93-2.22-.52-.18-1,.64-1.19,1.16a3.06,3.06,0,0,0,0,2.3,4.27,4.27,0,0,0,2,1.5h.91a16.31,16.31,0,0,0,3.14-1.68,12.25,12.25,0,0,0,2.36-2.94,1.66,1.66,0,0,0,.11-.89c0-.59.24-1.29-.11-1.76-1.53-2-3.66-3.52-5.32-5.44-.85-1-2-1.93-2.2-3.22A2.94,2.94,0,0,1,1244.37,846.85Z" fill="#d96c28"/><path d="M1225.9,865.19c.71-.24,1.08-1.07,1.71-1.48a.59.59,0,0,1,.56,0c.72.46,1.17,1.4,2,1.61h4.34c1.07-.5,2.2-.9,3.23-1.48a1.24,1.24,0,0,0,.56-.65c.1-.29.25-.75,0-.91a3.15,3.15,0,0,0-2-.39c-.62,0-1.12.57-1.72.71a4.32,4.32,0,0,1-1.75.12,2.79,2.79,0,0,1-1.55-.69,3.66,3.66,0,0,1-1.35-2.34c0-1.53,1.22-2.83,1.58-4.33a2.84,2.84,0,0,0-.11-1.75,2.24,2.24,0,0,0-1.15-1.14,3.17,3.17,0,0,0-1.78,0,.82.82,0,0,0-.59.49c-.88,2.89-1.06,6-2.24,8.8-.2.45-1,.13-1.5,0a1.7,1.7,0,0,1-.85-.76,2.77,2.77,0,0,1-.42-1.28,28.81,28.81,0,0,1,.12-6.09,1.52,1.52,0,0,1,1.15-1.13c.6-.13,1.15.46,1.75.55.16,0,.3-.15.41-.26a2.76,2.76,0,0,0,.76-.84c.12-.29.21-.7,0-.92-.83-.83-1.74-1.84-2.9-2-.88-.11-1.68.7-2.31,1.33a7.9,7.9,0,0,0-1.47,2.39,2.31,2.31,0,0,0-.11.92c0,2.88-.12,5.77,0,8.65a2,2,0,0,0,.45,1.31,6.31,6.31,0,0,0,2.53,1.6A4.42,4.42,0,0,0,1225.9,865.19Z" fill="#d96c28"/><path d="M1277,848.88a5.66,5.66,0,0,0,1.57-1.59,8.7,8.7,0,0,0,1.37-2.28,4.11,4.11,0,0,0,.11-1.78,3.07,3.07,0,0,0-.42-1.28,2.86,2.86,0,0,0-1.11-1.1,16.25,16.25,0,0,0-4.1-1.49,2,2,0,0,0-1.28.4,9.59,9.59,0,0,0-2.75,1.9c-.78.93-.74,2.4-1.59,3.28-.37.38-1.22-.38-1.6,0s-.19,1.17-.12,1.75c.49,4.21,1.06,8.41,1.79,12.59a1.73,1.73,0,0,0,.62,1.09,10.42,10.42,0,0,0,3.15,1.38l2-.16a22,22,0,0,0,3.21-2.35,1.36,1.36,0,0,0,.3-1.31,1.66,1.66,0,0,0-1.16-1.1c-.62-.08-1.12.64-1.74.68a3.22,3.22,0,0,1-2.17-.43,5.15,5.15,0,0,1-1.61-2.54c-.29-1-.78-2.34-.06-3.08C1272.84,850,1275.21,849.91,1277,848.88Zm-5.49-3.09a14.16,14.16,0,0,1,2-3,2.18,2.18,0,0,1,.84-.73,1.18,1.18,0,0,1,.94,0,5.19,5.19,0,0,1,2,1.5,1.53,1.53,0,0,1,0,1.44,4.71,4.71,0,0,1-1.44,1.51,10.85,10.85,0,0,1-2.29,1.37l-.88.09c-.4-.12-1,0-1.19-.37A2.17,2.17,0,0,1,1271.48,845.79Z" fill="#d96c28"/><path d="M1258.54,847.75a.65.65,0,0,0-.61-.44.67.67,0,0,0-.61.44,78.51,78.51,0,0,0-1.55,8.48c-.11.86-.38,1.91.13,2.62l2,.38a30,30,0,0,0,2.06-3,1.53,1.53,0,0,0,0-1C1259.56,852.78,1259.18,850.23,1258.54,847.75Z" fill="#d96c28"/><path d="M1294.63,843.25a2.4,2.4,0,0,0-.28-2c-.3-.33-.92.07-1.31.3a3,3,0,0,0-1.13,1.14c-1.7,3.08-3,6.39-4.7,9.43-.1.18-.4-.23-.47-.42-.87-2.5-1.45-5.1-2.32-7.61-.13-.39-.24-1.1-.65-1-.78.12-1.84.63-1.89,1.42-.14,2,.82,3.86,1.39,5.75a46.43,46.43,0,0,0,2.63,7.57l1.48.62a18,18,0,0,0,1.7-2.56c1.69-3.75,2.93-7.7,4.6-11.46C1293.87,843.9,1294.53,843.72,1294.63,843.25Z" fill="#d96c28"/><path d="M1337.68,850.73c-1.07-.15-2.14.95-3.18.64a2.7,2.7,0,0,1-1.5-2,17.36,17.36,0,0,1-.1-5.24c0-.62.6-1.11.72-1.71a3.2,3.2,0,0,0,0-1.79,2.45,2.45,0,0,0-1.14-1.13.85.85,0,0,0-.92,0c-.77.69-.83,2.59-1.87,2.5s-1.08-1.93-1.76-2.8c-.42-.56-.85-1.25-1.52-1.44a6.35,6.35,0,0,0-3.51,0,5.75,5.75,0,0,0-2.28,1.68,4.4,4.4,0,0,0-1,1.51,44.05,44.05,0,0,0-2.23,6.59,8.76,8.76,0,0,0,0,3.57,10,10,0,0,0,1.4,3.17,3.15,3.15,0,0,0,1.5,1.41,4.48,4.48,0,0,0,2.64,0c.31-.08.25-.61.48-.84,1.15-1.13,2.58-2,3.65-3.18.67-.77.77-3.34,1.53-2.66,1.43,1.27.88,3.74,1.66,5.49a2.29,2.29,0,0,0,1.3,1.2l2.6.12a9.86,9.86,0,0,0,1.76-.85,10.55,10.55,0,0,0,2-2.14,1.27,1.27,0,0,0,.11-.9C1338,851.5,1338.08,850.79,1337.68,850.73Zm-9.26-5.74a20.25,20.25,0,0,1-3.33,4.29l-1.27.43c-.46,0-1.06.29-1.38,0a4.79,4.79,0,0,1-1.56-3,11.91,11.91,0,0,1,1.42-5,3.34,3.34,0,0,1,1.46-1.37.89.89,0,0,1,.92,0,20.2,20.2,0,0,1,3.44,3.35A1.32,1.32,0,0,1,1328.42,845Z" fill="#d96c28"/><path d="M1372.63,852.24l2.51-.16c2.44-1,5-1.82,7.33-3,.35-.18,1-.88.61-1-2.56-.91-5.58-.4-8-1.65a3.31,3.31,0,0,1-1.32-3.16c.06-.72,1.19-.85,1.7-1.38a18,18,0,0,0,2-2.56,2.77,2.77,0,0,0,.42-1.28,6.56,6.56,0,0,0-.11-2.65,5.9,5.9,0,0,0-1.5-2c-.11-.12-.34-.09-.51-.07-.74.1-1.62,0-2.21.44a6.5,6.5,0,0,0-1.95,2.82,30.1,30.1,0,0,0-2.25,8.42c-.11,1.73.72,3.42,1.42,5A4.38,4.38,0,0,0,1372.63,852.24Zm2.28-15.34a2.32,2.32,0,0,1,.29,1.16l-.27.22a5.13,5.13,0,0,1-.31-1.13C1374.62,837,1374.84,836.8,1374.91,836.9Z" fill="#d96c28"/><path d="M1342.57,848.45a5.13,5.13,0,0,0,1.33,2.31,9.49,9.49,0,0,0,3.24,2.31,3.33,3.33,0,0,0,2.66,0c2-1,3-3.81,5.18-4,1.55-.15,2,2.52,3.44,3.17h3.49c1.44-1.41,3-2.74,4.33-4.22.21-.22.6-.66.35-.84-1.11-.84-2.58-1.08-3.8-1.74a10.38,10.38,0,0,1-2.59-1.73,2.07,2.07,0,0,1-.44-1.31,7.3,7.3,0,0,1,.11-2.64,4.51,4.51,0,0,1,1.34-2.26c.86-.71,2.13-.77,3.06-1.38a4.45,4.45,0,0,0,1.37-1.52c.08-.14-.15-.29-.26-.41-.26-.27-.48-.68-.85-.76a5.14,5.14,0,0,0-2.64,0,5.45,5.45,0,0,0-2.27,1.68,13.7,13.7,0,0,0-1.89,3.2,59.06,59.06,0,0,0-2.2,5.77c-.15.45.16,1.07-.18,1.4a7.73,7.73,0,0,1-2.92,1.57,2.13,2.13,0,0,1-1.8,0c-1.47-1-3.28-2.09-3.73-3.8-.37-1.39.84-2.8,1.65-4a4,4,0,0,1,2.07-1.47c.34-.1.54.47.87.58a1.19,1.19,0,0,0,.91,0c.47-.27,1-.64,1.11-1.17s-.38-1-.76-1.41c-.6-.61-1.25-1.51-2.1-1.48a5.08,5.08,0,0,0-3.16,1.67,12.3,12.3,0,0,0-2,3.42,37.47,37.47,0,0,0-2.9,6.43c-.17.59.56,1.15.57,1.77C1343.11,847.91,1342.49,848.12,1342.57,848.45Z" fill="#d96c28"/><path d="M1409.88,843.19c-1.14-2.14-3-3.86-4.08-6a2,2,0,0,1,0-1.78,7.31,7.31,0,0,1,2.27-2.36c1-.68,2.29-.77,3.21-1.51.35-.28.3-.88.31-1.33a.31.31,0,0,0-.26-.28,12,12,0,0,0-3.54,0,4.9,4.9,0,0,0-2.28,1.36,12.22,12.22,0,0,0-2,2.91,22.72,22.72,0,0,0-2,4.66,4.41,4.41,0,0,0,0,2.69,16.8,16.8,0,0,0,2.55,4c.38.52,1.75.8,1.4,1.35-.69,1.07-2.31,1.1-3.4,1.76-.23.15-.58.39-.5.65a2,2,0,0,0,1.1,1.17,3.38,3.38,0,0,0,1.76.12l1.27-.4a34.85,34.85,0,0,0,2.74-2.25,8.71,8.71,0,0,0,1.5-2.06,1.88,1.88,0,0,0,.11-.92A3.7,3.7,0,0,0,1409.88,843.19Z" fill="#d96c28"/><path d="M1395.52,846.43a11.29,11.29,0,0,0,1.37-2.29,1.31,1.31,0,0,0,.09-.91,9.91,9.91,0,0,0-1.46-3.2c-1.28-1.56-3.22-2.48-4.49-4a1.36,1.36,0,0,1,0-1.44,4.49,4.49,0,0,1,2-2c.57-.21,1.13.53,1.74.6.4,0,1,.09,1.18-.28a2.69,2.69,0,0,0,0-2.3,2.61,2.61,0,0,0-2.08-1.48c-1,0-1.81.92-2.57,1.57A38.28,38.28,0,0,0,1387,835a2.26,2.26,0,0,0-.42,1.29c-.07,1.16-.39,2.44.12,3.49.66,1.36,2,2.24,3.17,3.25.8.72,2.24.91,2.59,1.92.22.66-.86,1.11-1.4,1.54-.7.58-1.68.82-2.31,1.49a1.41,1.41,0,0,0-.31,1.33,2,2,0,0,0,1.14,1.14,3.56,3.56,0,0,0,1.75.12l1.17-.38a5.35,5.35,0,0,1,.56-1.32C1393.81,848,1394.8,847.32,1395.52,846.43Z" fill="#d96c28"/><path d="M1261.19,841.74a32.46,32.46,0,0,0-4.94-1.43,3.15,3.15,0,0,0-1.8,0c-.5.2-1.36.69-1.11,1.17a4.62,4.62,0,0,0,2.81,2h4.38c.38-.39.94-.66,1.13-1.17C1261.75,842.12,1261.43,841.83,1261.19,841.74Z" fill="#d96c28"/><path d="M1268.17,796.15c.63-.64.83-1.62,1.44-2.29.8-.87,1.9-1.41,2.74-2.25a24.14,24.14,0,0,0,2.73-3.24c.82-1.19,1.18-2.68,2.1-3.79,2-2.38,4.7-4.12,6.57-6.61a56.2,56.2,0,0,0,5.9-10.05c1.15-2.49,2.34-5.13,2.38-7.87,0-1.8-1.36-3.34-2.22-4.92a2.7,2.7,0,0,0-1-1,18.76,18.76,0,0,0-4-2.19c-.34-.11-.57.62-.93.57-2.34-.3-4.54-1.58-6.9-1.58-4.66,0-9.29.9-13.9,1.62a57.5,57.5,0,0,0-6.83,1.64c-2.63.77-5.26,1.59-7.81,2.62a29,29,0,0,0-5,2.52,6,6,0,0,0-2,2,3,3,0,0,0-.3,2.17c.14.53.65,1.17,1.19,1.13a2.87,2.87,0,0,0,1.89-1.34c.16-.21-.45-.41-.44-.67s.3-.51.53-.68a8.59,8.59,0,0,1,2.28-1.37,1.34,1.34,0,0,1,1.21.29c.23.2.15.59.13.89-.73,11-1.38,22-2.37,33-.45,4.9-1.42,9.74-1.94,14.63l.11,2.59c.39.39.65,1,1.15,1.18a3.17,3.17,0,0,0,1.78,0,.84.84,0,0,0,.61-.53,57.62,57.62,0,0,0,1.84-8.49q1.93-16.38,3-32.84c0-.64-.68-1.14-.71-1.78-.18-3.37-2.15-7.6.09-10.12,2.92-3.28,8.38-2.63,12.53-4.07.57-.2,1-.8,1.62-.84s1.14.51,1.75.61a15.34,15.34,0,0,0,2.62.13,7.38,7.38,0,0,0,1.76-.13c.6-.15,1.1-.64,1.71-.72a6.06,6.06,0,0,1,2.65.1,27.45,27.45,0,0,1,4.87,2.23,2.2,2.2,0,0,1,.93.93,23.73,23.73,0,0,1,2.37,5.83,16.31,16.31,0,0,1-.1,6.11,16.13,16.13,0,0,1-2.27,5.77c-1.83,2.75-4.49,4.85-6.53,7.44-1.14,1.45-1.79,3.25-3,4.67-1.79,2.13-4,3.87-5.88,5.91-.25.27-.23.73-.5,1-1.09,1-2.44,1.57-3.52,2.55-.64.58-1,1.44-1.59,2.07a41.87,41.87,0,0,1-4.76,4.66c-.31.23-.8,0-1.16-.14-.82-.34-1.49-1-2.32-1.31-.12-.05-.29.13-.31.27a12,12,0,0,0-.13,2.61,3.12,3.12,0,0,0,.42,1.29,1.52,1.52,0,0,0,.85.75,3.86,3.86,0,0,0,2.64,0c1.5-.84,2.39-2.48,3.72-3.58.6-.51,1.48-.66,2-1.22s.8-1.51,1.34-2.17a21.2,21.2,0,0,1,2.68-2.68C1266.65,797,1267.57,796.75,1268.17,796.15Z" fill="#d96c28"/><path d="M1195,776.2c-1.29-.15-2.61.28-3.89.07a18.54,18.54,0,0,1-3.78-1.29c-2.32-.92-4.65-1.83-6.87-2.94-2.66-1.33-5.12-3-7.76-4.39-1.16-.6-2.53-.76-3.6-1.49-.29-.2,0-.74-.12-1a2.81,2.81,0,0,0-1.16-1.35,3.67,3.67,0,0,0-2.35-.24c-.42.11-.44.79-.8,1s-.93-.16-1,.17c-.21,1.15-.46,2.63.32,3.49,1,1.14,2.83,1.27,4.32,1.64.48.11,1-.27,1.46-.22a4.67,4.67,0,0,1,1.71.49c2.57,1.32,5,3,7.54,4.25,2.4,1.17,5,1.81,7.4,3.06a1.41,1.41,0,0,1,.57,1.13c0,.18-.23.37-.41.36-1.2-.06-2.36-.65-3.55-.55-2.19.17-4.26,1.18-6.46,1.33a28.48,28.48,0,0,1-5.89-.45c-1.11-.16-2.15-.68-3.26-.85a23.62,23.62,0,0,0-4-.29c-.91,0-1.79.46-2.7.39-1.13-.08-2.17-.68-3.29-.84a44.67,44.67,0,0,0-5.89-.46c-1,0-1.9.51-2.85.38-2.61-.34-5.09-1.47-7.71-1.77-2.16-.26-4.35.27-6.51.1-1.12-.08-2.15-.68-3.26-.84-1.86-.27-3.81,0-5.62-.46-5.25-1.47-10.17-4-15.44-5.43-2.21-.59-4.62,0-6.85-.55-3-.71-5.86-2.2-8.85-3.09-1.63-.48-3.4-.43-5-1-1.91-.72-3.49-2.19-5.4-2.88s-4-.73-6-1.27a46.5,46.5,0,0,1-6.53-2.12,75.67,75.67,0,0,1-8-4.11c-1.61-.92-3-2.2-4.62-3.11a20.24,20.24,0,0,0-3.8-1.63c-.15,0-.31.16-.34.31a3.06,3.06,0,0,0-.14,1.66,3,3,0,0,0,1.17,1.38q4.2,3,8.65,5.59c2.69,1.57,5.45,3,8.27,4.31q5.4,2.48,11,4.52c6.93,2.52,13.93,4.87,21,7.11.62.2,1.33,0,2,.18,7.4,2.07,14.68,4.61,22.12,6.55a105.69,105.69,0,0,0,10.9,2c1.86.28,3.76.17,5.62.46.9.13,1.7.7,2.61.79q16.82,1.55,33.67,2.54c.91,0,1.79-.4,2.7-.4,1.88,0,3.74.39,5.62.4,1.57,0,3.46-1.31,4.71-.36.86.65-.67,2.08-1.31,3-2.7,3.69-5.94,7-8.65,10.65a17.28,17.28,0,0,0-1.91,3.73,15.25,15.25,0,0,0-.84,3c-.13.68-.43,1.47-.09,2.08a2,2,0,0,0,1.71.85l1.61-.93a14,14,0,0,1-.13-2.41,12.61,12.61,0,0,1,.85-3,8.18,8.18,0,0,1,1.06-1.89A60.65,60.65,0,0,1,1192,795c.44-.46,1.4-.13,1.78-.63a25.71,25.71,0,0,0,2.94-5.47,11,11,0,0,0,.84-3c.33-2.34.39-4.72.55-7.08a3,3,0,0,0,0-1.11,1.28,1.28,0,0,0-.61-.72A7.82,7.82,0,0,0,1195,776.2Z" fill="#d96c28"/><path d="M1369.89,791a3.18,3.18,0,0,0,1.53,1.44l3.46.11c.52-.22,1.2-.21,1.54-.65a8.37,8.37,0,0,0,1.41-3.18,6.86,6.86,0,0,0,0-2.67c0-.34-.56-.51-.56-.85s.45-.52.56-.84a1.49,1.49,0,0,0,0-.91c-.12-.32-.52-.49-.61-.82-.19-.75.12-1.62-.21-2.32s-1.23-.84-1.56-1.48a2.13,2.13,0,0,1,0-1.45c.09-.33.7-.54.59-.86a119.69,119.69,0,0,0-4.84-11,.9.9,0,0,0-.62-.54,7.19,7.19,0,0,0-3.51,0,6,6,0,0,0-2.39,2.31c-1.45,2-2.47,4.31-3.84,6.39a3.87,3.87,0,0,1-1.14,1.14c-.19.12-.67.25-.7,0a21.06,21.06,0,0,1,0-6.14,3.37,3.37,0,0,1,1.5-2c.39-.27,1-.08,1.43,0,.27.07.44.64.66.49a3.78,3.78,0,0,0,1.37-1.87,3.08,3.08,0,0,0,0-2.33c-.4-.74-1.24-1.6-2.08-1.47a6.08,6.08,0,0,0-3.28,2.29,21.23,21.23,0,0,0-2.8,4.56,58.67,58.67,0,0,0-3.23,7.3c-.67,2-1.54,4-1.38,6.09.07.95,1.13,1.64,2,2a3.83,3.83,0,0,0,2.65,0,6.59,6.59,0,0,0,2.26-1.67,24.14,24.14,0,0,0,2.73-3.24c1.23-1.72,2-6.93,3.41-5.35,2.92,3.25,1.86,8.55,3.2,12.72A21.78,21.78,0,0,0,1369.89,791Z" fill="#d96c28"/><path d="M1348.67,760.7c.61-.31,1.3-.84,1.37-1.52,0-.53-.65-.88-1.1-1.17a1.1,1.1,0,0,0-.89-.1c-1.46.42-2.82,1.14-4.28,1.59-.41.12-1.17.51-1.27.09a72.08,72.08,0,0,1-1.68-11.64c0-.36.67-.57.58-.93a7,7,0,0,0-1.62-3,6.11,6.11,0,0,0-3-1.58,1,1,0,0,0-1.17.67c-.92,7-.72,14.11-1.7,21.09-.07.5-.85.55-1.33.7-2,.59-4.11.73-6,1.5a2.62,2.62,0,0,0-1.37,1.46,1.54,1.54,0,0,0,.3,1.31,4.34,4.34,0,0,0,1.71,1.61c.41.18.91-.09,1.3-.29,1.65-.86,3.12-2,4.77-2.89.12-.06.29.13.31.27a5.44,5.44,0,0,1,0,1.8c-1,5.78-2.76,11.44-3.23,17.27a9.6,9.6,0,0,0,1.42,5c.25.47,1,.57,1.49.61l1.26-.38c.84-1.15,2.19-2.06,2.52-3.44s-.66-2.94-.63-4.43c0-.73.64-1.32.77-2,1-5.45,1.55-11,2.59-16.41.13-.69.29-1.56.9-1.91C1343.2,762.47,1346.13,762,1348.67,760.7Z" fill="#d96c28"/><path d="M1306.27,786.64c1.06-1.36,1.56-3.24,3-4.25.52-.38.33,1.27.26,1.91s-.79,1.14-.71,1.77a7.66,7.66,0,0,0,1.37,3.2,9.79,9.79,0,0,0,2.36,2.27l.86.1a5.1,5.1,0,0,0,1.31-.39,14.06,14.06,0,0,0,3.7-2.85c1.05-1.35,1.33-3.16,2.13-4.68s2-2.93,2.73-4.56a1.87,1.87,0,0,0,0-1.81c-.37-.45-1.32-.73-1.72-.31-1.85,1.88-1.93,5.66-4.4,6.56-1.46.54-1.17-2.91-1.43-4.44a22.09,22.09,0,0,1-.1-4.38,2.29,2.29,0,0,1,.26-1.13c.63-1.12,1.58-2,2.19-3.18a1.07,1.07,0,0,0,0-.94,4.29,4.29,0,0,0-1.49-2,3.63,3.63,0,0,0-2.3,0,1,1,0,0,0-.62.52c-1.1,2.4-1.76,5-3,7.31-.8,1.49-2.16,2.61-3.09,4-.8,1.2-1.15,2.7-2.1,3.79a9.73,9.73,0,0,1-3.24,2.32,2.3,2.3,0,0,1-1.8,0,3.94,3.94,0,0,1-1.53-1.45,28.49,28.49,0,0,1-2.23-4,2.18,2.18,0,0,1-.1-.92,5.59,5.59,0,0,1,.1-1.78,47.29,47.29,0,0,1,2.22-5.72,6,6,0,0,1,1.19-1.71,6.18,6.18,0,0,1,7.33-2.35c.72.18,1,1.18,1.68,1.47a1.27,1.27,0,0,0,1.19-.27c.22-.2.12-.6.12-.9,0-.47.2-1-.07-1.41a3.56,3.56,0,0,0-2-1.5,18.2,18.2,0,0,0-6.16,0,5.43,5.43,0,0,0-2.29,1.37,8.63,8.63,0,0,0-1.81,1.81,76.4,76.4,0,0,0-4.36,6.91,16.41,16.41,0,0,0-2.21,4.91,18.64,18.64,0,0,0,0,7.87,4.54,4.54,0,0,0,2.88,2.88c1.94.62,4.1.27,6.11,0,.48-.07.67-.72,1.09-1,1-.58,2.21-.85,3.19-1.49A6.63,6.63,0,0,0,1306.27,786.64Z" fill="#d96c28"/></g><g id="anno-tools"><path d="M1278.89,300.78c.55-.29.17-1.52-.37-1.81a4.1,4.1,0,0,0-2.93,0c-3.49.91-6.66,3.05-10.24,3.46-.86.1-1.3-1.27-1.48-2.1a10.82,10.82,0,0,1,0-4.87,13.43,13.43,0,0,1,2.44-4.38,2.55,2.55,0,0,1,1.39-.79c2.76-.78,5.73-.9,8.39-2,.43-.18.1-1-.12-1.39a2.23,2.23,0,0,0-1.26-1.26,8,8,0,0,0-3.88,0,13.09,13.09,0,0,0-5.35,2.45,16.62,16.62,0,0,0-3.74,5.44,13.6,13.6,0,0,0-1.68,5.72c0,3.86,1.38,7.6,1.63,11.45,0,.7-.71,1.25-.79,1.94a25.23,25.23,0,0,0,0,4.76,3.22,3.22,0,0,0,.46,1.41c.22.35.52.76.93.83l2.26-.29c.31-.64.91-1.21,1-1.92,0-1-.75-1.94-.68-3,.22-3.1-.69-7,1.53-9.19C1269.53,302.17,1275,302.82,1278.89,300.78Z" fill="#d96c28"/><path d="M1433.49,313.25c-.54.7-1.48,1-2.1,1.62a.64.64,0,0,0-.07.56c.08.46,0,1.09.42,1.32l1.93,0a22.62,22.62,0,0,0,2.56-1.51,8.83,8.83,0,0,0,2-2,42.4,42.4,0,0,0,3.71-6.43,18.28,18.28,0,0,0,1.71-5.65c.35-3.49.67-7.1-.11-10.52s-2.7-6.22-4.36-9.16a4.74,4.74,0,0,0-1.68-1.59,1.4,1.4,0,0,0-1-.11,2.16,2.16,0,0,0-1.28.42c-.24.23-.13.65-.14,1,0,3.49-.3,7,0,10.46.28,3.22,1.76,6.3,1.76,9.53,0,3-.94,6-1.75,8.88A9.37,9.37,0,0,1,1433.49,313.25Z" fill="#d96c28"/><path d="M1352.14,290.8c-1.53,3.67-2.74,7.47-4.32,11.11-.51,1.17-.82,2.68-1.93,3.29-.6.33-1.21-.79-1.47-1.42a69,69,0,0,1-3.4-10.17c-.09-.37.56-.58.64-1a3.41,3.41,0,0,0,0-1.95,2.2,2.2,0,0,0-1.26-1.26,3.32,3.32,0,0,0-2.53-.05,3.13,3.13,0,0,0-1.65,2.24,58,58,0,0,0,0,13.43c.25,1.94,1.54,3.61,2.45,5.35a2,2,0,0,0,.79.81,19.69,19.69,0,0,0,3.72,1.74l1.29-.16c1-.69,2.14-1.14,2.85-2.09.23-.29-.71-.6-.56-.95.78-1.89,2.27-3.41,3.14-5.26,1.62-3.42,2.35-7.26,4.33-10.48.74-1.21,3.45-.93,3.56-2.35s-1.8-2.49-3.13-3.13c-.54-.27-1.15.44-1.59.85A3.86,3.86,0,0,0,1352.14,290.8Z" fill="#d96c28"/><path d="M1297.36,303.39c1.29,2.91,1.83,6.13,3.27,9l1.65.71c.62-1.56,1.34-3.08,1.86-4.68.84-2.59,1.23-5.32,2.2-7.87a9.29,9.29,0,0,1,1.87-2.83c.88-1,2.23-1.49,3-2.55.22-.3-.14-.75-.34-1.06a2,2,0,0,0-.93-.81,1.87,1.87,0,0,0-1.27.14,5.27,5.27,0,0,0-2.38,1.45c-2,2.78-2,7.25-4.93,8.94-1.55.89-1.91-3-3.17-4.29a7.24,7.24,0,0,0-2.54-1.47c-.13,0-.31.14-.34.29a3.79,3.79,0,0,0,0,1.95C1295.77,301.43,1296.86,302.25,1297.36,303.39Z" fill="#d96c28"/><path d="M1362.92,309.74c-.12.86,1.09,1.36,1.75,1.93l.73.17a45.84,45.84,0,0,0,5.14-3.23,2.55,2.55,0,0,0,.76-1.7,15.2,15.2,0,0,0-.12-4.81,7.36,7.36,0,0,0-1.5-2.51,4,4,0,0,0-1-1c-1.33-.85-2.94-1.26-4.14-2.28a6.08,6.08,0,0,1-1.62-2.63,2.71,2.71,0,0,1,0-2,5,5,0,0,1,1.78-1.88,2.08,2.08,0,0,1,1.44-.32c.37,0,.58.74,1,.63a3.44,3.44,0,0,0,2.22-1.61c.24-.54-.4-1.16-.84-1.56a2.15,2.15,0,0,0-1.41-.45,6.8,6.8,0,0,0-3.31.45,11.15,11.15,0,0,0-3.15,3.16c-1.29,1.71-3,3.35-3.37,5.45-.29,1.55.86,3.05,1.52,4.48a2.6,2.6,0,0,0,1,1c1.33.84,2.94,1.25,4.13,2.28.78.67,1.73,1.63,1.59,2.65C1365.22,307.44,1363.12,308.23,1362.92,309.74Z" fill="#d96c28"/><path d="M1289,294.2c-.26-.2-.65-.13-1-.13a4.41,4.41,0,0,0-1.92.13,4.54,4.54,0,0,0-1.68,1.58,14.42,14.42,0,0,0-1.75,3.43,41.65,41.65,0,0,0-1.77,6.75,6,6,0,0,0,.13,2.88,3,3,0,0,0,1.32,1.43,19.4,19.4,0,0,0,3.72,1.74l1,0a21.47,21.47,0,0,0,2.51-1.83,5.62,5.62,0,0,0,1.29-1.9c.93-2.3,2.2-4.59,2.36-7.06.09-1.6-.82-3.14-1.64-4.5A9.25,9.25,0,0,0,1289,294.2Zm1.28,7.06c-.49,1.41-.73,3.06-1.78,4.13-.39.39-1.06-.46-1.43-.88l-.6-1.41c-.23-.31-.62-.54-.68-.92a6.22,6.22,0,0,1,0-2.91,2,2,0,0,1,1.28-1.21c.36-.11.59.55,1,.56s.5-.65.74-.48a5.13,5.13,0,0,1,1.5,2.05A1.52,1.52,0,0,1,1290.27,301.26Z" fill="#d96c28"/><path d="M1376.15,310.37a6.69,6.69,0,0,0,2.25,1.64,3.11,3.11,0,0,0,2,0l3.17-1.75a4.16,4.16,0,0,1,.24-1.47c.4-.72,1.36-1.09,1.62-1.87a4.25,4.25,0,0,0,0-2.9c-.17-.42-.87-.37-1.31-.3s-1,1-1.44.69a6.84,6.84,0,0,1-2.62-4.18c-.1-1,1.39-1.4,2-2.19a7.36,7.36,0,0,0,1.5-2.51,7,7,0,0,0,0-3.89,4.52,4.52,0,0,0-2.21-2.21,2.15,2.15,0,0,0-2,0,7.7,7.7,0,0,0-2.63,2.54,14.37,14.37,0,0,0-2.45,5.35,36.63,36.63,0,0,0,0,10.56C1374.46,308.9,1375.42,309.64,1376.15,310.37Zm3.24-17.1c.44,0,1.1-.12,1.3.28l-.15,2.14a17.25,17.25,0,0,1-1.44-2.09C1379,293.47,1379.24,293.27,1379.39,293.27Z" fill="#d96c28"/><path d="M1414.18,307.84c-.17.13-.07.47.08.62a7,7,0,0,0,2.22,1.65h2a25.8,25.8,0,0,0,3.49-2.42,5.92,5.92,0,0,0,1.61-2.62,11.89,11.89,0,0,0,.12-3.86,3,3,0,0,0-.46-1.41c-1.39-2.21-3.35-4.07-4.49-6.43-1-2-1-4.31-1.68-6.41a.52.52,0,0,0-.52-.34c-.56.12-1,.62-1.53.76-3,.76-6.24,1-9.24,1.91a24.44,24.44,0,0,0-5.09,2.6,3,3,0,0,0-1.05,1.05c-1,1.7-.75,5-2.71,5.29-1.65.23-.42-3.65-1.73-4.67-.69-.54-1.61,1.06-1.81,1.91a13.78,13.78,0,0,0,0,5.79,24.36,24.36,0,0,0,2.51,6.37,3.33,3.33,0,0,0,1.64,1.48c.27.1.6-.26.7-.53a70.32,70.32,0,0,0,2.51-8.27c.27-1.15-.38-2.51.22-3.53a9.82,9.82,0,0,1,3.79-3.19,32.16,32.16,0,0,1,6.06-2.25c.32-.1.93-.3,1,0,.22.73-.51,1.51-.35,2.25.11.53.8.76,1.08,1.22,1.17,2,2,4.14,3.26,6.07.53.83,1.62,1.27,2,2.18a2.5,2.5,0,0,1,.08,2.41C1417,306.65,1415.31,306.91,1414.18,307.84Z" fill="#d96c28"/><path d="M1212.18,278.79a36.32,36.32,0,0,0,2.53,6.67,33.59,33.59,0,0,0,3.07,5,5.78,5.78,0,0,0,1.73,1.75l4,1.58c1.31-.81,2.85-1.32,3.91-2.42.38-.39.17-1.12,0-1.62a56.5,56.5,0,0,0-3.41-7.26c-.35-.63-1.09-1-1.5-1.56a18,18,0,0,1-2.8-4.7,98,98,0,0,1-3.46-15.88c-.46-3.49-.88-7.15,0-10.55.39-1.45,2.62-1.61,3.52-2.81.29-.39-.08-1-.32-1.44s-.57-.89-1-.8a7.36,7.36,0,0,0-3.44,1.82,7.49,7.49,0,0,0-2,3.41,103.83,103.83,0,0,0-2.51,13.11,24.66,24.66,0,0,0-.11,5.76A70,70,0,0,0,1212.18,278.79Z" fill="#d96c28"/><path d="M1526.64,268.27a24.17,24.17,0,0,0,2.09-4.42,20.53,20.53,0,0,0,1.44-4.48,24.74,24.74,0,0,0,.11-5.77c0-.68-.71-1.22-.74-1.91,0-.37.54-.56.62-.92a8.72,8.72,0,0,0,.12-2.88c-.09-.68-.67-1.21-.79-1.88-.23-1.15.15-2.41-.25-3.51-.23-.67-1.23-.83-1.52-1.48-.13-.27.49-.43.52-.73s.09-1.07-.3-1.3a2.1,2.1,0,0,0-2,0,9.92,9.92,0,0,0-2.63,2.54,13.29,13.29,0,0,0-1.87,2.82c-1,2.07-2.4,4.11-2.47,6.4,0,1.29,1.24,2.33,2.21,3.18.32.28.87,0,1.26-.14.9-.38,1.58-1.39,2.55-1.44.45,0,.53.81.48,1.26-.41,3.68-1.11,7.31-1.83,10.94a6.84,6.84,0,0,1-.76,2.11c-.75,1.23-1.38,2.69-2.61,3.47-.81.51-2,.16-2.9,0-.37-.07-.53-.6-.9-.66s-1.06-.08-1.31.29a4.49,4.49,0,0,0,.33,3.34,1.46,1.46,0,0,0,1,.78c.37,0,.59-.59,1-.57l1.87.73c1.18-.53,2.54-.77,3.54-1.6s1.49-2.3,2.41-3.31C1525.63,268.73,1526.34,268.72,1526.64,268.27Zm-2.51-21.06a5.66,5.66,0,0,1-.34-1.25c0-.14.25-.38.32-.27a2.55,2.55,0,0,1,.32,1.27Z" fill="#d96c28"/><path d="M1248,258.07c.67-.15,1.23.69,1.91.75a17.11,17.11,0,0,0,5.76-.12,7.85,7.85,0,0,0,3.3-2.27,10.83,10.83,0,0,0,2.7-3.76,6.92,6.92,0,0,0,0-3.88,9.15,9.15,0,0,0-1.85-3.41,4.32,4.32,0,0,0-2.25-1.65,18.43,18.43,0,0,0-5.79,0,2.87,2.87,0,0,0-1.53.88c-.69.67-1.09,1.6-1.76,2.29-.87.89-2.29,1.3-2.84,2.42A61.41,61.41,0,0,0,1242,260.2a8.37,8.37,0,0,0-.11,2.91,3.4,3.4,0,0,0,.46,1.42,23.65,23.65,0,0,0,2.11,3.05,11.75,11.75,0,0,0,2.2,2.2l.92,0c.49.1,1,.4,1.47.3a13.67,13.67,0,0,0,4.48-1.53,21.12,21.12,0,0,0,5.34-4.48,1.83,1.83,0,0,0,0-1.95,1.19,1.19,0,0,0-1.33-.31c-1.86.64-3.4,3.07-5.31,2.59-2.19-.56-3.24-3.2-4.48-5.08C1247.47,259,1247.6,258.17,1248,258.07Zm2.11-8.94c.77-.94,1.5-2.09,2.63-2.53a6.51,6.51,0,0,1,3.86,0,1.8,1.8,0,0,1,1.26,1.26,9.79,9.79,0,0,1,0,4.81l-2.19,2.2a10.88,10.88,0,0,1-3,0,7.27,7.27,0,0,1-2.51-1.5c-.6-.48-1.54-.95-1.55-1.72C1248.66,250.69,1249.53,249.89,1250.14,249.13Z" fill="#d96c28"/><path d="M1298.83,255.56a1.26,1.26,0,0,0,0-1,7.81,7.81,0,0,0-1.79-2.39c-1-.8-2.29-1.06-3.26-1.84a11.18,11.18,0,0,1-3.21-3.33c-.28-.54.19-1.29.62-1.72a5.42,5.42,0,0,1,2.53-1.47c.37-.09.59.52,1,.63a1.24,1.24,0,0,0,1,0,2.5,2.5,0,0,0,1.25-1.25,1.88,1.88,0,0,0-.32-1.43,1.61,1.61,0,0,0-.93-.83,8.69,8.69,0,0,0-2.88-.13,2.44,2.44,0,0,0-1.31.46c-1.35,1.09-2.41,2.5-3.75,3.6-.72.6-1.73.81-2.38,1.48a5.13,5.13,0,0,0-1.47,2.49c-.13.67.61,1.27.62,2,0,.37-.74.63-.57.95a8.54,8.54,0,0,0,2.49,2.66c1.28,1,2.86,1.4,4.16,2.3a4.41,4.41,0,0,1,1.59,1.68,3.13,3.13,0,0,1,0,2,4,4,0,0,1-.88,1.54c-.51.61-1.37.92-1.74,1.62a2,2,0,0,0,0,1.6,2.57,2.57,0,0,0,1.26,1.26,4,4,0,0,0,1.92.12l1.29-.41C1295.65,262.53,1297.37,259.1,1298.83,255.56Z" fill="#d96c28"/><path d="M1326.74,250.54a7.28,7.28,0,0,0,2.56-3.56,11.22,11.22,0,0,0,0-5.78,3.48,3.48,0,0,0-2.22-2.22,7,7,0,0,0-4.81,0c-1.45.65-1.88,2.64-3.18,3.57-.53.39-1.68-.46-2,.13a26.58,26.58,0,0,0-1.85,8,37.82,37.82,0,0,0-.11,7.67c.1,1.21.18,2.64,1,3.49,1.35,1.33,3.34,1.83,5.1,2.55l.48-.3c.68-.2,1.5-.14,2-.59a18.45,18.45,0,0,0,3-3.53c.58-.79,1.4-1.57,1.47-2.54,0-.45-.81-.51-1.26-.47-.88.07-1.85,1.34-2.53.78-1.41-1.16-3-3.15-2.48-4.9S1325.38,251.64,1326.74,250.54Zm-5.43-2.33c-.42-.14-.52-.84-.42-1.27a10.59,10.59,0,0,1,1.44-3.35,4.62,4.62,0,0,1,1.82-1.87,2.21,2.21,0,0,1,2,.13c.39.23.4.83.44,1.28a7.24,7.24,0,0,1-.12,2.9l-1.64,2.2C1323.64,248.23,1322.41,248.58,1321.31,248.21Z" fill="#d96c28"/><path d="M1280.73,258.38c-.91-2.94-2.54-5.62-3.53-8.54-.27-.81.2-1.82-.23-2.56a3.65,3.65,0,0,0-2.23-1.64c-.66-.15-1.25.67-1.93.67s-1.24-.57-1.9-.66a5.23,5.23,0,0,0-2.91,0,7.26,7.26,0,0,0-2.63,2.54,19.39,19.39,0,0,0-1.94,3.76,45.58,45.58,0,0,0-2.42,6.35,4,4,0,0,0,0,2.94,6.56,6.56,0,0,0,3.14,2.22,2.76,2.76,0,0,0,2,0,4.3,4.3,0,0,0,2-1.5c.17-.24-.6-.48-.48-.75a5.09,5.09,0,0,1,1.73-1.9c.4-.28,1.13-.71,1.44-.32.6.76-.08,2.11.55,2.84a11.6,11.6,0,0,0,4.13,2.58l1.29-.16a11.13,11.13,0,0,0,2.39-1.45,5.61,5.61,0,0,0,1.44-2.51c.09-.37-.6-.6-.59-1S1280.84,258.74,1280.73,258.38Zm-11.06-4.07-2.58,2.42a5.69,5.69,0,0,1-.47-1.22,4.83,4.83,0,0,1,.11-2,13.77,13.77,0,0,1,1.53-3.49c.41-.63.93-1.44,1.67-1.5a1.37,1.37,0,0,1,1.27,1.27A9.87,9.87,0,0,1,1269.67,254.31Z" fill="#d96c28"/><path d="M1332.43,252.62a3.05,3.05,0,0,0,0,2,10.47,10.47,0,0,0,2.74,3.76l2.35.33c.24-.19.59-.29.7-.57.85-2.23,1.27-4.61,2.14-6.83,1.18-3,2.57-5.95,4-8.85a25.35,25.35,0,0,1,2.27-3.74c.47-.63,1.36-.92,1.71-1.62.17-.34-.14-.76-.35-1.08a1.74,1.74,0,0,0-.92-.82,2,2,0,0,0-1.44.33,7,7,0,0,0-2.16,2.17c-1.26,2.17-2,4.62-3.1,6.87-.64,1.3-.86,4.31-2.19,3.74-1.83-.79-1.17-3.85-2.14-5.6-.15-.27-.74-.2-1,.05a8.48,8.48,0,0,0-1.19,2.5,22.82,22.82,0,0,0-1.46,4.51c0,.39.53.6.65,1a1.63,1.63,0,0,1,0,1C1333,252.07,1332.51,252.26,1332.43,252.62Z" fill="#d96c28"/><path d="M1306.09,258.69h1a16.37,16.37,0,0,0,2.83-1.76,2.16,2.16,0,0,0,.48-1.44c.15-3.49.14-7,0-10.47a2.86,2.86,0,0,0-.45-1.41c-.22-.35-.52-.79-.93-.82-.6-.05-1.46,0-1.7.6a41.5,41.5,0,0,0-2.49,9.19,12.91,12.91,0,0,0,0,4.84C1304.94,258,1305.57,258.39,1306.09,258.69Z" fill="#d96c28"/><path d="M1373.64,257.75l2.4-.33c2.87-5.71,5.53-11.52,8.6-17.12a.56.56,0,0,1,.79-.06c.23.27.11.7,0,1-.47,2.2-1.36,4.32-1.65,6.55-.26,1.91-.7,4,0,5.79a4.11,4.11,0,0,0,3.17,2.19c.75.1,1.3-.87,1.69-1.52,1-1.61,1.39-3.52,2.34-5.15,1.29-2.2,3-4.16,4.36-6.31.85-1.34,1.39-2.87,2.31-4.16.44-.63,1-1.44,1.7-1.54.44-.06.42.8.46,1.24a14.22,14.22,0,0,1,0,3.8c-.36,1.94-1.41,3.71-1.76,5.66a7.44,7.44,0,0,0,0,3.89c.37,1,1.23,2.1,2.27,2.19a3.53,3.53,0,0,0,3.23-1.7c.67-1.28.13-2.91-.07-4.35,0-.38-.72-.58-.65-1,.28-1.32,1.38-2.39,1.62-3.72a28.4,28.4,0,0,0,.11-5.76,2.7,2.7,0,0,0-.29-1.25c-.39-.72-.71-1.67-1.47-2a7.47,7.47,0,0,0-3.46-.08,2.59,2.59,0,0,0-1.41.45,17.13,17.13,0,0,0-3.15,3.16c-1.74,2.38-1.89,8.44-4.67,7.49-3.1-1-.45-6.63-1.69-9.66-.32-.76-1.66-.57-2.46-.37a4.45,4.45,0,0,0-2.62,1.61c-2.47,3.58-2,10.81-6.35,11.4-3.45.48-1.37-6.85-2.36-10.19-.06-.22-.47.19-.54.41a82.91,82.91,0,0,0-2.71,10.38,16.92,16.92,0,0,0-.11,6.76A3.7,3.7,0,0,0,1373.64,257.75Z" fill="#d96c28"/><path d="M1474,224a7.48,7.48,0,0,0-1.54-3.49,2.31,2.31,0,0,0-1.66-.71,2.34,2.34,0,0,0-1.41.45,3.37,3.37,0,0,0-1.21,1.22,8.76,8.76,0,0,0-1,2.72c-1.33,7.23-2.69,14.46-3.54,21.77-.29,2.53-.61,5.2.13,7.63.44,1.43,1.91,2.36,3.17,3.17a3,3,0,0,0,1.92.12l1.28-.41a7,7,0,0,1,.63-1.36c.66-.88,1.9-1.39,2.25-2.44a12.15,12.15,0,0,0,.11-4.81c-.06-.68-.7-1.23-.74-1.91,0-.37.58-.58.57-.95s-.5-.57-.61-.93a1.7,1.7,0,0,1,0-1c.17-.65.77-1.2.77-1.88s-.85-1.25-.76-1.94c.24-2,1.52-3.71,1.73-5.68A42,42,0,0,0,1474,224Z" fill="#d96c28"/><path d="M1450.52,229.62a10.35,10.35,0,0,0-3.32,2.38,22.5,22.5,0,0,0-2.78,5.49c-1.05,2.58-1.36,5.46-2.66,7.92-.21.4-.91-.29-1.19-.64-.69-.9-.79-2.22-1.62-3a1.32,1.32,0,0,0-1.5.08c-.37.26-.4.83-.43,1.28a7.84,7.84,0,0,0,.11,2.9,5.48,5.48,0,0,0,1.59,2.6c.93.77,2.57.5,3.31,1.45,1.07,1.38.65,3.57,1.68,5,.72,1,2.08,1.33,3.23,1.74l1.94.1c1.06-1,2-2.16,3.17-3.1.71-.58,1.79-.72,2.36-1.45a9.17,9.17,0,0,0,1.5-3.46c.11-.44.08-1.1-.32-1.33a2.84,2.84,0,0,0-1.95,0c-.36.08-.57.54-.93.62-.18,0-.37-.15-.48-.31-.61-.84-1.92-1.63-1.67-2.65.3-1.21,2.06-1.45,2.9-2.38a9.77,9.77,0,0,0,1.5-2.51,2.45,2.45,0,0,0,.12-1c0-2.23.58-4.57-.13-6.68-.47-1.41-1.93-2.32-3.16-3.16A1.31,1.31,0,0,0,1450.52,229.62Zm1.58,9.75-2.23,3.08a3.9,3.9,0,0,1-.47-1.22,31.24,31.24,0,0,1,.12-6.7c.1-.58.74-1,1.26-1.25a.94.94,0,0,1,1,0,1.8,1.8,0,0,1,.43,1.27A14.36,14.36,0,0,1,1452.1,239.37Z" fill="#d96c28"/><path d="M1405.72,245.93a2.83,2.83,0,0,0-.12,1c0,1.58-.12,3.17,0,4.75a3.06,3.06,0,0,0,.46,1.41,3.62,3.62,0,0,0,1.22,1.21,13.09,13.09,0,0,0,3.49,1.53l1.45-.33c1.06-2,2.3-3.93,3.19-6a41,41,0,0,0,2.54-7.33,9.14,9.14,0,0,0-.11-3.86,10.21,10.21,0,0,0-1.54-3.49,10.61,10.61,0,0,0-2.59-2.5c-.29-.2-.84-.4-1-.12a47.5,47.5,0,0,0-3.5,6.43C1408,241,1406.78,243.46,1405.72,245.93Zm4.75-1.91a35.88,35.88,0,0,1,2.46-5.35,1.37,1.37,0,0,1,.73-.63c.31-.11.75-.22,1,0a1.86,1.86,0,0,1,.43,1.27,9.45,9.45,0,0,1-.11,2.91,28.65,28.65,0,0,1-1.64,4.63l-.88,1.3c-.66-.71-1.56-1.25-2-2.13A2.79,2.79,0,0,1,1410.47,244Z" fill="#d96c28"/><path d="M1511.11,252.67c.22-.43-.09-1-.33-1.43s-1.3-.79-1.28-1.42c.09-2.28,1.32-4.39,1.6-6.66.05-.38-.56-.59-.65-1-.21-.82.19-1.8-.24-2.53A4.38,4.38,0,0,0,1508,238a2.9,2.9,0,0,0-2,0,22.13,22.13,0,0,0-4.41,2.45c-.83.57-1.39,1.47-2.21,2.05-.17.12-.57.18-.65,0-1-2.65-1.52-5.5-2.58-8.15a7.76,7.76,0,0,0-1.54-2.16c-.09-.09-.36-.1-.39,0a46.89,46.89,0,0,0-2,8.06,41.05,41.05,0,0,0,.13,9.53,1.78,1.78,0,0,0,1.26,1.27c.93.28,2.16.62,2.9,0,1.8-1.5,2.58-3.9,4-5.76a7.93,7.93,0,0,1,1.73-1.74,16.59,16.59,0,0,1,4.71-2.67c.44-.11.43.82.48,1.27a4.63,4.63,0,0,1-.11,2c-.71,2.23-1.91,4.3-2.6,6.55a2.7,2.7,0,0,0,0,2,5.41,5.41,0,0,0,2.21,2.21h1.92C1509.62,254.15,1510.62,253.6,1511.11,252.67Z" fill="#d96c28"/><path d="M1428.39,238.81c-1.4,2-4.58,1.59-6.78,2.6a1.92,1.92,0,0,0-1,1,20.49,20.49,0,0,0-1.55,6.44,6.9,6.9,0,0,0,1.52,3.55,8.41,8.41,0,0,0,2.16,2.17,2.63,2.63,0,0,0,1.41.46l2.16-.25c2-.78,4.27-1.2,6.14-2.35a11.07,11.07,0,0,0,3.46-3.55,2.81,2.81,0,0,0,0-2c-.41-1.91-1.41-3.68-1.63-5.62-.07-.7.72-1.25.78-1.95a37.87,37.87,0,0,0,0-6.65c-.08-1-.75-1.89-.78-2.89,0-.37.6-.53.66-.9a16.35,16.35,0,0,0,.12-3.83,3.08,3.08,0,0,0-.45-1.41,1.83,1.83,0,0,0-.93-.83,4.58,4.58,0,0,0-2,0,.69.69,0,0,0-.47.36,18.34,18.34,0,0,0-1.17,2.83,33.09,33.09,0,0,0-1.55,5.65C1428.24,234,1429.77,236.87,1428.39,238.81Zm-1.36,7.45c-.44-.4-1.15-.64-1.31-1.21s-.3-1.82.33-2.21,1.13.64,1.29,1.21Z" fill="#d96c28"/><path d="M1487.43,245a75.31,75.31,0,0,0-1.67-7.4c-.09-.28-.43-.69-.69-.56a4.66,4.66,0,0,0-1.88,1.83c-.92,1.53-1.33,3.33-2.16,4.91-.24.47-.86.7-1,1.19a1.77,1.77,0,0,0,.15,1.27,8.65,8.65,0,0,0,1.6,2.55,2.07,2.07,0,0,0,1.43.46l1.39-.42a33.71,33.71,0,0,0,2.76-2.85A1.32,1.32,0,0,0,1487.43,245Z" fill="#d96c28"/><path d="M1312.16,239c.19-1.14-.72-2.26-1.48-3.13a5.73,5.73,0,0,0-2.62-1.62,3.44,3.44,0,0,0-2.56,0,4.05,4.05,0,0,0-1.64,2.23,2.16,2.16,0,0,0,0,2,6.91,6.91,0,0,0,3.14,2.22h2.9C1310.66,240.07,1312,239.89,1312.16,239Z" fill="#d96c28"/><path d="M1200.14,180.19c.77-.86,2.16-1.19,2.64-2.23a7.39,7.39,0,0,0,.13-3.83c-.08-.7-.86-1.25-.78-1.95.88-8,2.69-15.81,3.64-23.76a22.9,22.9,0,0,0-.13-5.73,2.28,2.28,0,0,0-.86-1.45,9.53,9.53,0,0,0-3.23-1.73,6.59,6.59,0,0,0-2.93,0c-.39.06-.58.69-1,.66-5-.38-9.88-1.08-14.78-1.86-.5-.07-.84-.66-1.34-.67s-.6.58-1,.58-.59-.49-1-.56c-.17,0-.32.16-.45.28a8.39,8.39,0,0,0-1.79,1.88,1.59,1.59,0,0,0,0,1.58,7.68,7.68,0,0,0,3.21,2.58c.63.24,1.25-.6,1.93-.61.37,0,.6.69,1,.57.77-.28,1.18-1.16,1.88-1.57a1.89,1.89,0,0,1,1-.13c2.85,0,5.71-.13,8.56,0,.44,0,1,.07,1.24.45s-.32.58-.58.75a55.34,55.34,0,0,1-5,3.07c-3.81,2.07-7.8,3.78-11.57,5.91-.63.36-1,1.08-1.55,1.5a13.58,13.58,0,0,1-2.12,1.16c-6.07,3-12.26,5.71-18.27,8.8-1.86,1-3.48,2.37-5.32,3.37-1.66.91-3.53,1.38-5.15,2.35-3.16,1.89-6,4.25-9.13,6.22-2.9,1.83-6.09,3.21-8.92,5.16-1.32.92-2.17,2.41-3.45,3.4-1.6,1.25-3.45,2.12-5.12,3.27a42.43,42.43,0,0,0-3.81,2.85c-1.22,1.06-2.17,2.41-3.44,3.4-1.6,1.25-3.6,1.94-5.12,3.27a121.42,121.42,0,0,0-9.37,9.34c-.68.73-1,1.76-1.61,2.53a17.94,17.94,0,0,1-2.67,2.7c-1.38,1.09-3.06,1.76-4.39,2.91-1,.86-1.57,2.15-2.55,3.05-.74.68-1.78,1-2.53,1.62-.31.27-.28.8-.57,1.09-.63.64-1.54,1-2.13,1.62a6.17,6.17,0,0,0-1.48,2.49c-.18.75-.3,1.83.32,2.28l2.37-.3c1.59-1.91,3.1-3.88,4.77-5.71a58.46,58.46,0,0,1,4.6-4.58c.93-.82,2.11-1.3,3-2.11a41.55,41.55,0,0,0,4.08-4.1c.65-.76.94-1.79,1.61-2.54a68.65,68.65,0,0,1,6.51-6.48c1.87-1.6,4.14-2.68,6.07-4.22,1.26-1,2.22-2.35,3.45-3.4a42.39,42.39,0,0,1,3.8-2.86c1.67-1.14,3.53-2,5.12-3.26,1.28-1,2.12-2.48,3.45-3.4,2.83-2,6-3.33,8.93-5.17,3.13-2,6-4.35,9.17-6.26,1.62-1,3.49-1.45,5.15-2.34,3.16-1.71,6.1-3.83,9.3-5.47,4.66-2.4,9.59-4.24,14.25-6.66,1.34-.7,2.35-1.92,3.66-2.66,3.77-2.13,7.77-3.83,11.57-5.91,1.17-.64,2.07-1.79,3.34-2.24a4.16,4.16,0,0,1,2.91,0c.42.18.41.89.32,1.34-1.63,7.94-4,15.71-5.46,23.68a32.79,32.79,0,0,0-.11,6.72,3,3,0,0,0,.28,1.25,15.16,15.16,0,0,0,1.58,2.54,4.16,4.16,0,0,0,1.43,1.31c.48.21,1.18.39,1.58,0C1198.54,183,1199.08,181.36,1200.14,180.19Z" fill="#d96c28"/><path d="M1485.37,230.55a8,8,0,0,0,2.51,1.5l2.27-.3a13,13,0,0,0,0-2,.81.81,0,0,0-.35-.47c-1.24-.93-2.29-2.4-3.82-2.67-.9-.16-1.7.86-2.22,1.61-.22.3.13.75.35,1.06A5.4,5.4,0,0,0,1485.37,230.55Z" fill="#d96c28"/><path d="M1473.46,178.7c-.89-1.46-2.48-2.37-3.61-3.66-.27-.3-.27-.77-.55-1.06-1.11-1.16-3.1-1.7-3.57-3.24-.38-1.22.84-2.42,1.5-3.51.35-.58.79-1.43,1.47-1.42.85,0,1.27,1.24,2.09,1.5.3.1.56-.33.72-.6.64-1.13,1-2.43,1.64-3.52.47-.74,1.5-1.09,1.79-1.91s.31-1.82-.31-2.26a3.28,3.28,0,0,0-2.9,0,10.55,10.55,0,0,0-3.47,2.42c-.67.65-.86,1.67-1.48,2.38-.35.4-1.06.4-1.35.84a44.13,44.13,0,0,0-3.8,7c-.79,1.85-1.79,3.79-1.63,5.79.13,1.69,1.53,3,2.43,4.47,1.87,3,4.18,5.71,5.85,8.81.24.44-.09,1-.33,1.47a1.58,1.58,0,0,1-.94.82,7.85,7.85,0,0,1-2.9,0c-.37-.06-.57-.73-.93-.62-.58.16-1,.75-1.3,1.24a.51.51,0,0,0,0,.59,6.08,6.08,0,0,0,2.2,1.65,7.29,7.29,0,0,0,2.91.12l1.39-.44c1-.71,2.11-1.34,3.08-2.13a8.48,8.48,0,0,0,2-2,33.14,33.14,0,0,0,2.44-5.35,1.55,1.55,0,0,0,0-1.06A29.69,29.69,0,0,0,1473.46,178.7Z" fill="#d96c28"/><path d="M1333.31,184.71c.59.64,1.65.82,2.09,1.58,1.08,1.87,1.18,4.22,2.31,6.07a10.2,10.2,0,0,0,3.59,3.5l2.87.11c1.52-1.51,3.16-2.93,4.57-4.55a21.54,21.54,0,0,0,2.44-3.48,1.5,1.5,0,0,0,.11-1,2,2,0,0,0-.41-1.27.94.94,0,0,0-1,0c-.71.4-1.14,1.2-1.85,1.6a1.23,1.23,0,0,1-1,0,7.55,7.55,0,0,1-2.49-1.48,7.29,7.29,0,0,1-1.61-2.62,1.83,1.83,0,0,1,.16-1.29c.39-.89,1.33-1.56,1.48-2.52a40.81,40.81,0,0,0,.12-7.66,2.81,2.81,0,0,0-.46-1.41,4.89,4.89,0,0,0-1.45-1.45,1.7,1.7,0,0,0-1.44-.32,4.56,4.56,0,0,0-1.68,1.59,6.06,6.06,0,0,0-.85,1.66,40.2,40.2,0,0,0-1.6,4.63c-.2.79.4,1.86-.18,2.44-1.1,1.07-3,.9-4.2,1.89-.37.31.32,1,.26,1.44s-.61.58-.57,1A2.84,2.84,0,0,0,1333.31,184.71Z" fill="#d96c28"/><path d="M1298.19,161.46a5.9,5.9,0,0,0-2.53-1.46,1.78,1.78,0,0,0-1.59.86,70.66,70.66,0,0,0-4.81,9.06,23.23,23.23,0,0,0-1.24,4.27c-1.15,4.86-2.33,9.71-3.21,14.61a16.15,16.15,0,0,0-.11,3.87,3.1,3.1,0,0,0,.46,1.41,1.88,1.88,0,0,0,.93.83,4.77,4.77,0,0,0,1.92.13,3.35,3.35,0,0,0,1.42-.46c.34-.23.74-.55.78-1s-.65-.6-.61-1c.64-6.33,1.5-12.65,2.62-18.92a20.71,20.71,0,0,1,2-6.73c.29-.5.93.71,1.21,1.21a15.33,15.33,0,0,1,1.16,3.09c1.71,5.72,3,11.57,4.92,17.23a4.57,4.57,0,0,0,1.73,2.59,4.51,4.51,0,0,0,2.87.13,2.64,2.64,0,0,0,1.71-.77,16.87,16.87,0,0,0,2.11-4c3-7.15,1.48-18.91,8.77-21.58,5.72-2.1.42,12.19.25,18.28,0,.68-.63,1.22-.79,1.88A4.63,4.63,0,0,0,1318,187c.11.69.89,1.26.77,1.94-.18,1.06-1.77,1.76-1.58,2.83a6.89,6.89,0,0,0,2.72,3.81l2.36.33a6.75,6.75,0,0,0,1.55-.88,9.18,9.18,0,0,0,1.65-2.26,2.14,2.14,0,0,0,.12-1,8.78,8.78,0,0,0-.13-1.92c-.16-.66-.75-1.2-.8-1.88-.23-3.48,0-7,0-10.47a15.37,15.37,0,0,1,.14-2.88c.13-.67.73-1.21.8-1.88a20.23,20.23,0,0,0,0-5.71,29.19,29.19,0,0,0-2.59-8.29,2.8,2.8,0,0,0-2.61-1.54c-1.2.22-2,1.52-2.68,2.51a17,17,0,0,0-1.94,3.77c-1.82,4.54-3.24,9.23-5.09,13.76-1,2.44-1.6,5.23-3.44,7.12-.59.6-1.32-1.22-1.49-2.05-.15-.68.7-1.29.64-2s-.76-1.29-1-2c-.93-3-1.4-6.19-2.45-9.17a28.62,28.62,0,0,0-2.78-5.63A8.17,8.17,0,0,0,1298.19,161.46Z" fill="#d96c28"/><path d="M1358.85,178.85c1.06,4.48,1.16,9.19,2.69,13.53.33,1,1.68,1.17,2.61,1.55l.47-.28c.35-.18.8-.23,1-.54a8.83,8.83,0,0,0,1.72-3.24c.15-.67-.64-1.27-.62-2s.73-1.22.73-1.9-.7-1.23-.73-1.91c0-.37.5-.57.61-.92a1.66,1.66,0,0,0,0-1c-.12-.35-.6-.53-.66-.9a8.31,8.31,0,0,1,0-2.9,1.16,1.16,0,0,1,.63-.73c2.54-1.44,5.28-2.52,7.77-4a4.59,4.59,0,0,0,1.9-1.83,1.32,1.32,0,0,0-.42-1.32c-.23-.24-.65-.14-1-.12a3.59,3.59,0,0,0-1.25.27c-1.51.72-2.84,1.83-4.41,2.42a2.81,2.81,0,0,1-2,0c-.55-.21-1.19-.67-1.25-1.26-.11-1,.74-1.89.78-2.88a122.13,122.13,0,0,0-.12-12.4c0-.37-.54-.55-.67-.9-.19-.5.1-1.17-.24-1.58a8.1,8.1,0,0,0-3.24-2.54c-.52-.19-1.12.37-1.47.81a8.58,8.58,0,0,0-1.73,3.23,10.6,10.6,0,0,0,0,3.89c.1.67.76,1.2.8,1.88.23,4.13.72,8.34,0,12.41-.23,1.28-1.93,1.76-2.7,2.79a1.13,1.13,0,0,0-.11,1C1358.18,178,1358.73,178.32,1358.85,178.85Z" fill="#d96c28"/><path d="M1431.43,185.08c.07.36.61.55.62.93s-.69.6-.57,1c.27.77,1.2,1.15,1.57,1.87.26.49-.2,1.32.26,1.62a19.07,19.07,0,0,0,6,2.57,16.21,16.21,0,0,0,4.82.11l1.39-.44c2.29-1.34,4.64-2.6,6.88-4,.28-.18.75-.44.65-.76-.3-.88-1.42-1.33-1.65-2.23-.14-.54.56-1,.68-1.54a5,5,0,0,0,.13-1.93c-.16-1-.72-2-.89-3-.74-4.35-1.8-8.69-1.82-13.1,0-5.75,1.32-11.42,1.62-17.16,0-.39-.56-.59-.66-1a5.17,5.17,0,0,1-.12-1.92,3.38,3.38,0,0,1,.45-1.42c.34-.54,1.08-.81,1.28-1.42a1.88,1.88,0,0,0-.32-1.43,1.53,1.53,0,0,0-.93-.82,1.7,1.7,0,0,0-1.46.35,8.49,8.49,0,0,0-1.42,2.38,28.19,28.19,0,0,0-1.62,3.37,25.65,25.65,0,0,0-1.27,4.45c-.9,5.11-1.6,10.26-2.22,15.42-.17,1.42.89,3.33-.17,4.3-1.73,1.58-5,.46-6.75,2-2.28,2-3.1,5.25-4.5,8a2.25,2.25,0,0,0-.12,1A16.26,16.26,0,0,0,1431.43,185.08Zm4.92-7c.55-1,1-2.31,2.06-2.9s2.76-1.08,3.27-.12c1.59,3,1,6.7,2,9.94.2.66,1.08.91,1.46,1.49l0,.75a5.26,5.26,0,0,1-1.44-.29,18.35,18.35,0,0,1-3.06-2.12,22.22,22.22,0,0,1-3-2.95,8.59,8.59,0,0,1-1.49-2.5A1.7,1.7,0,0,1,1436.35,178.1Z" fill="#d96c28"/><path d="M1413.37,186a8.54,8.54,0,0,0,1.81,3.43,5.08,5.08,0,0,0,2.26,1.65,7.42,7.42,0,0,0,2.9.12l1.28-.42c1.08-2,2.32-3.93,3.24-6a48.57,48.57,0,0,0,3.56-9.27,18.53,18.53,0,0,0-.11-6.72,7.41,7.41,0,0,0-1.51-3.45,5.36,5.36,0,0,0-2.6-1.59,2,2,0,0,0-1.46.34,2.2,2.2,0,0,0-.83.93,1.71,1.71,0,0,0-.11,1,2.37,2.37,0,0,0,.47,1.44c.93.82,2.22,1.13,3.23,1.84.13.09.07.31.06.47,0,1.94.3,3.92-.11,5.82a18.23,18.23,0,0,1-2.27,5.13,4.51,4.51,0,0,1-1.84,1.93c-.46.21-1-.19-1.45-.45s-.79-.52-.83-.93a39.21,39.21,0,0,1,0-7.66,3.08,3.08,0,0,1,.88-1.55c.49-.61,1.35-.92,1.7-1.62.17-.34-.13-.77-.34-1.07s-.57-.88-1-.81a5.08,5.08,0,0,0-2.51,1.45,5.64,5.64,0,0,0-1.3,2.28,97.62,97.62,0,0,0-3.15,10.82c-.08.38.64.58.65,1C1414,184.76,1413.23,185.36,1413.37,186Z" fill="#d96c28"/><path d="M1396.75,171.07c-2.23,2.84-4,6-6.12,8.93a14.88,14.88,0,0,1-2.86,3.35c-.27.2-.51-.44-.75-.68a10.77,10.77,0,0,1-2.23-2.35,3,3,0,0,1,0-1.95c.14-.67.77-1.21.8-1.89a132.16,132.16,0,0,0,0-17.12c-.13-1.52-.58-3.34-1.85-4.18-.73-.49-2,.67-2.14,1.54-1.5,8.72-1.88,17.61-2.66,26.43a6,6,0,0,0,.14,1.93c.1.36.62.55.62.93s-.5.57-.61.92a1.19,1.19,0,0,0,0,1,12.49,12.49,0,0,0,3.16,3.16h1.92c1.84-1.48,4-2.62,5.52-4.44,3.68-4.44,6.2-9.77,9.92-14.18.34-.4.84.66,1.08,1.12a1.55,1.55,0,0,1,0,1c-.77,2.85-2.19,5.54-2.6,8.45a5.62,5.62,0,0,0,.92,3.52,4.4,4.4,0,0,0,2.23,1.64,2.36,2.36,0,0,0,2,0c1.25-.72,2-2.07,3.13-3,.72-.59,1.73-.8,2.38-1.48s1.68-1.58,1.44-2.51c-.19-.73-1.46-.53-2.21-.48-1,.06-1.89.89-2.88.78-.59-.06-1-.7-1.26-1.25a2.81,2.81,0,0,1,0-2c.65-1.66,2.11-3,2.6-4.66a14.89,14.89,0,0,0,.12-4.81,3.1,3.1,0,0,0-.46-1.41,1.75,1.75,0,0,0-.93-.83,9,9,0,0,0-2.88-.12,2.46,2.46,0,0,0-1.42.46A27.34,27.34,0,0,0,1396.75,171.07Z" fill="#d96c28"/><path d="M1238.57,106.38c4.54-2.19,8.68-5.15,13.22-7.34.41-.2,1.22-.13,1.33.31a19.62,19.62,0,0,1,.14,5.73c-.75,12.37-2.06,24.7-2.72,37.08,0,.68.63,1.27.63,2,0,.37-.52.57-.62.93a5.39,5.39,0,0,0-.12,1.92,2.29,2.29,0,0,0,.48,1.44,6.85,6.85,0,0,0,2.78,1.77l2.4-.34c.9-1.59,2.19-3,2.7-4.77.19-.65-.68-1.23-.75-1.91a21.85,21.85,0,0,1,.13-4.78c0-.37.64-.55.62-.92,0-.69-.67-1.23-.75-1.91a22.18,22.18,0,0,1,0-4.75c.46-4.15,1.59-8.22,1.88-12.39a123.52,123.52,0,0,0,0-14.27c0-.68-.72-1.23-.75-1.91,0-.37.55-.56.62-.93a14.46,14.46,0,0,0,.14-2.87,4.18,4.18,0,0,0-.1-1.62c-.21-.5-1.47-.89-1-1.22,2.56-2,5.66-3.17,8.56-4.6,1.59-.79,3.34-1.23,4.91-2.07,1.94-1,3.64-2.5,5.56-3.58,1-.59,2.27-.79,3.28-1.41a4,4,0,0,0,1.66-1.64,1.11,1.11,0,0,0-.42-1.33,4,4,0,0,0-2.93,0c-2.18,1-3.85,2.84-6,4-5.34,2.82-11,5.09-16.33,7.82q-7.33,3.72-14.49,7.82a23.52,23.52,0,0,0-5.39,3.58,1.79,1.79,0,0,0,0,2A1.13,1.13,0,0,0,1238.57,106.38Z" fill="#d96c28"/><path d="M1280.89,118.42a81.13,81.13,0,0,0,0,10.46,2.46,2.46,0,0,0,.46,1.42c.82,1,1.61,2.27,2.83,2.73,1.5.56,3.19.21,4.79.13l1.39-.44c1.37-1.38,2.85-2.65,4.12-4.13.65-.76,1-1.75,1.61-2.53s1.67-1.33,2.2-2.23a32.45,32.45,0,0,0,3.4-7.26,9.56,9.56,0,0,0,.12-4.81,19.53,19.53,0,0,0-2.57-5.42,4.64,4.64,0,0,0-1.92-1.93c-2-.88-4.32-1-6.41-1.67-.4-.14-.58-.65-1-.84a1.92,1.92,0,0,0-1-.12,3.49,3.49,0,0,0-1.24.27c-.84.4-1.91.66-2.39,1.46a30.38,30.38,0,0,0-2.74,7.08A40.55,40.55,0,0,0,1280.89,118.42Zm7.67-12.69c.07-.33.31-1.06.58-.84,1.13.88,1.46,2.6,2.66,3.39a3.16,3.16,0,0,0,2.56,0c.69-.21,1-1.32,1.71-1.35s1,.72,1.23,1.24a16.9,16.9,0,0,1,1.65,4.5,7.72,7.72,0,0,1-.12,3.85,23.34,23.34,0,0,1-3.4,6.31l-4.54,4.39a7.71,7.71,0,0,1-1.72-1.54,18.82,18.82,0,0,1-2.42-5.37c-.15-.67.77-1.24.76-1.93,0-1-.88-1.92-.79-2.92A69.47,69.47,0,0,1,1288.56,105.73Z" fill="#d96c28"/><path d="M1335.88,114.37a34.23,34.23,0,0,0,6.37,2.46c.53.12,1.07-1,1.5-.69,1,.76,2.11,2.07,1.71,3.22-1,2.94-3.73,5-5.42,7.6a1.79,1.79,0,0,0-.12,1,4.25,4.25,0,0,0,.12,1.92,5.55,5.55,0,0,0,1.78,1.89,2.45,2.45,0,0,0,1.41.44l1.39-.42c.6-.64,1.43-1.11,1.8-1.91a3.1,3.1,0,0,0,0-2c-.07-.36-.61-.55-.62-.93s.58-.58.57-1-.68-.61-.59-1a6.68,6.68,0,0,1,1.47-2.53c1.5-1.79,3.66-3,4.88-5,.51-.82.16-1.95,0-2.9a1,1,0,0,0-.6-.7c-2.32-.93-5-1-7.1-2.39-1.58-1-3.23-2.65-3.41-4.53s1.43-3.73,2.45-5.43c.27-.44,1-.44,1.32-.81,1.25-1.25,2.19-2.8,3.5-4,.68-.62,1.46-1.43,2.38-1.4s1.24,1.35,2.08,1.55c.41.09.8-.45,1-.84a4,4,0,0,0,.33-2.39,1.91,1.91,0,0,0-1.26-1.26,4.73,4.73,0,0,0-2.93,0,10.65,10.65,0,0,0-3.29,2.25,42.39,42.39,0,0,0-6,6,42,42,0,0,0-5.31,9.18,7.84,7.84,0,0,0,0,3.88A1,1,0,0,0,1335.88,114.37Z" fill="#d96c28"/><path d="M1304.46,129.6a13.23,13.23,0,0,0,3.49,1.54l2.4-.33c1.06-1.06,2.22-2,3.17-3.18a6.23,6.23,0,0,0,1-1.86c1.22-3.35,2.43-6.72,3.39-10.15a4.45,4.45,0,0,0,0-2,69.09,69.09,0,0,0-1.73-6.8c-.18-.6-1-1.07-.83-1.69.16-.8,1.46-1.11,1.54-1.93.06-.58-.64-1.14-1.21-1.28a7.43,7.43,0,0,0-3.86,0c-.74.21-1.19,1-1.67,1.58a12.23,12.23,0,0,0-1.87,2.82c-1.66,3.94-3.58,7.86-4.4,12.06-.67,3.45-.17,7,0,10.55C1303.88,129.21,1304.2,129.45,1304.46,129.6Zm4-13.08a41.19,41.19,0,0,1,2.57-8.26,3.24,3.24,0,0,1,1.69-1.61c.27-.12.6.28.69.56.72,2.43,1.69,4.87,1.67,7.4,0,2.32-.94,4.57-1.75,6.74l-1.89,3.09c-.44-.19-1-.18-1.33-.57a9.94,9.94,0,0,1-1.54-3.49A9.31,9.31,0,0,1,1308.5,116.52Z" fill="#d96c28"/><path d="M1376.53,112.09a3.41,3.41,0,0,0,2,0c.36-.09.53-.6.9-.66s1.14-.12,1.31.3a5.85,5.85,0,0,1,0,2.94c-.41,3.15-1.2,6.25-1.66,9.4a3.91,3.91,0,0,0,0,2,7.92,7.92,0,0,0,2.23,3.14c.5.4,1.28.19,1.92.13l1.4-.45c.6-1.26,1.58-2.39,1.8-3.76.17-1-.79-2-.69-3,.5-5,.72-10.18,2.48-14.89.5-1.35,2.49-1.46,3.82-2,3-1.22,6.08-2.05,9-3.29.27-.11.62-.42.53-.69a2,2,0,0,0-1.21-1.29,7.44,7.44,0,0,0-3.89,0c-2.65.81-5,2.46-7.54,3.51-.14.06-.36-.14-.34-.28.14-1,.73-1.89.78-2.89a90.5,90.5,0,0,0,0-11.41,3.11,3.11,0,0,0-1-1.91c-.36-.36-1-.74-1.45-.45a6.24,6.24,0,0,0-2.42,3.15c-1.33,4.36-1.88,8.93-2.65,13.43-.2,1.16.55,2.63-.22,3.52-1.47,1.69-3.91,2.18-5.79,3.4-.26.18-.68.45-.58.75A2.17,2.17,0,0,0,1376.53,112.09Z" fill="#d96c28"/><path d="M1324.71,124.51a3.37,3.37,0,0,0,.61,1.19,2.09,2.09,0,0,0,.75.67,2,2,0,0,0,1,.12l3.29-.44c1.25-1.07,2.93-1.79,3.75-3.22.57-1,.24-2.31.09-3.46-.48-3.6-1.48-7.12-2-10.72-1.14-8.66-1.3-17.47-2.89-26.06-.16-.91-1.4-1.23-2.23-1.64a1,1,0,0,0-1,0,4,4,0,0,0-1.38,1.9,48.15,48.15,0,0,0-1.91,9.86,170,170,0,0,0,0,20.93A74.66,74.66,0,0,0,1324.71,124.51Z" fill="#d96c28"/></g></g><g id="personnel"><text transform="translate(90.95 632.9)" font-size="24" fill="#287bd9" font-family="Helvetica-Bold, Helvetica" font-weight="700">David <tspan x="72.02" y="0" letter-spacing="-0.05em">V</tspan><tspan x="86.72" y="0">ega-Barachowitz</tspan></text><line x1="90.95" y1="601.01" x2="1125.14" y2="601.01" fill="none" stroke="#287bd9" stroke-miterlimit="10" stroke-width="8"/><text transform="translate(814.88 649.36)" font-size="24" fill="#287bd9" font-family="Helvetica-Bold, Helvetica" font-weight="700">Xun Liu</text><text transform="translate(645.27 651.48)" font-size="24" fill="#287bd9" font-family="Helvetica-Bold, Helvetica" font-weight="700">Summer<tspan x="0" y="28.8">Interns</tspan></text><line x1="814.88" y1="619.44" x2="1158.23" y2="619.44" fill="none" stroke="#287bd9" stroke-miterlimit="10" stroke-width="8"/><line x1="645.27" y1="619.44" x2="804.67" y2="619.44" fill="none" stroke="#287bd9" stroke-miterlimit="10" stroke-width="8"/><line x1="645.27" y1="583.7" x2="804.67" y2="583.7" fill="none" stroke="#287bd9" stroke-miterlimit="10" stroke-width="8"/><text transform="translate(1331.97 632.9)" font-size="24" fill="#287bd9" font-family="Helvetica-Bold, Helvetica" font-weight="700">Carsten Rodin</text><line x1="1331.97" y1="601.01" x2="1920" y2="601.01" fill="none" stroke="#287bd9" stroke-miterlimit="10" stroke-width="8"/></g><g id="events-tools"><text transform="translate(151.5 379.21)" font-size="24" fill="#287bd9" font-family="HelveticaNeue, Helvetica Neue">UD O<tspan x="59.14" y="0" letter-spacing="-0.02em">f</tspan><tspan x="65.81" y="0">fice obtains</tspan><tspan font-family="HelveticaNeue-Bold, Helvetica Neue" font-weight="700"><tspan x="0" y="28.8">Rhino</tspan><tspan x="66.65" y="28.8" xml:space="preserve" font-family="HelveticaNeue, Helvetica Neue" font-weight="400" letter-spacing="0em"> softwa</tspan><tspan x="144.84" y="28.8" font-family="HelveticaNeue, Helvetica Neue" font-weight="400" letter-spacing="-0.02em">r</tspan><tspan x="152.4" y="28.8" font-family="HelveticaNeue, Helvetica Neue" font-weight="400">e</tspan></tspan></text><text transform="translate(504.62 379.21)" font-size="24" fill="#287bd9" font-family="HelveticaNeue, Helvetica Neue">Rhino used for <tspan x="0" y="28.8">Basement EAS</tspan></text><text transform="translate(863.23 379.28)" font-size="24" fill="#287bd9" font-family="Helvetica-Bold, Helvetica" font-weight="700">Prototype Parametric Modeling <tspan x="373.41" y="0" letter-spacing="-0.07em">T</tspan><tspan x="386.3" y="0">ool</tspan><tspan font-family="Helvetica" font-weight="400"><tspan x="0" y="28.8">in development, used for North Brooklyn, </tspan><tspan x="0" y="57.6">Bushwick, and Bronx Metro-North </tspan><tspan x="0" y="86.4">Neighborhood Studies</tspan></tspan></text><text transform="translate(1448.55 379.28)" font-size="24" fill="#287bd9" font-family="Helvetica-Bold, Helvetica" font-weight="700">UD<tspan x="34.66" y="0" letter-spacing="-0.07em">T</tspan><tspan x="47.55" y="0">ools for Rhino</tspan><tspan font-family="Helvetica" font-weight="400"><tspan x="0" y="28.8">in development, used for Soho-Noho,</tspan><tspan x="0" y="57.6">M-Crown Neighborhood Studies</tspan></tspan></text></g><g id="events-data"><text transform="translate(795.54 723.89) scale(1.05 1)" font-size="24" fill="#287bd9" font-family="HelveticaNeue, Helvetica Neue">File-based<tspan font-family="HelveticaNeue-Bold, Helvetica Neue" font-weight="700"><tspan x="0" y="28.8">3D Model of NYC</tspan></tspan><tspan x="0" y="57.6" letter-spacing="-0.02em">r</tspan><tspan x="7.56" y="57.6">eleased</tspan></text><text transform="translate(1529.77 723.89)" font-size="24" fill="#287bd9" font-family="HelveticaNeue-Bold, Helvetica Neue" font-weight="700">NYC Digital <tspan x="138.17" y="0" letter-spacing="-0.11em">T</tspan><tspan x="150.17" y="0">win</tspan><tspan font-family="HelveticaNeue, Helvetica Neue" font-weight="400"><tspan x="0" y="28.8">launches</tspan><tspan x="0" y="57.6">(inte</tspan><tspan x="45.33" y="57.6" letter-spacing="0.02em">r</tspan><tspan x="53.76" y="57.6">nal only)</tspan></tspan></text></g><g id="now"><text transform="translate(1713.21 513.39) rotate(0.1)" font-size="24" fill="#d96c28" font-family="HelveticaNeue-Bold, Helvetica Neue" font-weight="700">December 2020</text><polygon points="1733.25 522.65 1723.25 539.9 1713.31 522.62 1733.25 522.65" fill="#d96c28"/></g><g id="timeline"><line x1="1920" y1="540" y2="540" fill="none" stroke="#08192b" stroke-miterlimit="10"/><line x1="90.95" y1="540" x2="90.95" y2="575.23" fill="none" stroke="#231f20" stroke-width="2"/><text transform="translate(104.3 575.23)" font-size="36" fill="#08192b" font-family="HelveticaNeue-Bold, Helvetica Neue" font-weight="700">2017</text><line x1="1331.97" y1="540" x2="1331.97" y2="575.23" fill="none" stroke="#231f20" stroke-width="2"/><text transform="translate(1345.32 575.23)" font-size="36" fill="#08192b" font-family="HelveticaNeue-Bold, Helvetica Neue" font-weight="700">2020</text><line x1="1745.65" y1="540" x2="1745.65" y2="575.23" fill="none" stroke="#231f20" stroke-width="2"/><text transform="translate(1759 575.23)" font-size="36" fill="#08192b" font-family="HelveticaNeue-Bold, Helvetica Neue" font-weight="700">2021</text><line x1="504.62" y1="540" x2="504.62" y2="575.23" fill="none" stroke="#231f20" stroke-width="2"/><text transform="translate(517.97 575.23)" font-size="36" fill="#08192b" font-family="HelveticaNeue-Bold, Helvetica Neue" font-weight="700">2018</text><line x1="918.3" y1="540" x2="918.3" y2="575.23" fill="none" stroke="#231f20" stroke-width="2"/><text transform="translate(931.65 575.23)" font-size="36" fill="#08192b" font-family="HelveticaNeue-Bold, Helvetica Neue" font-weight="700">2019</text></g></svg>