<svg xmlns="http://www.w3.org/2000/svg" viewBox="0 0 1920 434.39"><defs><style>.cls-1,.cls-19,.cls-20,.cls-7{fill:none;}.cls-1{stroke:#231f20;stroke-width:2px;}.cls-2{font-size:36px;fill:#08192b;}.cls-10,.cls-15,.cls-18,.cls-2{font-family:HelveticaNeue-Bold, Helvetica Neue;}.cls-10,.cls-15,.cls-18,.cls-2,.cls-3{font-weight:700;}.cls-15,.cls-18,.cls-3,.cls-8{font-size:24px;}.cls-15,.cls-3,.cls-8{fill:#287bd9;}.cls-3{font-family:Helvetica-Bold, Helvetica;}.cls-4{letter-spacing:-0.07em;}.cls-5{font-family:Helvetica;}.cls-11,.cls-12,.cls-13,.cls-5{font-weight:400;}.cls-6{letter-spacing:-0.05em;}.cls-7{stroke:#287bd9;}.cls-19,.cls-20,.cls-7{stroke-miterlimit:10;}.cls-19,.cls-7{stroke-width:8px;}.cls-11,.cls-12,.cls-13,.cls-8{font-family:HelveticaNeue, Helvetica Neue;}.cls-12,.cls-9{letter-spacing:-0.02em;}.cls-11{letter-spacing:0em;}.cls-14{letter-spacing:-0.02em;}.cls-16{letter-spacing:-0.11em;}.cls-17{letter-spacing:0.02em;}.cls-18{fill:#d96c28;}.cls-19{stroke:#d96c28;}.cls-20{stroke:#08192b;}</style></defs><g id="Layer_2" data-name="Layer 2"><g id="Layer_1-2" data-name="Layer 1"><line class="cls-1" x1="90.95" y1="181.35" x2="90.95" y2="216.59"/><text class="cls-2" transform="translate(104.3 216.59)">2017</text><line class="cls-1" x1="1331.97" y1="181.35" x2="1331.97" y2="216.59"/><text class="cls-2" transform="translate(1345.32 216.59)">2020</text><line class="cls-1" x1="1745.65" y1="181.35" x2="1745.65" y2="216.59"/><text class="cls-2" transform="translate(1759 216.59)">2021</text><line class="cls-1" x1="504.62" y1="181.35" x2="504.62" y2="216.59"/><text class="cls-2" transform="translate(517.97 216.59)">2018</text><line class="cls-1" x1="918.3" y1="181.35" x2="918.3" y2="216.59"/><text class="cls-2" transform="translate(931.65 216.59)">2019</text><text class="cls-3" transform="translate(863.23 20.64)">Prototype “Parametric Modeling <tspan class="cls-4" x="373.41" y="0">T</tspan><tspan x="386.3" y="0">ool”</tspan><tspan class="cls-5"><tspan x="0" y="28.8">in development, used for North Brooklyn, </tspan><tspan x="0" y="57.6">Bushwick, and Bronx Metro-North </tspan><tspan x="0" y="86.4">Neighborhood Studies</tspan></tspan></text><text class="cls-3" transform="translate(1448.55 20.64)">UD<tspan class="cls-4" x="34.66" y="0">T</tspan><tspan x="47.55" y="0">ools for Rhino</tspan><tspan class="cls-5"><tspan x="0" y="28.8">in development, used for Soho-Noho,</tspan><tspan x="0" y="57.6">M-Crown Neighborhood Studies</tspan></tspan></text></g><g id="Personnel"><text class="cls-3" transform="translate(90.95 274.26)">David <tspan class="cls-6" x="72.02" y="0">V</tspan><tspan x="86.72" y="0">ega-Barachowitz</tspan></text><line class="cls-7" x1="90.95" y1="242.37" x2="1125.14" y2="242.37"/><text class="cls-3" transform="translate(814.88 290.72)">Xun Liu</text><text class="cls-3" transform="translate(645.27 292.83)">Summer<tspan x="0" y="28.8">Interns</tspan></text><line class="cls-7" x1="814.88" y1="260.8" x2="1158.23" y2="260.8"/><line class="cls-7" x1="645.27" y1="260.8" x2="804.67" y2="260.8"/><line class="cls-7" x1="645.27" y1="225.06" x2="804.67" y2="225.06"/><text class="cls-3" transform="translate(1331.97 274.26)">Carsten Rodin</text><line class="cls-7" x1="1331.97" y1="242.37" x2="1920" y2="242.37"/><text class="cls-8" transform="translate(151.5 20.57)">UD O<tspan class="cls-9" x="59.14" y="0">f</tspan><tspan x="65.81" y="0">fice obtains</tspan><tspan class="cls-10"><tspan x="0" y="28.8">Rhino</tspan><tspan class="cls-11" x="66.65" y="28.8" xml:space="preserve"> softwa</tspan><tspan class="cls-12" x="144.84" y="28.8">r</tspan><tspan class="cls-13" x="152.4" y="28.8">e</tspan></tspan></text><text class="cls-8" transform="translate(504.62 20.57)">Rhino used for <tspan x="0" y="28.8">Basement EAS</tspan></text><text class="cls-8" transform="translate(795.54 365.25) scale(1.05 1)">File-based<tspan class="cls-10"><tspan x="0" y="28.8">3D Model of NYC</tspan></tspan><tspan class="cls-14" x="0" y="57.6">r</tspan><tspan x="7.56" y="57.6">eleased</tspan></text><text class="cls-15" transform="translate(1529.77 365.25)">NYC Digital <tspan class="cls-16" x="138.17" y="0">T</tspan><tspan x="150.17" y="0">win</tspan><tspan class="cls-13"><tspan x="0" y="28.8">launches</tspan><tspan x="0" y="57.6">(inte</tspan><tspan class="cls-17" x="45.33" y="57.6">r</tspan><tspan x="53.76" y="57.6">nal only)</tspan></tspan></text></g><g id="Today"><text class="cls-18" transform="translate(1736.65 143.67)">Dec 2020</text><line class="cls-19" x1="1723.3" y1="181.36" x2="1723.3" y2="126.18"/></g><g id="timeline-root"><line class="cls-20" x1="1920" y1="181.35" y2="181.35"/></g></g></svg>