<svg xmlns="http://www.w3.org/2000/svg" viewBox="0 0 963 195.48"><defs><style>.cls-1,.cls-4,.cls-5{fill:none;stroke-miterlimit:10;}.cls-1{stroke:#287bd9;stroke-width:6px;}.cls-2{fill:#287bd9;}.cls-3{fill-rule:evenodd;}.cls-4,.cls-5{stroke:#000;}.cls-4{stroke-linecap:round;stroke-width:6.48px;}.cls-5{stroke-width:4px;}.cls-6{font-size:100px;font-family:HelveticaNeue-Bold, Helvetica Neue;font-weight:700;}</style></defs><g id="Layer_2" data-name="Layer 2"><g id="Layer_2-2" data-name="Layer 2"><line class="cls-1" y1="97.74" x2="941.47" y2="97.74"/><polygon class="cls-2" points="937.09 112.7 963 97.74 937.09 82.78 937.09 112.7"/></g><g id="draft"><polygon class="cls-3" points="66.8 173.78 66.8 163.89 76.45 163.89 76.25 132.16 76.25 61.68 85.73 61.68 85.73 53.85 108.39 53.85 108.39 61.68 119.11 61.68 119.11 112.78 122.82 112.78 122.82 55.08 138.48 55.08 138.48 34.48 148.38 34.48 147.96 23.35 167.33 23.35 167.33 101.66 170.63 101.66 170.63 67.86 175.16 67.86 175.16 53.85 187.53 21.7 200.72 53.85 200.72 67.86 206.49 67.86 206.49 128.86 208.96 128.86 208.96 82.28 216.79 82.28 216.79 69.51 228.75 69.51 228.75 41.89 231.63 41.89 231.63 69.51 242.35 69.51 242.35 82.28 252.24 82.28 252.24 128.45 252.35 163.89 259.2 163.89 259.2 173.37 66.8 173.78"/><polygon class="cls-3" points="731.29 151.87 731.29 144.83 738.16 144.83 738.01 122.24 738.01 72.07 744.76 72.07 744.76 66.49 760.9 66.49 760.9 72.07 768.53 72.07 768.53 108.45 771.17 108.45 771.17 67.37 782.32 67.37 782.32 52.7 789.36 52.7 789.06 44.78 802.85 44.78 802.85 100.53 805.2 100.53 805.2 76.47 808.43 76.47 808.43 66.49 817.23 43.61 826.62 66.49 826.62 76.47 830.73 76.47 830.73 119.89 832.49 119.89 832.49 86.74 838.06 86.74 838.06 77.64 846.57 77.64 846.57 57.98 848.62 57.98 848.62 77.64 856.25 77.64 856.25 86.74 863.29 86.74 863.29 119.6 863.37 144.83 868.25 144.83 868.25 151.58 731.29 151.87"/><rect class="cls-4" x="708.5" y="3.24" width="189" height="189"/><line class="cls-4" x1="897.5" y1="25.67" x2="708.5" y2="25.67"/><line class="cls-5" x1="878.74" y1="8.95" x2="888.64" y2="18.84"/><line class="cls-5" x1="878.74" y1="18.84" x2="888.64" y2="8.95"/><text class="cls-6" transform="translate(435.8 116.54)">{ }</text></g></g></svg>