<svg xmlns="http://www.w3.org/2000/svg" viewBox="0 0 963 154.96"><defs><style>.cls-1,.cls-3{fill:none;stroke-miterlimit:10;}.cls-1{stroke:#287bd9;stroke-width:6px;}.cls-2{fill:#287bd9;}.cls-3{stroke:#000;stroke-linecap:round;stroke-width:3.24px;}.cls-4{font-size:30px;font-family:HelveticaNeue-Bold, Helvetica Neue;font-weight:700;}</style></defs><g id="Layer_2" data-name="Layer 2"><g id="Layer_2-2" data-name="Layer 2"><line class="cls-1" y1="78.29" x2="941.47" y2="78.29"/><polygon class="cls-2" points="937.09 93.25 963 78.29 937.09 63.33 937.09 93.25"/></g><g id="draft"><path d="M215.77,34.33V24.81h-9.52V15.28h-9.52V5.76H101.51V122.25H111v9.52h9.52v9.53h9.52v9.52h95.22V34.33Zm-109.35,83V10.67h85.4v4.61H111V117.34Zm9.52,9.52V20.19h85.4v4.62H120.55V126.86Zm9.52,9.53V29.72h85.4v4.61H130.07V136.39Zm94.92,9.52H135V39.24h85.4Z"/><rect x="142.49" y="45.37" width="70.39" height="4.91"/><rect x="142.49" y="94.91" width="23.75" height="4.91"/><rect x="142.49" y="104.82" width="70.39" height="4.91"/><rect x="142.49" y="55.27" width="70.39" height="4.91"/><rect x="142.49" y="65.18" width="70.39" height="4.91"/><rect x="142.49" y="75.1" width="35.19" height="4.91"/><rect x="142.49" y="114.73" width="70.39" height="4.91"/><rect x="142.49" y="124.65" width="70.39" height="4.91"/><rect x="142.49" y="134.55" width="35.19" height="4.91"/><path d="M854.48,34.33V24.81H845V15.28h-9.52V5.76H740.21V122.25h9.52v9.52h9.52v9.53h9.52v9.52H864V34.33Zm-109.36,83V10.67h85.41v4.61h-80.8V117.34Zm9.52,9.52V20.19h85.41v4.62h-80.8V126.86Zm9.52,9.53V29.72h85.41v4.61h-80.8V136.39Zm94.93,9.52h-85.4V39.24h85.4Z"/><rect x="781.19" y="45.37" width="70.39" height="4.91"/><rect x="781.19" y="94.91" width="23.75" height="4.91"/><rect x="781.19" y="104.82" width="70.39" height="4.91"/><rect x="781.19" y="55.27" width="70.39" height="4.91"/><rect x="781.19" y="65.18" width="70.39" height="4.91"/><rect x="781.19" y="75.1" width="35.19" height="4.91"/><rect x="781.19" y="114.73" width="70.39" height="4.91"/><rect x="781.19" y="124.65" width="70.39" height="4.91"/><rect x="781.19" y="134.55" width="35.19" height="4.91"/><polyline class="cls-3" points="471.47 33.21 471.47 60.12 435.13 60.12 412.42 42.18 412.42 33.21"/><line class="cls-3" x1="435.13" y1="33.21" x2="435.13" y2="60.12"/><line class="cls-3" x1="471.47" y1="33.21" x2="435.13" y2="33.21"/><line class="cls-3" x1="471.47" y1="51.12" x2="435.47" y2="51.12"/><line class="cls-3" x1="435.47" y1="42.12" x2="471.47" y2="42.12"/><line class="cls-3" x1="417.47" y1="28.62" x2="435.47" y2="42.12"/><line class="cls-3" x1="417.47" y1="36.78" x2="417.47" y2="1.62"/><line class="cls-3" x1="471.47" y1="33.12" x2="466.97" y2="28.62"/><line class="cls-3" x1="430.97" y1="28.62" x2="466.97" y2="28.62"/><line class="cls-3" x1="435.47" y1="33.12" x2="417.47" y2="19.62"/><polyline class="cls-3" points="430.97 28.62 430.97 19.62 466.97 19.62 466.97 28.62"/><line class="cls-3" x1="466.97" y1="10.62" x2="466.97" y2="19.62"/><line class="cls-3" x1="430.97" y1="19.62" x2="430.97" y2="10.62"/><line class="cls-3" x1="430.97" y1="10.62" x2="417.47" y2="1.62"/><line class="cls-3" x1="430.97" y1="19.62" x2="417.47" y2="10.62"/><line class="cls-3" x1="417.47" y1="1.62" x2="451.97" y2="1.62"/><line class="cls-3" x1="466.97" y1="10.62" x2="451.97" y2="1.62"/><line class="cls-3" x1="466.97" y1="10.62" x2="430.97" y2="10.62"/><line class="cls-3" x1="412.42" y1="33.21" x2="417.4" y2="33.21"/><line class="cls-3" x1="435.13" y1="51.12" x2="412.42" y2="33.21"/><polyline class="cls-3" points="552.31 33.21 552.31 60.12 515.97 60.12 493.25 42.18 493.25 33.21"/><line class="cls-3" x1="515.97" y1="33.21" x2="515.97" y2="60.12"/><line class="cls-3" x1="552.31" y1="33.21" x2="515.97" y2="33.21"/><line class="cls-3" x1="552.31" y1="51.12" x2="516.31" y2="51.12"/><line class="cls-3" x1="516.31" y1="42.12" x2="552.31" y2="42.12"/><line class="cls-3" x1="498.31" y1="28.62" x2="516.31" y2="42.12"/><line class="cls-3" x1="498.31" y1="36.78" x2="498.31" y2="1.62"/><line class="cls-3" x1="552.31" y1="33.12" x2="547.81" y2="28.62"/><line class="cls-3" x1="511.81" y1="28.62" x2="547.81" y2="28.62"/><line class="cls-3" x1="516.31" y1="33.12" x2="498.31" y2="19.62"/><polyline class="cls-3" points="511.81 28.62 511.81 19.62 547.81 19.62 547.81 28.62"/><line class="cls-3" x1="547.81" y1="10.62" x2="547.81" y2="19.62"/><line class="cls-3" x1="511.81" y1="19.62" x2="511.81" y2="10.62"/><line class="cls-3" x1="511.81" y1="10.62" x2="498.31" y2="1.62"/><line class="cls-3" x1="511.81" y1="19.62" x2="498.31" y2="10.62"/><line class="cls-3" x1="498.31" y1="1.62" x2="532.81" y2="1.62"/><line class="cls-3" x1="547.81" y1="10.62" x2="532.81" y2="1.62"/><line class="cls-3" x1="547.81" y1="10.62" x2="511.81" y2="10.62"/><line class="cls-3" x1="493.25" y1="33.21" x2="498.23" y2="33.21"/><line class="cls-3" x1="515.97" y1="51.12" x2="493.25" y2="33.21"/><polyline class="cls-3" points="471.47 113.62 471.47 140.53 435.13 140.53 412.42 122.59 412.42 113.62"/><line class="cls-3" x1="435.13" y1="113.62" x2="435.13" y2="140.53"/><line class="cls-3" x1="471.47" y1="113.62" x2="435.13" y2="113.62"/><line class="cls-3" x1="471.47" y1="131.53" x2="435.47" y2="131.53"/><line class="cls-3" x1="435.47" y1="122.53" x2="471.47" y2="122.53"/><line class="cls-3" x1="417.47" y1="109.03" x2="435.47" y2="122.53"/><line class="cls-3" x1="417.47" y1="117.18" x2="417.47" y2="82.03"/><line class="cls-3" x1="471.47" y1="113.53" x2="466.97" y2="109.03"/><line class="cls-3" x1="430.97" y1="109.03" x2="466.97" y2="109.03"/><line class="cls-3" x1="435.47" y1="113.53" x2="417.47" y2="100.03"/><polyline class="cls-3" points="430.97 109.03 430.97 100.03 466.97 100.03 466.97 109.03"/><line class="cls-3" x1="466.97" y1="91.03" x2="466.97" y2="100.03"/><line class="cls-3" x1="430.97" y1="100.03" x2="430.97" y2="91.03"/><line class="cls-3" x1="430.97" y1="91.03" x2="417.47" y2="82.03"/><line class="cls-3" x1="430.97" y1="100.03" x2="417.47" y2="91.03"/><line class="cls-3" x1="417.47" y1="82.03" x2="451.97" y2="82.03"/><line class="cls-3" x1="466.97" y1="91.03" x2="451.97" y2="82.03"/><line class="cls-3" x1="466.97" y1="91.03" x2="430.97" y2="91.03"/><line class="cls-3" x1="412.42" y1="113.62" x2="417.4" y2="113.62"/><line class="cls-3" x1="435.13" y1="131.53" x2="412.42" y2="113.62"/><polyline class="cls-3" points="552.31 113.62 552.31 140.53 515.97 140.53 493.25 122.59 493.25 113.62"/><line class="cls-3" x1="515.97" y1="113.62" x2="515.97" y2="140.53"/><line class="cls-3" x1="552.31" y1="113.62" x2="515.97" y2="113.62"/><line class="cls-3" x1="552.31" y1="131.53" x2="516.31" y2="131.53"/><line class="cls-3" x1="516.31" y1="122.53" x2="552.31" y2="122.53"/><line class="cls-3" x1="498.31" y1="109.03" x2="516.31" y2="122.53"/><line class="cls-3" x1="498.31" y1="117.18" x2="498.31" y2="82.03"/><line class="cls-3" x1="552.31" y1="113.53" x2="547.81" y2="109.03"/><line class="cls-3" x1="511.81" y1="109.03" x2="547.81" y2="109.03"/><line class="cls-3" x1="516.31" y1="113.53" x2="498.31" y2="100.03"/><polyline class="cls-3" points="511.81 109.03 511.81 100.03 547.81 100.03 547.81 109.03"/><line class="cls-3" x1="547.81" y1="91.03" x2="547.81" y2="100.03"/><line class="cls-3" x1="511.81" y1="100.03" x2="511.81" y2="91.03"/><line class="cls-3" x1="511.81" y1="91.03" x2="498.31" y2="82.03"/><line class="cls-3" x1="511.81" y1="100.03" x2="498.31" y2="91.03"/><line class="cls-3" x1="498.31" y1="82.03" x2="532.81" y2="82.03"/><line class="cls-3" x1="547.81" y1="91.03" x2="532.81" y2="82.03"/><line class="cls-3" x1="547.81" y1="91.03" x2="511.81" y2="91.03"/><line class="cls-3" x1="493.25" y1="113.62" x2="498.23" y2="113.62"/><line class="cls-3" x1="515.97" y1="131.53" x2="493.25" y2="113.62"/><text class="cls-4" transform="translate(574.09 140.53)">x 25</text></g></g></svg>